<svg width="72" height="72" viewBox="0 0 72 72" fill="none" xmlns="http://www.w3.org/2000/svg">
<rect width="71.75" height="72" rx="24" fill="#4E505F"/>
<path d="M45.5113 41.592C44.8499 43.4053 43.7619 44.8133 42.2473 45.816C40.7326 46.8187 38.9833 47.32 36.9993 47.32C34.9939 47.32 33.2553 46.8827 31.7833 46.008C30.3326 45.112 29.2019 43.8533 28.3913 42.232C27.6019 40.6107 27.2073 38.68 27.2073 36.44C27.2073 34.2 27.6019 32.2693 28.3913 30.648C29.2019 29.0267 30.3326 27.7787 31.7833 26.904C33.2553 26.008 34.9726 25.56 36.9353 25.56C38.9833 25.56 40.6899 25.9867 42.0553 26.84C43.4419 27.672 44.4659 28.888 45.1273 30.488L42.5993 31.672C42.1299 30.456 41.4473 29.5387 40.5513 28.92C39.6766 28.28 38.5353 27.96 37.1273 27.96C35.6979 27.96 34.4393 28.3013 33.3513 28.984C32.2633 29.6453 31.4099 30.6053 30.7913 31.864C30.1939 33.1227 29.8953 34.648 29.8953 36.44C29.8953 39.0853 30.5246 41.1653 31.7833 42.68C33.0633 44.1733 34.8019 44.92 36.9993 44.92C38.4073 44.92 39.6339 44.568 40.6793 43.864C41.7246 43.1387 42.4819 42.0613 42.9513 40.632L45.5113 41.592Z" fill="white"/>
</svg>
