<svg width="73" height="72" viewBox="0 0 73 72" fill="none" xmlns="http://www.w3.org/2000/svg">
<rect x="0.5" width="71.75" height="72" rx="24" fill="#2E2F38"/>
<path d="M37.1016 25.56C38.787 25.56 40.163 25.912 41.2296 26.616C42.2963 27.2987 43.1603 28.4293 43.8216 30.008L41.4536 31.128C41.1336 30.1467 40.611 29.3787 39.8856 28.824C39.1816 28.248 38.2003 27.96 36.9416 27.96C35.7256 27.96 34.691 28.3653 33.8376 29.176C32.9843 29.9653 32.3336 31.032 31.8856 32.376C31.459 33.72 31.2456 35.2347 31.2456 36.92V37.496H31.3736C31.6083 36.5787 32.035 35.8427 32.6536 35.288C33.2936 34.712 34.0083 34.296 34.7976 34.04C35.6083 33.7627 36.3976 33.624 37.1656 33.624C38.595 33.624 39.843 33.9013 40.9096 34.456C41.9763 35.0107 42.7976 35.8 43.3736 36.824C43.971 37.848 44.2696 39.064 44.2696 40.472C44.2696 42.5627 43.6083 44.2267 42.2856 45.464C40.9843 46.7013 39.2243 47.32 37.0056 47.32C35.235 47.32 33.7416 46.8507 32.5256 45.912C31.3096 44.9733 30.3923 43.6933 29.7736 42.072C29.155 40.4293 28.8456 38.552 28.8456 36.44C28.8456 34.072 29.2083 32.088 29.9336 30.488C30.659 28.8667 31.6403 27.64 32.8776 26.808C34.1363 25.976 35.5443 25.56 37.1016 25.56ZM36.9736 36.088C35.6083 36.088 34.499 36.4933 33.6456 37.304C32.7923 38.1147 32.3656 39.16 32.3656 40.44C32.3656 41.2507 32.5683 41.9973 32.9736 42.68C33.379 43.3413 33.923 43.8747 34.6056 44.28C35.3096 44.664 36.099 44.856 36.9736 44.856C38.4243 44.856 39.555 44.472 40.3656 43.704C41.1763 42.9147 41.5816 41.8267 41.5816 40.44C41.5816 39.096 41.1763 38.04 40.3656 37.272C39.555 36.4827 38.4243 36.088 36.9736 36.088Z" fill="white"/>
</svg>
