<svg width="73" height="72" viewBox="0 0 73 72" fill="none" xmlns="http://www.w3.org/2000/svg">
<rect x="0.5" width="71.75" height="72" rx="24" fill="#2E2F38"/>
<path d="M36.4519 47.32C34.5745 47.32 32.9105 46.8827 31.4599 46.008C30.0305 45.112 29.0599 43.8853 28.5479 42.328L31.1079 41.016C31.4919 42.1893 32.0999 43.1387 32.9319 43.864C33.7852 44.568 35.0439 44.92 36.7079 44.92C38.0945 44.92 39.1612 44.5573 39.9079 43.832C40.6759 43.0853 41.0599 42.136 41.0599 40.984C41.0599 39.832 40.7292 38.9787 40.0679 38.424C39.4279 37.848 38.3505 37.56 36.8359 37.56C36.3665 37.56 35.8225 37.592 35.2039 37.656V35.096C35.3959 35.1173 35.5772 35.128 35.7479 35.128C35.9399 35.128 36.1105 35.128 36.2599 35.128C37.8172 35.128 38.9265 34.8293 39.5879 34.232C40.2492 33.6133 40.5799 32.6533 40.5799 31.352C40.5799 30.2427 40.2385 29.4 39.5559 28.824C38.8732 28.248 37.9025 27.96 36.6439 27.96C35.2999 27.96 34.2759 28.2587 33.5719 28.856C32.8679 29.432 32.3132 30.2213 31.9079 31.224L29.4759 30.072C29.9879 28.7493 30.8732 27.6613 32.1319 26.808C33.4119 25.9547 34.9372 25.528 36.7079 25.528C38.1799 25.528 39.3959 25.784 40.3559 26.296C41.3159 26.7867 42.0305 27.448 42.4999 28.28C42.9905 29.112 43.2359 30.0293 43.2359 31.032C43.2359 32.5467 42.8412 33.7627 42.0519 34.68C41.2625 35.576 40.3345 36.1093 39.2679 36.28V36.344C40.2065 36.3653 41.0065 36.6 41.6679 37.048C42.3292 37.4747 42.8305 38.04 43.1719 38.744C43.5345 39.4267 43.7159 40.1627 43.7159 40.952C43.7159 42.1893 43.4065 43.288 42.7879 44.248C42.1905 45.208 41.3479 45.9653 40.2599 46.52C39.1719 47.0533 37.9025 47.32 36.4519 47.32Z" fill="white"/>
</svg>
