<svg width="73" height="72" viewBox="0 0 73 72" fill="none" xmlns="http://www.w3.org/2000/svg">
<rect x="0.75" width="71.75" height="72" rx="24" fill="#2E2F38"/>
<path d="M36.6215 47.32C34.7442 47.32 33.2295 46.8933 32.0775 46.04C30.9468 45.1867 30.0722 44.0027 29.4535 42.488L31.9495 41.176C32.2908 42.2853 32.8135 43.192 33.5175 43.896C34.2428 44.5787 35.2988 44.92 36.6855 44.92C38.1362 44.92 39.2775 44.5253 40.1095 43.736C40.9628 42.9253 41.3895 41.816 41.3895 40.408C41.3895 38.9147 40.9948 37.784 40.2055 37.016C39.4375 36.248 38.3388 35.864 36.9095 35.864C35.8855 35.864 34.9682 36.024 34.1575 36.344C33.3468 36.664 32.6962 37.1867 32.2055 37.912L29.9655 37.496L31.2135 25.88H43.0855V28.28H33.3895L32.5575 34.936L32.4935 35.224H32.5575C33.0695 34.6907 33.7202 34.264 34.5095 33.944C35.3202 33.624 36.2802 33.464 37.3895 33.464C38.7335 33.464 39.8962 33.752 40.8775 34.328C41.8802 34.8827 42.6588 35.672 43.2135 36.696C43.7682 37.72 44.0455 38.9147 44.0455 40.28C44.0455 41.7307 43.7255 42.9893 43.0855 44.056C42.4668 45.1013 41.6028 45.912 40.4935 46.488C39.3842 47.0427 38.0935 47.32 36.6215 47.32Z" fill="white"/>
</svg>
