<svg width="73" height="72" viewBox="0 0 73 72" fill="none" xmlns="http://www.w3.org/2000/svg">
<rect x="0.5" width="71.75" height="72" rx="24" fill="#4E505F"/>
<path d="M29.1649 25.56C30.7222 25.56 31.9595 26.0933 32.8769 27.16C33.7942 28.2053 34.2529 29.6133 34.2529 31.384C34.2529 33.1333 33.7942 34.5413 32.8769 35.608C31.9595 36.6747 30.7222 37.208 29.1649 37.208C27.6075 37.208 26.3702 36.6747 25.4529 35.608C24.5355 34.5413 24.0769 33.1333 24.0769 31.384C24.0769 29.6133 24.5355 28.2053 25.4529 27.16C26.3702 26.0933 27.6075 25.56 29.1649 25.56ZM28.5569 47L41.9969 25.88H44.4289L30.9889 47H28.5569ZM29.1649 27.576C28.2475 27.576 27.5435 27.9173 27.0529 28.6C26.5835 29.2613 26.3489 30.1893 26.3489 31.384C26.3489 32.5787 26.5835 33.5173 27.0529 34.2C27.5435 34.8613 28.2475 35.192 29.1649 35.192C30.0822 35.192 30.7755 34.8613 31.2449 34.2C31.7355 33.5173 31.9809 32.5787 31.9809 31.384C31.9809 30.1893 31.7355 29.2613 31.2449 28.6C30.7755 27.9173 30.0822 27.576 29.1649 27.576ZM43.8209 35.672C45.3782 35.672 46.6155 36.2053 47.5329 37.272C48.4502 38.3173 48.9089 39.7253 48.9089 41.496C48.9089 43.2453 48.4502 44.6533 47.5329 45.72C46.6155 46.7867 45.3782 47.32 43.8209 47.32C42.2635 47.32 41.0262 46.7867 40.1089 45.72C39.1915 44.6533 38.7329 43.2453 38.7329 41.496C38.7329 39.7253 39.1915 38.3173 40.1089 37.272C41.0262 36.2053 42.2635 35.672 43.8209 35.672ZM43.8209 37.688C42.9035 37.688 42.1995 38.0293 41.7089 38.712C41.2395 39.3733 41.0049 40.3013 41.0049 41.496C41.0049 42.6907 41.2395 43.6293 41.7089 44.312C42.1995 44.9733 42.9035 45.304 43.8209 45.304C44.7382 45.304 45.4315 44.9733 45.9009 44.312C46.3915 43.6293 46.6369 42.6907 46.6369 41.496C46.6369 40.3013 46.3915 39.3733 45.9009 38.712C45.4315 38.0293 44.7382 37.688 43.8209 37.688Z" fill="white"/>
</svg>
