<svg width="73" height="72" viewBox="0 0 73 72" fill="none" xmlns="http://www.w3.org/2000/svg">
<rect x="0.5" width="71.75" height="72" rx="24" fill="white"/>
<path d="M36.129 25.56C37.8997 25.56 39.393 26.0293 40.609 26.968C41.825 27.8853 42.7423 29.1653 43.361 30.808C43.9797 32.4293 44.289 34.3067 44.289 36.44C44.289 39.9813 43.5957 42.68 42.209 44.536C40.8437 46.392 38.8277 47.32 36.161 47.32C34.4117 47.32 32.9077 46.9147 31.649 46.104C30.3903 45.2933 29.4517 44.1093 28.833 42.552L31.361 41.208C31.7023 42.3173 32.257 43.2133 33.025 43.896C33.8143 44.5787 34.8917 44.92 36.257 44.92C37.729 44.92 38.881 44.536 39.713 43.768C40.545 43 41.121 41.912 41.441 40.504C41.7823 39.096 41.953 37.4533 41.953 35.576V35.288H41.825C41.569 36.248 41.121 37.0267 40.481 37.624C39.841 38.2 39.1157 38.616 38.305 38.872C37.5157 39.128 36.7263 39.256 35.937 39.256C34.5503 39.256 33.3237 38.9893 32.257 38.456C31.1903 37.9013 30.3583 37.1333 29.761 36.152C29.1637 35.1707 28.865 34.008 28.865 32.664C28.865 30.5093 29.505 28.792 30.785 27.512C32.0863 26.2107 33.8677 25.56 36.129 25.56ZM36.161 28.024C34.6677 28.024 33.5263 28.44 32.737 29.272C31.9477 30.0827 31.553 31.224 31.553 32.696C31.553 33.9547 31.969 34.9573 32.801 35.704C33.633 36.4293 34.753 36.792 36.161 36.792C37.5477 36.792 38.657 36.3867 39.489 35.576C40.3423 34.7653 40.769 33.72 40.769 32.44C40.769 31.1173 40.3423 30.0507 39.489 29.24C38.657 28.4293 37.5477 28.024 36.161 28.024Z" fill="black"/>
</svg>
