<svg width="73" height="72" viewBox="0 0 73 72" fill="none" xmlns="http://www.w3.org/2000/svg">
<rect x="0.75" width="71.75" height="72" rx="24" fill="white"/>
<path d="M36.7489 47.32C34.3595 47.32 32.4502 46.392 31.0209 44.536C29.5915 42.68 28.8769 39.9813 28.8769 36.44C28.8769 32.8987 29.5915 30.2 31.0209 28.344C32.4502 26.488 34.3595 25.56 36.7489 25.56C39.1595 25.56 41.0689 26.488 42.4769 28.344C43.9062 30.2 44.6209 32.8987 44.6209 36.44C44.6209 39.9813 43.9062 42.68 42.4769 44.536C41.0689 46.392 39.1595 47.32 36.7489 47.32ZM36.7489 45.016C38.4555 45.016 39.7462 44.28 40.6209 42.808C41.5169 41.336 41.9649 39.2133 41.9649 36.44C41.9649 33.6453 41.5169 31.5227 40.6209 30.072C39.7462 28.6 38.4555 27.864 36.7489 27.864C35.0635 27.864 33.7729 28.6 32.8769 30.072C31.9809 31.5227 31.5329 33.6453 31.5329 36.44C31.5329 39.2133 31.9809 41.336 32.8769 42.808C33.7729 44.28 35.0635 45.016 36.7489 45.016Z" fill="black"/>
</svg>
