<svg width="375" height="812" viewBox="0 0 375 812" fill="none" xmlns="http://www.w3.org/2000/svg">
<g clip-path="url(#clip0_5_23375)">
<rect width="375" height="812" fill="#17171C"/>
<circle cx="187" cy="76" r="836" fill="#F1F2F3"/>
<path opacity="0.4" d="M228.89 157.2C230.917 157.2 232.543 157.653 233.77 158.56C234.997 159.44 235.943 160.72 236.61 162.4L234.73 163.28C234.357 162.027 233.69 161.013 232.73 160.24C231.77 159.44 230.45 159.04 228.77 159.04C227.357 159.04 226.13 159.373 225.09 160.04C224.077 160.707 223.237 161.627 222.57 162.8C221.903 163.947 221.41 165.253 221.09 166.72C220.797 168.187 220.65 169.733 220.65 171.36C220.65 171.76 220.663 172.187 220.69 172.64C220.717 173.093 220.757 173.56 220.81 174.04H220.93C221.117 172.627 221.597 171.453 222.37 170.52C223.17 169.587 224.117 168.893 225.21 168.44C226.33 167.96 227.477 167.72 228.65 167.72C231.263 167.72 233.33 168.48 234.85 170C236.397 171.52 237.17 173.547 237.17 176.08C237.17 178.613 236.383 180.64 234.81 182.16C233.237 183.653 231.117 184.4 228.45 184.4C225.277 184.4 222.863 183.187 221.21 180.76C219.583 178.307 218.77 174.987 218.77 170.8C218.77 167.813 219.21 165.32 220.09 163.32C220.97 161.293 222.17 159.773 223.69 158.76C225.237 157.72 226.97 157.2 228.89 157.2ZM228.49 169.6C227.157 169.6 225.983 169.907 224.97 170.52C223.983 171.107 223.21 171.893 222.65 172.88C222.117 173.84 221.85 174.907 221.85 176.08C221.85 177.253 222.13 178.333 222.69 179.32C223.25 180.28 224.023 181.053 225.01 181.64C225.997 182.227 227.13 182.52 228.41 182.52C230.49 182.52 232.117 181.933 233.29 180.76C234.49 179.587 235.09 178 235.09 176C235.09 174.08 234.503 172.533 233.33 171.36C232.157 170.187 230.543 169.6 228.49 169.6ZM243.815 180.72C244.508 180.72 245.042 181 245.415 181.56C245.815 182.093 246.015 182.787 246.015 183.64C246.015 184.707 245.735 185.733 245.175 186.72C244.615 187.733 243.748 188.533 242.575 189.12L241.455 188.12C242.415 187.773 243.175 187.187 243.735 186.36C244.322 185.533 244.602 184.733 244.575 183.96L244.455 183.92C244.295 184.187 243.988 184.32 243.535 184.32C243.162 184.32 242.802 184.173 242.455 183.88C242.135 183.56 241.975 183.12 241.975 182.56C241.975 182.053 242.148 181.627 242.495 181.28C242.842 180.907 243.282 180.72 243.815 180.72ZM250.764 184V182.36C254.097 179.747 256.844 177.48 259.004 175.56C261.191 173.64 262.817 171.867 263.884 170.24C264.951 168.613 265.484 166.947 265.484 165.24C265.484 163.373 264.897 161.88 263.724 160.76C262.577 159.613 261.004 159.04 259.004 159.04C256.924 159.04 255.257 159.693 254.004 161C252.777 162.307 252.084 164.053 251.924 166.24L250.164 165.24C250.404 162.84 251.284 160.907 252.804 159.44C254.351 157.947 256.431 157.2 259.044 157.2C261.657 157.2 263.724 157.933 265.244 159.4C266.791 160.867 267.564 162.813 267.564 165.24C267.564 167.027 267.057 168.773 266.044 170.48C265.057 172.16 263.537 173.947 261.484 175.84C259.431 177.707 256.831 179.813 253.684 182.16V182.2C254.004 182.2 254.444 182.2 255.004 182.2C255.564 182.173 256.004 182.16 256.324 182.16H268.404V184H250.764ZM281.947 157.2C284.107 157.2 285.907 157.76 287.347 158.88C288.814 159.973 289.907 161.547 290.627 163.6C291.374 165.627 291.747 168.027 291.747 170.8C291.747 175.28 290.867 178.667 289.107 180.96C287.374 183.253 285 184.4 281.987 184.4C279.8 184.4 277.934 183.893 276.387 182.88C274.84 181.84 273.774 180.413 273.187 178.6L275.147 177.6C275.547 179.067 276.307 180.267 277.427 181.2C278.547 182.107 280.08 182.56 282.027 182.56C284.054 182.56 285.64 182 286.787 180.88C287.934 179.733 288.747 178.227 289.227 176.36C289.707 174.493 289.947 172.427 289.947 170.16C289.947 169.68 289.92 169.213 289.867 168.76C289.814 168.28 289.76 167.827 289.707 167.4H289.587C289.4 168.893 288.907 170.12 288.107 171.08C287.307 172.04 286.334 172.747 285.187 173.2C284.067 173.653 282.92 173.88 281.747 173.88C280.014 173.88 278.494 173.547 277.187 172.88C275.907 172.213 274.907 171.267 274.187 170.04C273.467 168.813 273.107 167.373 273.107 165.72C273.107 163.133 273.894 161.067 275.467 159.52C277.067 157.973 279.227 157.2 281.947 157.2ZM281.987 159.08C279.827 159.08 278.147 159.68 276.947 160.88C275.774 162.08 275.187 163.707 275.187 165.76C275.187 167.653 275.787 169.173 276.987 170.32C278.214 171.44 279.854 172 281.907 172C283.24 172 284.414 171.72 285.427 171.16C286.44 170.573 287.227 169.787 287.787 168.8C288.374 167.787 288.667 166.667 288.667 165.44C288.667 164.24 288.374 163.16 287.787 162.2C287.2 161.24 286.4 160.48 285.387 159.92C284.4 159.36 283.267 159.08 281.987 159.08ZM302.578 184V163.08C302.578 162.627 302.578 162.173 302.578 161.72C302.604 161.24 302.618 160.76 302.618 160.28C301.764 161.347 300.711 162.267 299.458 163.04C298.231 163.787 296.978 164.333 295.698 164.68L295.178 162.88C295.951 162.667 296.831 162.307 297.818 161.8C298.831 161.267 299.791 160.64 300.698 159.92C301.631 159.173 302.324 158.4 302.778 157.6H304.578V184H302.578ZM320.557 161.92C321.09 161.92 321.517 162.093 321.837 162.44C322.183 162.76 322.357 163.187 322.357 163.72C322.357 164.253 322.183 164.693 321.837 165.04C321.517 165.36 321.09 165.52 320.557 165.52C320.023 165.52 319.583 165.36 319.237 165.04C318.917 164.693 318.757 164.253 318.757 163.72C318.757 163.187 318.917 162.76 319.237 162.44C319.583 162.093 320.023 161.92 320.557 161.92ZM329.957 170.44V172.28H311.157V170.44H329.957ZM320.557 177.2C321.09 177.2 321.517 177.36 321.837 177.68C322.183 178 322.357 178.427 322.357 178.96C322.357 179.493 322.183 179.933 321.837 180.28C321.517 180.6 321.09 180.76 320.557 180.76C320.023 180.76 319.583 180.6 319.237 180.28C318.917 179.933 318.757 179.493 318.757 178.96C318.757 178.427 318.917 178 319.237 177.68C319.583 177.36 320.023 177.2 320.557 177.2ZM343.857 184.4C341.537 184.4 339.617 183.907 338.097 182.92C336.577 181.907 335.511 180.333 334.897 178.2L336.817 177.24C337.191 178.947 337.964 180.267 339.137 181.2C340.311 182.107 341.897 182.56 343.897 182.56C345.951 182.56 347.591 181.96 348.817 180.76C350.071 179.533 350.697 177.933 350.697 175.96C350.697 173.907 350.097 172.293 348.897 171.12C347.724 169.947 346.151 169.36 344.177 169.36C342.471 169.36 341.071 169.64 339.977 170.2C338.884 170.76 338.017 171.467 337.377 172.32L335.657 172.04L337.057 157.6H351.657V159.44H338.737L337.697 169.68L337.617 170.2H337.657C338.297 169.453 339.164 168.827 340.257 168.32C341.351 167.787 342.751 167.52 344.457 167.52C346.111 167.52 347.564 167.867 348.817 168.56C350.071 169.253 351.044 170.227 351.737 171.48C352.431 172.733 352.777 174.2 352.777 175.88C352.777 177.587 352.391 179.08 351.617 180.36C350.871 181.64 349.831 182.64 348.497 183.36C347.164 184.053 345.617 184.4 343.857 184.4Z" fill="black"/>
<path d="M80.7805 291V240.792C80.7805 239.704 80.7805 238.616 80.7805 237.528C80.8445 236.376 80.8765 235.224 80.8765 234.072C78.8285 236.632 76.3005 238.84 73.2925 240.696C70.3485 242.488 67.3405 243.8 64.2685 244.632L63.0205 240.312C64.8765 239.8 66.9885 238.936 69.3565 237.72C71.7885 236.44 74.0925 234.936 76.2685 233.208C78.5085 231.416 80.1725 229.56 81.2605 227.64H85.5805V291H80.7805ZM105.594 283.128C107.258 283.128 108.538 283.8 109.434 285.144C110.394 286.424 110.874 288.088 110.874 290.136C110.874 292.696 110.202 295.16 108.858 297.528C107.514 299.96 105.434 301.88 102.618 303.288L99.9295 300.888C102.234 300.056 104.058 298.648 105.402 296.664C106.81 294.68 107.482 292.76 107.418 290.904L107.13 290.808C106.746 291.448 106.01 291.768 104.922 291.768C104.026 291.768 103.162 291.416 102.33 290.712C101.562 289.944 101.178 288.888 101.178 287.544C101.178 286.328 101.594 285.304 102.426 284.472C103.258 283.576 104.314 283.128 105.594 283.128ZM122.271 291V287.064C130.271 280.792 136.863 275.352 142.047 270.744C147.295 266.136 151.199 261.88 153.759 257.976C156.319 254.072 157.599 250.072 157.599 245.976C157.599 241.496 156.191 237.912 153.375 235.224C150.623 232.472 146.847 231.096 142.047 231.096C137.055 231.096 133.055 232.664 130.047 235.8C127.103 238.936 125.439 243.128 125.055 248.376L120.831 245.976C121.407 240.216 123.519 235.576 127.167 232.056C130.879 228.472 135.871 226.68 142.143 226.68C148.415 226.68 153.375 228.44 157.023 231.96C160.735 235.48 162.591 240.152 162.591 245.976C162.591 250.264 161.375 254.456 158.943 258.552C156.575 262.584 152.927 266.872 147.999 271.416C143.071 275.896 136.831 280.952 129.279 286.584V286.68C130.047 286.68 131.103 286.68 132.447 286.68C133.791 286.616 134.847 286.584 135.615 286.584H164.607V291H122.271ZM196.726 291.96C191.158 291.96 186.55 290.776 182.902 288.408C179.254 285.976 176.694 282.2 175.222 277.08L179.83 274.776C180.726 278.872 182.582 282.04 185.398 284.28C188.214 286.456 192.022 287.544 196.822 287.544C201.75 287.544 205.686 286.104 208.63 283.224C211.638 280.28 213.142 276.44 213.142 271.704C213.142 266.776 211.702 262.904 208.822 260.088C206.006 257.272 202.23 255.864 197.494 255.864C193.398 255.864 190.038 256.536 187.414 257.88C184.79 259.224 182.71 260.92 181.174 262.968L177.046 262.296L180.406 227.64H215.446V232.056H184.438L181.942 256.632L181.75 257.88H181.846C183.382 256.088 185.462 254.584 188.086 253.368C190.71 252.088 194.07 251.448 198.166 251.448C202.134 251.448 205.622 252.28 208.63 253.944C211.638 255.608 213.974 257.944 215.638 260.952C217.302 263.96 218.134 267.48 218.134 271.512C218.134 275.608 217.206 279.192 215.35 282.264C213.558 285.336 211.062 287.736 207.862 289.464C204.662 291.128 200.95 291.96 196.726 291.96ZM251.789 226.776C257.741 226.776 262.509 228.216 266.093 231.096C269.677 233.976 271.469 237.88 271.469 242.808C271.469 246.456 270.477 249.56 268.493 252.12C266.509 254.68 263.757 256.504 260.237 257.592V257.688C264.525 258.776 267.917 260.792 270.413 263.736C272.973 266.68 274.253 270.2 274.253 274.296C274.253 277.816 273.293 280.92 271.373 283.608C269.517 286.232 266.893 288.28 263.501 289.752C260.173 291.224 256.269 291.96 251.789 291.96C247.373 291.96 243.469 291.224 240.077 289.752C236.749 288.28 234.125 286.232 232.205 283.608C230.349 280.92 229.421 277.816 229.421 274.296C229.421 270.2 230.669 266.68 233.165 263.736C235.725 260.792 239.149 258.776 243.437 257.688V257.592C239.981 256.568 237.229 254.776 235.181 252.216C233.197 249.592 232.205 246.456 232.205 242.808C232.205 237.88 233.965 233.976 237.485 231.096C241.069 228.216 245.837 226.776 251.789 226.776ZM251.789 231.192C247.373 231.192 243.821 232.28 241.133 234.456C238.509 236.568 237.197 239.512 237.197 243.288C237.197 247 238.509 249.976 241.133 252.216C243.821 254.392 247.373 255.48 251.789 255.48C256.205 255.48 259.757 254.392 262.445 252.216C265.133 249.976 266.477 247 266.477 243.288C266.477 239.512 265.133 236.568 262.445 234.456C259.821 232.28 256.269 231.192 251.789 231.192ZM251.789 287.544C257.101 287.544 261.325 286.296 264.461 283.8C267.661 281.304 269.261 278.008 269.261 273.912C269.261 269.752 267.661 266.392 264.461 263.832C261.261 261.272 257.037 259.992 251.789 259.992C246.605 259.992 242.413 261.272 239.213 263.832C236.013 266.392 234.413 269.752 234.413 273.912C234.413 278.008 236.013 281.304 239.213 283.8C242.413 286.296 246.605 287.544 251.789 287.544ZM290.748 283.128C292.028 283.128 293.052 283.544 293.82 284.376C294.652 285.144 295.068 286.168 295.068 287.448C295.068 288.728 294.652 289.784 293.82 290.616C293.052 291.384 292.028 291.768 290.748 291.768C289.468 291.768 288.412 291.384 287.58 290.616C286.812 289.784 286.428 288.728 286.428 287.448C286.428 286.168 286.812 285.144 287.58 284.376C288.412 283.544 289.468 283.128 290.748 283.128ZM307.521 291V287.064C315.521 280.792 322.113 275.352 327.297 270.744C332.545 266.136 336.449 261.88 339.009 257.976C341.569 254.072 342.849 250.072 342.849 245.976C342.849 241.496 341.441 237.912 338.625 235.224C335.873 232.472 332.097 231.096 327.297 231.096C322.305 231.096 318.305 232.664 315.297 235.8C312.353 238.936 310.689 243.128 310.305 248.376L306.081 245.976C306.657 240.216 308.769 235.576 312.417 232.056C316.129 228.472 321.121 226.68 327.393 226.68C333.665 226.68 338.625 228.44 342.273 231.96C345.985 235.48 347.841 240.152 347.841 245.976C347.841 250.264 346.625 254.456 344.193 258.552C341.825 262.584 338.177 266.872 333.249 271.416C328.321 275.896 322.081 280.952 314.529 286.584V286.68C315.297 286.68 316.353 286.68 317.697 286.68C319.041 286.616 320.097 286.584 320.865 286.584H349.857V291H307.521Z" fill="black"/>
<rect x="20" y="322" width="71.75" height="72" rx="24" fill="#D2D3DA"/>
<path d="M65.5113 363.592C65.0633 364.787 64.4233 365.821 63.5913 366.696C62.7593 367.549 61.7779 368.2 60.6473 368.648C59.5379 369.096 58.3219 369.32 56.9993 369.32C54.9939 369.32 53.2553 368.883 51.7833 368.008C50.3326 367.112 49.2019 365.853 48.3913 364.232C47.6019 362.611 47.2073 360.68 47.2073 358.44C47.2073 356.2 47.6019 354.269 48.3913 352.648C49.2019 351.027 50.3326 349.779 51.7833 348.904C53.2553 348.008 54.9726 347.56 56.9353 347.56C58.3006 347.56 59.5166 347.752 60.5833 348.136C61.6499 348.499 62.5566 349.053 63.3033 349.8C64.0713 350.525 64.6793 351.421 65.1273 352.488L62.5993 353.672C62.1299 352.456 61.4473 351.539 60.5513 350.92C59.6766 350.28 58.5353 349.96 57.1273 349.96C55.6979 349.96 54.4393 350.301 53.3513 350.984C52.2633 351.645 51.4099 352.605 50.7913 353.864C50.1939 355.123 49.8953 356.648 49.8953 358.44C49.8953 360.211 50.1833 361.736 50.7593 363.016C51.3353 364.275 52.1566 365.245 53.2233 365.928C54.2899 366.589 55.5486 366.92 56.9993 366.92C58.4073 366.92 59.6339 366.568 60.6793 365.864C61.7246 365.139 62.4819 364.061 62.9513 362.632L65.5113 363.592Z" fill="black"/>
<rect x="107.75" y="322" width="71.75" height="72" rx="24" fill="#D2D3DA"/>
<path fill-rule="evenodd" clip-rule="evenodd" d="M150.582 349.555L151.137 348.723L149.473 347.613L148.918 348.445L136.918 366.445L136.363 367.277L138.027 368.387L138.582 367.555L150.582 349.555ZM136.75 348V349V351H138.75H139.75V353H138.75H136.75V355V356H134.75V355V353H132.75H131.75V351H132.75H134.75V349V348H136.75ZM148.75 363H147.75V365H148.75H154.75H155.75V363H154.75H148.75Z" fill="black"/>
<rect x="195.5" y="322" width="71.75" height="72" rx="24" fill="#D2D3DA"/>
<path d="M224.165 347.56C225.722 347.56 226.96 348.093 227.877 349.16C228.794 350.205 229.253 351.613 229.253 353.384C229.253 355.133 228.794 356.541 227.877 357.608C226.96 358.675 225.722 359.208 224.165 359.208C222.608 359.208 221.37 358.675 220.453 357.608C219.536 356.541 219.077 355.133 219.077 353.384C219.077 351.613 219.536 350.205 220.453 349.16C221.37 348.093 222.608 347.56 224.165 347.56ZM223.557 369L236.997 347.88H239.429L225.989 369H223.557ZM224.165 349.576C223.248 349.576 222.544 349.917 222.053 350.6C221.584 351.261 221.349 352.189 221.349 353.384C221.349 354.579 221.584 355.517 222.053 356.2C222.544 356.861 223.248 357.192 224.165 357.192C225.082 357.192 225.776 356.861 226.245 356.2C226.736 355.517 226.981 354.579 226.981 353.384C226.981 352.189 226.736 351.261 226.245 350.6C225.776 349.917 225.082 349.576 224.165 349.576ZM238.821 357.672C240.378 357.672 241.616 358.205 242.533 359.272C243.45 360.317 243.909 361.725 243.909 363.496C243.909 365.245 243.45 366.653 242.533 367.72C241.616 368.787 240.378 369.32 238.821 369.32C237.264 369.32 236.026 368.787 235.109 367.72C234.192 366.653 233.733 365.245 233.733 363.496C233.733 361.725 234.192 360.317 235.109 359.272C236.026 358.205 237.264 357.672 238.821 357.672ZM238.821 359.688C237.904 359.688 237.2 360.029 236.709 360.712C236.24 361.373 236.005 362.301 236.005 363.496C236.005 364.691 236.24 365.629 236.709 366.312C237.2 366.973 237.904 367.304 238.821 367.304C239.738 367.304 240.432 366.973 240.901 366.312C241.392 365.629 241.637 364.691 241.637 363.496C241.637 362.301 241.392 361.373 240.901 360.712C240.432 360.029 239.738 359.688 238.821 359.688Z" fill="black"/>
<rect x="283.25" y="322" width="71.75" height="72" rx="24" fill="#4B5EFC"/>
<path d="M327.034 357.672V360.072H311.482V357.672H327.034ZM319.258 363.08C319.876 363.08 320.378 363.272 320.762 363.656C321.146 364.04 321.338 364.541 321.338 365.16C321.338 365.779 321.146 366.28 320.762 366.664C320.378 367.048 319.876 367.24 319.258 367.24C318.639 367.24 318.138 367.048 317.754 366.664C317.37 366.28 317.178 365.779 317.178 365.16C317.178 364.541 317.37 364.04 317.754 363.656C318.138 363.272 318.639 363.08 319.258 363.08ZM319.258 350.568C319.876 350.568 320.378 350.76 320.762 351.144C321.146 351.528 321.338 352.029 321.338 352.648C321.338 353.267 321.146 353.768 320.762 354.152C320.378 354.536 319.876 354.728 319.258 354.728C318.639 354.728 318.138 354.536 317.754 354.152C317.37 353.768 317.178 353.267 317.178 352.648C317.178 352.029 317.37 351.528 317.754 351.144C318.138 350.76 318.639 350.568 319.258 350.568Z" fill="white"/>
<rect x="20" y="410" width="71.75" height="72" rx="24" fill="white"/>
<path d="M48.3113 435.88H63.8633V438.28C61.1966 441.075 59.2659 444.008 58.0713 447.08C56.8979 450.131 56.3113 453.437 56.3113 457H53.6873C53.6873 453.587 54.2953 450.291 55.5113 447.112C56.7486 443.912 58.6046 440.968 61.0793 438.28H48.3113V435.88Z" fill="black"/>
<rect x="107.75" y="410" width="71.75" height="72" rx="24" fill="white"/>
<path d="M143.747 435.592C145.773 435.592 147.395 436.093 148.611 437.096C149.848 438.077 150.467 439.421 150.467 441.128C150.467 442.216 150.2 443.176 149.667 444.008C149.155 444.819 148.429 445.437 147.491 445.864V445.896C148.685 446.344 149.635 447.027 150.339 447.944C151.064 448.861 151.427 449.981 151.427 451.304C151.427 452.541 151.107 453.608 150.467 454.504C149.827 455.4 148.931 456.093 147.779 456.584C146.648 457.075 145.304 457.32 143.747 457.32C142.211 457.32 140.867 457.075 139.715 456.584C138.563 456.093 137.667 455.4 137.027 454.504C136.387 453.608 136.067 452.541 136.067 451.304C136.067 450.003 136.419 448.893 137.123 447.976C137.827 447.037 138.797 446.344 140.035 445.896V445.864C139.117 445.459 138.381 444.851 137.827 444.04C137.293 443.208 137.027 442.237 137.027 441.128C137.027 439.421 137.635 438.077 138.851 437.096C140.088 436.093 141.72 435.592 143.747 435.592ZM143.747 437.992C142.509 437.992 141.517 438.291 140.771 438.888C140.045 439.485 139.683 440.317 139.683 441.384C139.683 442.429 140.056 443.251 140.803 443.848C141.549 444.445 142.531 444.744 143.747 444.744C144.963 444.744 145.944 444.445 146.691 443.848C147.437 443.251 147.811 442.429 147.811 441.384C147.811 440.317 147.448 439.485 146.723 438.888C145.997 438.291 145.005 437.992 143.747 437.992ZM143.747 454.92C145.304 454.92 146.531 454.579 147.427 453.896C148.323 453.192 148.771 452.243 148.771 451.048C148.771 449.832 148.312 448.883 147.395 448.2C146.477 447.496 145.261 447.144 143.747 447.144C142.253 447.144 141.037 447.496 140.099 448.2C139.181 448.883 138.723 449.832 138.723 451.048C138.723 452.243 139.171 453.192 140.067 453.896C140.984 454.579 142.211 454.92 143.747 454.92Z" fill="black"/>
<rect x="195.5" y="410" width="71.75" height="72" rx="24" fill="white"/>
<path d="M231.129 435.56C232.9 435.56 234.393 436.029 235.609 436.968C236.825 437.885 237.742 439.165 238.361 440.808C238.98 442.429 239.289 444.307 239.289 446.44C239.289 449.981 238.596 452.68 237.209 454.536C235.844 456.392 233.828 457.32 231.161 457.32C229.412 457.32 227.908 456.915 226.649 456.104C225.39 455.293 224.452 454.109 223.833 452.552L226.361 451.208C226.702 452.317 227.257 453.213 228.025 453.896C228.814 454.579 229.892 454.92 231.257 454.92C232.729 454.92 233.881 454.536 234.713 453.768C235.545 453 236.121 451.912 236.441 450.504C236.782 449.096 236.953 447.453 236.953 445.576V445.288H236.825C236.569 446.248 236.121 447.027 235.481 447.624C234.841 448.2 234.116 448.616 233.305 448.872C232.516 449.128 231.726 449.256 230.937 449.256C229.55 449.256 228.324 448.989 227.257 448.456C226.19 447.901 225.358 447.133 224.761 446.152C224.164 445.171 223.865 444.008 223.865 442.664C223.865 440.509 224.505 438.792 225.785 437.512C227.086 436.211 228.868 435.56 231.129 435.56ZM231.161 438.024C229.668 438.024 228.526 438.44 227.737 439.272C226.948 440.083 226.553 441.224 226.553 442.696C226.553 443.955 226.969 444.957 227.801 445.704C228.633 446.429 229.753 446.792 231.161 446.792C232.548 446.792 233.657 446.387 234.489 445.576C235.342 444.765 235.769 443.72 235.769 442.44C235.769 441.117 235.342 440.051 234.489 439.24C233.657 438.429 232.548 438.024 231.161 438.024Z" fill="black"/>
<rect x="283.25" y="410" width="71.75" height="72" rx="24" fill="#4B5EFC"/>
<path d="M324.602 453.896L312.186 441.48L313.882 439.784L326.298 452.2L324.602 453.896ZM313.882 453.896L312.186 452.2L324.602 439.784L326.298 441.48L313.882 453.896Z" fill="white"/>
<rect x="20" y="498" width="71.75" height="72" rx="24" fill="white"/>
<path d="M57.9308 545V539.464H47.6268V537.576L57.2588 523.88H60.4908V537.256H64.2348V539.464H60.4908V545H57.9308ZM50.3468 537.256H57.9308V529.352C57.9308 528.797 57.9414 528.232 57.9628 527.656C58.0054 527.08 58.0374 526.515 58.0588 525.96H57.9948C57.7388 526.493 57.4081 527.091 57.0028 527.752C56.5974 528.413 56.2241 528.989 55.8828 529.48L50.3468 537.256Z" fill="black"/>
<rect x="107.75" y="498" width="71.75" height="72" rx="24" fill="white"/>
<path d="M143.622 545.32C141.744 545.32 140.23 544.893 139.078 544.04C137.947 543.187 137.072 542.003 136.454 540.488L138.95 539.176C139.291 540.285 139.814 541.192 140.518 541.896C141.243 542.579 142.299 542.92 143.686 542.92C145.136 542.92 146.278 542.525 147.11 541.736C147.963 540.925 148.39 539.816 148.39 538.408C148.39 536.915 147.995 535.784 147.206 535.016C146.438 534.248 145.339 533.864 143.91 533.864C142.886 533.864 141.968 534.024 141.158 534.344C140.347 534.664 139.696 535.187 139.206 535.912L136.966 535.496L138.214 523.88H150.086V526.28H140.39L139.558 532.936L139.494 533.224H139.558C140.07 532.691 140.72 532.264 141.51 531.944C142.32 531.624 143.28 531.464 144.39 531.464C145.734 531.464 146.896 531.752 147.878 532.328C148.88 532.883 149.659 533.672 150.214 534.696C150.768 535.72 151.046 536.915 151.046 538.28C151.046 539.731 150.726 540.989 150.086 542.056C149.467 543.101 148.603 543.912 147.494 544.488C146.384 545.043 145.094 545.32 143.622 545.32Z" fill="black"/>
<rect x="195.5" y="498" width="71.75" height="72" rx="24" fill="white"/>
<path d="M232.102 523.56C233.787 523.56 235.163 523.912 236.23 524.616C237.296 525.299 238.16 526.429 238.822 528.008L236.454 529.128C236.134 528.147 235.611 527.379 234.886 526.824C234.182 526.248 233.2 525.96 231.942 525.96C230.726 525.96 229.691 526.365 228.838 527.176C227.984 527.965 227.334 529.032 226.886 530.376C226.459 531.72 226.246 533.235 226.246 534.92V535.496H226.374C226.608 534.579 227.035 533.843 227.654 533.288C228.294 532.712 229.008 532.296 229.798 532.04C230.608 531.763 231.398 531.624 232.166 531.624C233.595 531.624 234.843 531.901 235.91 532.456C236.976 533.011 237.798 533.8 238.374 534.824C238.971 535.848 239.27 537.064 239.27 538.472C239.27 540.563 238.608 542.227 237.286 543.464C235.984 544.701 234.224 545.32 232.006 545.32C230.235 545.32 228.742 544.851 227.526 543.912C226.31 542.973 225.392 541.693 224.774 540.072C224.155 538.429 223.846 536.552 223.846 534.44C223.846 532.072 224.208 530.088 224.934 528.488C225.659 526.867 226.64 525.64 227.878 524.808C229.136 523.976 230.544 523.56 232.102 523.56ZM231.974 534.088C230.608 534.088 229.499 534.493 228.646 535.304C227.792 536.115 227.366 537.16 227.366 538.44C227.366 539.251 227.568 539.997 227.974 540.68C228.379 541.341 228.923 541.875 229.606 542.28C230.31 542.664 231.099 542.856 231.974 542.856C233.424 542.856 234.555 542.472 235.366 541.704C236.176 540.915 236.582 539.827 236.582 538.44C236.582 537.096 236.176 536.04 235.366 535.272C234.555 534.483 233.424 534.088 231.974 534.088Z" fill="black"/>
<rect x="283.25" y="498" width="71.75" height="72" rx="24" fill="#4B5EFC"/>
<path d="M327.249 535.432V537.832H311.249V535.432H327.249Z" fill="white"/>
<rect x="20" y="586" width="71.75" height="72" rx="24" fill="white"/>
<path d="M56.4216 633V617.512C56.4216 617.149 56.4216 616.765 56.4216 616.36C56.443 615.933 56.4643 615.496 56.4856 615.048C55.7603 615.752 54.9176 616.371 53.9576 616.904C52.9976 617.416 52.0163 617.789 51.0136 618.024L50.3416 615.688C50.7256 615.645 51.2056 615.507 51.7816 615.272C52.379 615.016 52.9976 614.707 53.6376 614.344C54.299 613.96 54.907 613.555 55.4616 613.128C56.0163 612.701 56.443 612.285 56.7416 611.88H58.9816V633H56.4216Z" fill="black"/>
<rect x="107.75" y="586" width="71.75" height="72" rx="24" fill="white"/>
<path d="M136.79 633V630.92C138.902 629.363 140.662 627.997 142.07 626.824C143.499 625.651 144.641 624.584 145.494 623.624C146.347 622.664 146.955 621.757 147.318 620.904C147.681 620.029 147.862 619.123 147.862 618.184C147.862 616.925 147.457 615.912 146.646 615.144C145.857 614.355 144.769 613.96 143.382 613.96C141.931 613.96 140.769 614.44 139.894 615.4C139.019 616.339 138.507 617.597 138.358 619.176L136.118 617.832C136.395 615.997 137.153 614.493 138.39 613.32C139.649 612.147 141.345 611.56 143.478 611.56C144.929 611.56 146.177 611.848 147.222 612.424C148.289 612.979 149.11 613.757 149.686 614.76C150.262 615.741 150.55 616.883 150.55 618.184C150.55 619.507 150.23 620.808 149.59 622.088C148.95 623.347 147.894 624.669 146.422 626.056C144.95 627.443 142.955 628.979 140.438 630.664V630.696C140.673 630.675 140.993 630.664 141.398 630.664C141.825 630.643 142.241 630.632 142.646 630.632C143.073 630.611 143.393 630.6 143.606 630.6H150.998V633H136.79Z" fill="black"/>
<rect x="195.5" y="586" width="71.75" height="72" rx="24" fill="white"/>
<path d="M231.452 633.32C229.575 633.32 227.911 632.883 226.46 632.008C225.031 631.112 224.06 629.885 223.548 628.328L226.108 627.016C226.492 628.189 227.1 629.139 227.932 629.864C228.785 630.568 230.044 630.92 231.708 630.92C233.095 630.92 234.161 630.557 234.908 629.832C235.676 629.085 236.06 628.136 236.06 626.984C236.06 625.832 235.729 624.979 235.068 624.424C234.428 623.848 233.351 623.56 231.836 623.56C231.367 623.56 230.823 623.592 230.204 623.656V621.096C230.396 621.117 230.577 621.128 230.748 621.128C230.94 621.128 231.111 621.128 231.26 621.128C232.817 621.128 233.927 620.829 234.588 620.232C235.249 619.613 235.58 618.653 235.58 617.352C235.58 616.243 235.239 615.4 234.556 614.824C233.873 614.248 232.903 613.96 231.644 613.96C230.3 613.96 229.276 614.259 228.572 614.856C227.868 615.432 227.313 616.221 226.908 617.224L224.476 616.072C224.988 614.749 225.873 613.661 227.132 612.808C228.412 611.955 229.937 611.528 231.708 611.528C233.18 611.528 234.396 611.784 235.356 612.296C236.316 612.787 237.031 613.448 237.5 614.28C237.991 615.112 238.236 616.029 238.236 617.032C238.236 618.547 237.841 619.763 237.052 620.68C236.263 621.576 235.335 622.109 234.268 622.28V622.344C235.207 622.365 236.007 622.6 236.668 623.048C237.329 623.475 237.831 624.04 238.172 624.744C238.535 625.427 238.716 626.163 238.716 626.952C238.716 628.189 238.407 629.288 237.788 630.248C237.191 631.208 236.348 631.965 235.26 632.52C234.172 633.053 232.903 633.32 231.452 633.32Z" fill="black"/>
<rect x="283.25" y="586" width="71.75" height="72" rx="24" fill="#4B5EFC"/>
<path d="M320.474 614.952V630.824H318.074V614.952H320.474ZM327.034 621.672V624.072H311.482V621.672H327.034Z" fill="white"/>
<rect x="20" y="674" width="71.75" height="72" rx="24" fill="white"/>
<path d="M56.006 717.16C56.6247 717.16 57.126 717.352 57.51 717.736C57.894 718.12 58.086 718.621 58.086 719.24C58.086 719.859 57.894 720.36 57.51 720.744C57.126 721.128 56.6247 721.32 56.006 721.32C55.3873 721.32 54.886 721.128 54.502 720.744C54.118 720.36 53.926 719.859 53.926 719.24C53.926 718.621 54.118 718.12 54.502 717.736C54.886 717.352 55.3873 717.16 56.006 717.16Z" fill="black"/>
<rect x="107.75" y="674" width="71.75" height="72" rx="24" fill="white"/>
<path d="M143.749 721.32C141.36 721.32 139.45 720.392 138.021 718.536C136.592 716.68 135.877 713.981 135.877 710.44C135.877 706.899 136.592 704.2 138.021 702.344C139.45 700.488 141.36 699.56 143.749 699.56C146.16 699.56 148.069 700.488 149.477 702.344C150.906 704.2 151.621 706.899 151.621 710.44C151.621 713.981 150.906 716.68 149.477 718.536C148.069 720.392 146.16 721.32 143.749 721.32ZM143.749 719.016C145.456 719.016 146.746 718.28 147.621 716.808C148.517 715.336 148.965 713.213 148.965 710.44C148.965 707.645 148.517 705.523 147.621 704.072C146.746 702.6 145.456 701.864 143.749 701.864C142.064 701.864 140.773 702.6 139.877 704.072C138.981 705.523 138.533 707.645 138.533 710.44C138.533 713.213 138.981 715.336 139.877 716.808C140.773 718.28 142.064 719.016 143.749 719.016Z" fill="black"/>
<rect x="195.5" y="674" width="71.75" height="72" rx="24" fill="white"/>
<path fill-rule="evenodd" clip-rule="evenodd" d="M226.086 701H226.5H242.5H243.5V702V718V719H242.5H226.5H226.086L225.793 718.707L217.793 710.707L217.086 710L217.793 709.293L225.793 701.293L226.086 701ZM226.914 703L219.914 710L226.914 717H241.5V703H226.914ZM230.5 705.586L231.207 706.293L233.5 708.586L235.793 706.293L236.5 705.586L237.914 707L237.207 707.707L234.914 710L237.207 712.293L237.914 713L236.5 714.414L235.793 713.707L233.5 711.414L231.207 713.707L230.5 714.414L229.086 713L229.793 712.293L232.086 710L229.793 707.707L229.086 707L230.5 705.586Z" fill="black"/>
<rect x="283.25" y="674" width="71.75" height="72" rx="24" fill="#4B5EFC"/>
<path d="M326.874 706.888V709.288H311.642V706.888H326.874ZM326.874 713.288V715.688H311.642V713.288H326.874Z" fill="white"/>
<g clip-path="url(#clip1_5_23375)">
<rect x="151" y="60" width="72" height="32" rx="16" fill="white"/>
<g opacity="0.7">
<path fill-rule="evenodd" clip-rule="evenodd" d="M172 66V67V69V70H170V69V67V66H172ZM161 75H162H164H165V77H164H162H161V75ZM178 75H177V77H178H180H181V75H180H178ZM172 82V83V85V86H170V85V83V82H172ZM176.657 83.0711L177.364 83.7782L178.778 82.364L178.071 81.6569L176.657 80.2427L175.95 79.5356L174.536 80.9498L175.243 81.6569L176.657 83.0711ZM166.05 72.4645L165.343 71.7574L163.929 70.3432L163.222 69.6361L164.636 68.2219L165.343 68.929L166.757 70.3432L167.464 71.0503L166.05 72.4645ZM178.071 70.3431L178.778 69.636L177.364 68.2218L176.657 68.9289L175.243 70.3431L174.536 71.0502L175.95 72.4644L176.657 71.7573L178.071 70.3431ZM167.464 80.9497L166.757 81.6568L165.343 83.071L164.636 83.7781L163.222 82.3639L163.929 81.6568L165.343 80.2426L166.05 79.5355L167.464 80.9497ZM169 76C169 74.8954 169.895 74 171 74C172.105 74 173 74.8954 173 76C173 77.1046 172.105 78 171 78C169.895 78 169 77.1046 169 76ZM171 72C168.791 72 167 73.7909 167 76C167 78.2091 168.791 80 171 80C173.209 80 175 78.2091 175 76C175 73.7909 173.209 72 171 72Z" fill="#4B5EFC"/>
</g>
<circle cx="207" cy="76" r="12" fill="#D2D3DA"/>
</g>
</g>
<defs>
<clipPath id="clip0_5_23375">
<rect width="375" height="812" fill="white"/>
</clipPath>
<clipPath id="clip1_5_23375">
<rect x="151" y="60" width="72" height="32" rx="16" fill="white"/>
</clipPath>
</defs>
</svg>
