<svg width="20" height="20" viewBox="0 0 20 20" fill="none" xmlns="http://www.w3.org/2000/svg">
<path d="M18.2 1H13.8C13.5878 1 13.3843 1.08429 13.2343 1.23431C13.0843 1.38434 13 1.58783 13 1.8V18.2C13 18.4122 13.0843 18.6157 13.2343 18.7657C13.3843 18.9157 13.5878 19 13.8 19H18.2C18.4122 19 18.6157 18.9157 18.7657 18.7657C18.9157 18.6157 19 18.4122 19 18.2V1.8C19 1.58783 18.9157 1.38434 18.7657 1.23431C18.6157 1.08429 18.4122 1 18.2 1ZM6.2 1H1.8C1.58783 1 1.38434 1.08429 1.23431 1.23431C1.08429 1.38434 1 1.58783 1 1.8V18.2C1 18.4122 1.08429 18.6157 1.23431 18.7657C1.38434 18.9157 1.58783 19 1.8 19H6.2C6.41217 19 6.61566 18.9157 6.76569 18.7657C6.91571 18.6157 7 18.4122 7 18.2V1.8C7 1.58783 6.91571 1.38434 6.76569 1.23431C6.61566 1.08429 6.41217 1 6.2 1Z" fill="black" fill-opacity="0.16"/>
<path d="M18.2 1H13.8C13.5878 1 13.3843 1.08429 13.2343 1.23431C13.0843 1.38434 13 1.58783 13 1.8V18.2C13 18.4122 13.0843 18.6157 13.2343 18.7657C13.3843 18.9157 13.5878 19 13.8 19H18.2C18.4122 19 18.6157 18.9157 18.7657 18.7657C18.9157 18.6157 19 18.4122 19 18.2V1.8C19 1.58783 18.9157 1.38434 18.7657 1.23431C18.6157 1.08429 18.4122 1 18.2 1ZM6.2 1H1.8C1.58783 1 1.38434 1.08429 1.23431 1.23431C1.08429 1.38434 1 1.58783 1 1.8V18.2C1 18.4122 1.08429 18.6157 1.23431 18.7657C1.38434 18.9157 1.58783 19 1.8 19H6.2C6.41217 19 6.61566 18.9157 6.76569 18.7657C6.91571 18.6157 7 18.4122 7 18.2V1.8C7 1.58783 6.91571 1.38434 6.76569 1.23431C6.61566 1.08429 6.41217 1 6.2 1Z" stroke="black" stroke-width="1.5" stroke-miterlimit="10" stroke-linejoin="round"/>
</svg>
