<svg width="290" height="35" viewBox="0 0 290 35" fill="none" xmlns="http://www.w3.org/2000/svg">
<path d="M10.946 17.606H5.942L5.114 20H2.468L6.986 7.418H9.92L14.438 20H11.774L10.946 17.606ZM10.262 15.59L8.444 10.334L6.626 15.59H10.262ZM19.0608 12.098V16.922C19.0608 17.258 19.1388 17.504 19.2948 17.66C19.4628 17.804 19.7388 17.876 20.1228 17.876H21.2928V20H19.7088C17.5848 20 16.5228 18.968 16.5228 16.904V12.098H15.3348V10.028H16.5228V7.562H19.0608V10.028H21.2928V12.098H19.0608ZM26.0393 12.098V16.922C26.0393 17.258 26.1173 17.504 26.2733 17.66C26.4413 17.804 26.7173 17.876 27.1013 17.876H28.2713V20H26.6873C24.5633 20 23.5013 18.968 23.5013 16.904V12.098H22.3133V10.028H23.5013V7.562H26.0393V10.028H28.2713V12.098H26.0393ZM32.6038 11.576C32.9278 11.048 33.3478 10.634 33.8638 10.334C34.3918 10.034 34.9918 9.884 35.6638 9.884V12.53H34.9978C34.2058 12.53 33.6058 12.716 33.1978 13.088C32.8018 13.46 32.6038 14.108 32.6038 15.032V20H30.0838V10.028H32.6038V11.576ZM38.6391 8.84C38.1951 8.84 37.8231 8.702 37.5231 8.426C37.2351 8.138 37.0911 7.784 37.0911 7.364C37.0911 6.944 37.2351 6.596 37.5231 6.32C37.8231 6.032 38.1951 5.888 38.6391 5.888C39.0831 5.888 39.4491 6.032 39.7371 6.32C40.0371 6.596 40.1871 6.944 40.1871 7.364C40.1871 7.784 40.0371 8.138 39.7371 8.426C39.4491 8.702 39.0831 8.84 38.6391 8.84ZM39.8811 10.028V20H37.3611V10.028H39.8811ZM44.8909 11.486C45.2149 11.006 45.6589 10.616 46.2229 10.316C46.7989 10.016 47.4529 9.866 48.1849 9.866C49.0369 9.866 49.8049 10.076 50.4889 10.496C51.1849 10.916 51.7309 11.516 52.1269 12.296C52.5349 13.064 52.7389 13.958 52.7389 14.978C52.7389 15.998 52.5349 16.904 52.1269 17.696C51.7309 18.476 51.1849 19.082 50.4889 19.514C49.8049 19.946 49.0369 20.162 48.1849 20.162C47.4409 20.162 46.7869 20.018 46.2229 19.73C45.6709 19.43 45.2269 19.046 44.8909 18.578V20H42.3709V6.68H44.8909V11.486ZM50.1649 14.978C50.1649 14.378 50.0389 13.862 49.7869 13.43C49.5469 12.986 49.2229 12.65 48.8149 12.422C48.4189 12.194 47.9869 12.08 47.5189 12.08C47.0629 12.08 46.6309 12.2 46.2229 12.44C45.8269 12.668 45.5029 13.004 45.2509 13.448C45.0109 13.892 44.8909 14.414 44.8909 15.014C44.8909 15.614 45.0109 16.136 45.2509 16.58C45.5029 17.024 45.8269 17.366 46.2229 17.606C46.6309 17.834 47.0629 17.948 47.5189 17.948C47.9869 17.948 48.4189 17.828 48.8149 17.588C49.2229 17.348 49.5469 17.006 49.7869 16.562C50.0389 16.118 50.1649 15.59 50.1649 14.978ZM63.9841 10.028V20H61.4461V18.74C61.1221 19.172 60.6961 19.514 60.1681 19.766C59.6521 20.006 59.0881 20.126 58.4761 20.126C57.6961 20.126 57.0061 19.964 56.4061 19.64C55.8061 19.304 55.3321 18.818 54.9841 18.182C54.6481 17.534 54.4801 16.766 54.4801 15.878V10.028H57.0001V15.518C57.0001 16.31 57.1981 16.922 57.5941 17.354C57.9901 17.774 58.5301 17.984 59.2141 17.984C59.9101 17.984 60.4561 17.774 60.8521 17.354C61.2481 16.922 61.4461 16.31 61.4461 15.518V10.028H63.9841ZM69.4045 12.098V16.922C69.4045 17.258 69.4825 17.504 69.6385 17.66C69.8065 17.804 70.0825 17.876 70.4665 17.876H71.6365V20H70.0525C67.9285 20 66.8665 18.968 66.8665 16.904V12.098H65.6785V10.028H66.8665V7.562H69.4045V10.028H71.6365V12.098H69.4045ZM82.719 14.798C82.719 15.158 82.695 15.482 82.647 15.77H75.357C75.417 16.49 75.669 17.054 76.113 17.462C76.557 17.87 77.103 18.074 77.751 18.074C78.687 18.074 79.353 17.672 79.749 16.868H82.467C82.179 17.828 81.627 18.62 80.811 19.244C79.995 19.856 78.993 20.162 77.805 20.162C76.845 20.162 75.981 19.952 75.213 19.532C74.457 19.1 73.863 18.494 73.431 17.714C73.011 16.934 72.801 16.034 72.801 15.014C72.801 13.982 73.011 13.076 73.431 12.296C73.851 11.516 74.439 10.916 75.195 10.496C75.951 10.076 76.821 9.866 77.805 9.866C78.753 9.866 79.599 10.07 80.343 10.478C81.099 10.886 81.681 11.468 82.089 12.224C82.509 12.968 82.719 13.826 82.719 14.798ZM80.109 14.078C80.097 13.43 79.863 12.914 79.407 12.53C78.951 12.134 78.393 11.936 77.733 11.936C77.109 11.936 76.581 12.128 76.149 12.512C75.729 12.884 75.471 13.406 75.375 14.078H80.109ZM88.3744 20.162C87.5584 20.162 86.8264 20.018 86.1784 19.73C85.5304 19.43 85.0144 19.028 84.6304 18.524C84.2584 18.02 84.0544 17.462 84.0184 16.85H86.5564C86.6044 17.234 86.7904 17.552 87.1144 17.804C87.4504 18.056 87.8644 18.182 88.3564 18.182C88.8364 18.182 89.2084 18.086 89.4724 17.894C89.7484 17.702 89.8864 17.456 89.8864 17.156C89.8864 16.832 89.7184 16.592 89.3824 16.436C89.0584 16.268 88.5364 16.088 87.8164 15.896C87.0724 15.716 86.4604 15.53 85.9804 15.338C85.5124 15.146 85.1044 14.852 84.7564 14.456C84.4204 14.06 84.2524 13.526 84.2524 12.854C84.2524 12.302 84.4084 11.798 84.7204 11.342C85.0444 10.886 85.5004 10.526 86.0884 10.262C86.6884 9.998 87.3904 9.866 88.1944 9.866C89.3824 9.866 90.3304 10.166 91.0384 10.766C91.7464 11.354 92.1364 12.152 92.2084 13.16H89.7964C89.7604 12.764 89.5924 12.452 89.2924 12.224C89.0044 11.984 88.6144 11.864 88.1224 11.864C87.6664 11.864 87.3124 11.948 87.0604 12.116C86.8204 12.284 86.7004 12.518 86.7004 12.818C86.7004 13.154 86.8684 13.412 87.2044 13.592C87.5404 13.76 88.0624 13.934 88.7704 14.114C89.4904 14.294 90.0844 14.48 90.5524 14.672C91.0204 14.864 91.4224 15.164 91.7584 15.572C92.1064 15.968 92.2864 16.496 92.2984 17.156C92.2984 17.732 92.1364 18.248 91.8124 18.704C91.5004 19.16 91.0444 19.52 90.4444 19.784C89.8564 20.036 89.1664 20.162 88.3744 20.162ZM95.483 20.126C95.027 20.126 94.649 19.988 94.349 19.712C94.061 19.424 93.917 19.07 93.917 18.65C93.917 18.23 94.061 17.882 94.349 17.606C94.649 17.318 95.027 17.174 95.483 17.174C95.927 17.174 96.293 17.318 96.581 17.606C96.869 17.882 97.013 18.23 97.013 18.65C97.013 19.07 96.869 19.424 96.581 19.712C96.293 19.988 95.927 20.126 95.483 20.126Z" fill="white"/>
<line x1="-0.000854492" y1="26.5" x2="290.001" y2="26.5" stroke="white" stroke-width="2" stroke-dasharray="2 2"/>
</svg>
