<svg width="41" height="41" viewBox="0 0 41 41" fill="none" xmlns="http://www.w3.org/2000/svg">
<circle cx="20.5" cy="20.5" r="20.5" fill="#FAAD64"/>
<path d="M21.5938 34.2501C17.9885 34.2501 14.5308 32.8179 11.9815 30.2686C9.43219 27.7193 8 24.2617 8 20.6564C8 15.1486 11.1641 10.2103 16.0631 8.07808C16.2357 8.00283 16.4271 7.98133 16.6121 8.01638C16.7972 8.05143 16.9674 8.14141 17.1006 8.27459C17.2337 8.40777 17.3237 8.57797 17.3588 8.76303C17.3938 8.94808 17.3723 9.1394 17.2971 9.31206C16.7346 10.6035 16.4375 12.2576 16.4375 14.0939C16.4375 20.5556 21.6945 25.8126 28.1562 25.8126C29.9926 25.8126 31.6467 25.5156 32.9381 24.9531C33.1107 24.8778 33.3021 24.8563 33.4871 24.8914C33.6722 24.9264 33.8424 25.0164 33.9756 25.1496C34.1087 25.2828 34.1987 25.453 34.2338 25.638C34.2688 25.8231 34.2473 26.0144 34.1721 26.1871C32.0398 31.0861 27.1016 34.2501 21.5938 34.2501Z" fill="black"/>
</svg>
