<svg width="261" height="41" viewBox="0 0 261 41" fill="none" xmlns="http://www.w3.org/2000/svg">
<rect width="261" height="41" rx="20" fill="#66C0D8"/>
<path d="M122.983 27.162C122.023 27.162 121.159 26.952 120.391 26.532C119.623 26.1 119.017 25.494 118.573 24.714C118.141 23.934 117.925 23.034 117.925 22.014C117.925 20.994 118.147 20.094 118.591 19.314C119.047 18.534 119.665 17.934 120.445 17.514C121.225 17.082 122.095 16.866 123.055 16.866C124.015 16.866 124.885 17.082 125.665 17.514C126.445 17.934 127.057 18.534 127.501 19.314C127.957 20.094 128.185 20.994 128.185 22.014C128.185 23.034 127.951 23.934 127.482 24.714C127.027 25.494 126.403 26.1 125.611 26.532C124.831 26.952 123.955 27.162 122.983 27.162ZM122.983 24.966C123.439 24.966 123.865 24.858 124.261 24.642C124.669 24.414 124.993 24.078 125.233 23.634C125.473 23.19 125.593 22.65 125.593 22.014C125.593 21.066 125.341 20.34 124.837 19.836C124.345 19.32 123.739 19.062 123.019 19.062C122.299 19.062 121.693 19.32 121.201 19.836C120.721 20.34 120.481 21.066 120.481 22.014C120.481 22.962 120.715 23.694 121.183 24.21C121.663 24.714 122.263 24.966 122.983 24.966ZM132.553 18.486C132.877 18.006 133.321 17.616 133.885 17.316C134.461 17.016 135.115 16.866 135.847 16.866C136.699 16.866 137.467 17.076 138.151 17.496C138.847 17.916 139.393 18.516 139.789 19.296C140.197 20.064 140.401 20.958 140.401 21.978C140.401 22.998 140.197 23.904 139.789 24.696C139.393 25.476 138.847 26.082 138.151 26.514C137.467 26.946 136.699 27.162 135.847 27.162C135.103 27.162 134.449 27.018 133.885 26.73C133.333 26.43 132.889 26.046 132.553 25.578V27H130.033V13.68H132.553V18.486ZM137.827 21.978C137.827 21.378 137.701 20.862 137.449 20.43C137.209 19.986 136.885 19.65 136.477 19.422C136.081 19.194 135.649 19.08 135.181 19.08C134.725 19.08 134.293 19.2 133.885 19.44C133.489 19.668 133.165 20.004 132.913 20.448C132.673 20.892 132.553 21.414 132.553 22.014C132.553 22.614 132.673 23.136 132.913 23.58C133.165 24.024 133.489 24.366 133.885 24.606C134.293 24.834 134.725 24.948 135.181 24.948C135.649 24.948 136.081 24.828 136.477 24.588C136.885 24.348 137.209 24.006 137.449 23.562C137.701 23.118 137.827 22.59 137.827 21.978ZM143.51 15.84C143.054 15.84 142.676 15.702 142.376 15.426C142.088 15.138 141.944 14.784 141.944 14.364C141.944 13.944 142.088 13.596 142.376 13.32C142.676 13.032 143.054 12.888 143.51 12.888C143.954 12.888 144.32 13.032 144.608 13.32C144.896 13.596 145.04 13.944 145.04 14.364C145.04 14.784 144.896 15.138 144.608 15.426C144.32 15.702 143.954 15.84 143.51 15.84ZM144.752 28.638C144.752 29.742 144.476 30.534 143.924 31.014C143.384 31.506 142.604 31.752 141.584 31.752H140.468V29.61H141.188C141.572 29.61 141.842 29.532 141.998 29.376C142.154 29.232 142.232 28.992 142.232 28.656V17.028H144.752V28.638ZM156.512 21.798C156.512 22.158 156.488 22.482 156.44 22.77H149.15C149.21 23.49 149.462 24.054 149.906 24.462C150.35 24.87 150.896 25.074 151.544 25.074C152.48 25.074 153.146 24.672 153.542 23.868H156.26C155.972 24.828 155.42 25.62 154.604 26.244C153.788 26.856 152.786 27.162 151.598 27.162C150.638 27.162 149.774 26.952 149.006 26.532C148.25 26.1 147.656 25.494 147.224 24.714C146.804 23.934 146.594 23.034 146.594 22.014C146.594 20.982 146.804 20.076 147.224 19.296C147.644 18.516 148.232 17.916 148.988 17.496C149.744 17.076 150.614 16.866 151.598 16.866C152.546 16.866 153.392 17.07 154.136 17.478C154.892 17.886 155.474 18.468 155.882 19.224C156.302 19.968 156.512 20.826 156.512 21.798ZM153.902 21.078C153.89 20.43 153.656 19.914 153.2 19.53C152.744 19.134 152.186 18.936 151.526 18.936C150.902 18.936 150.374 19.128 149.942 19.512C149.522 19.884 149.264 20.406 149.168 21.078H153.902ZM157.703 22.014C157.703 20.982 157.913 20.082 158.333 19.314C158.753 18.534 159.335 17.934 160.079 17.514C160.823 17.082 161.675 16.866 162.635 16.866C163.871 16.866 164.891 17.178 165.695 17.802C166.511 18.414 167.057 19.278 167.333 20.394H164.615C164.471 19.962 164.225 19.626 163.877 19.386C163.541 19.134 163.121 19.008 162.617 19.008C161.897 19.008 161.327 19.272 160.907 19.8C160.487 20.316 160.277 21.054 160.277 22.014C160.277 22.962 160.487 23.7 160.907 24.228C161.327 24.744 161.897 25.002 162.617 25.002C163.637 25.002 164.303 24.546 164.615 23.634H167.333C167.057 24.714 166.511 25.572 165.695 26.208C164.879 26.844 163.859 27.162 162.635 27.162C161.675 27.162 160.823 26.952 160.079 26.532C159.335 26.1 158.753 25.5 158.333 24.732C157.913 23.952 157.703 23.046 157.703 22.014ZM172.114 19.098V23.922C172.114 24.258 172.192 24.504 172.348 24.66C172.516 24.804 172.792 24.876 173.176 24.876H174.346V27H172.762C170.638 27 169.576 25.968 169.576 23.904V19.098H168.388V17.028H169.576V14.562H172.114V17.028H174.346V19.098H172.114ZM191.733 14.436L187.125 27H184.065L179.457 14.436H182.157L185.613 24.426L189.051 14.436H191.733ZM195.764 16.47V19.62H199.994V21.618H195.764V24.948H200.534V27H193.244V14.418H200.534V16.47H195.764ZM213.246 14.436V27H210.726V21.654H205.344V27H202.824V14.436H205.344V19.602H210.726V14.436H213.246ZM218.246 14.436V27H215.726V14.436H218.246ZM220.124 20.7C220.124 19.464 220.4 18.36 220.952 17.388C221.516 16.404 222.278 15.642 223.238 15.102C224.21 14.55 225.296 14.274 226.496 14.274C227.9 14.274 229.13 14.634 230.186 15.354C231.242 16.074 231.98 17.07 232.4 18.342H229.502C229.214 17.742 228.806 17.292 228.278 16.992C227.762 16.692 227.162 16.542 226.478 16.542C225.746 16.542 225.092 16.716 224.516 17.064C223.952 17.4 223.508 17.88 223.184 18.504C222.872 19.128 222.716 19.86 222.716 20.7C222.716 21.528 222.872 22.26 223.184 22.896C223.508 23.52 223.952 24.006 224.516 24.354C225.092 24.69 225.746 24.858 226.478 24.858C227.162 24.858 227.762 24.708 228.278 24.408C228.806 24.096 229.214 23.64 229.502 23.04H232.4C231.98 24.324 231.242 25.326 230.186 26.046C229.142 26.754 227.912 27.108 226.496 27.108C225.296 27.108 224.21 26.838 223.238 26.298C222.278 25.746 221.516 24.984 220.952 24.012C220.4 23.04 220.124 21.936 220.124 20.7ZM237.073 25.002H241.213V27H234.553V14.436H237.073V25.002ZM245.334 16.47V19.62H249.564V21.618H245.334V24.948H250.104V27H242.814V14.418H250.104V16.47H245.334Z" fill="#535459"/>
</svg>
