<svg width="41" height="41" viewBox="0 0 41 41" fill="none" xmlns="http://www.w3.org/2000/svg">
<circle cx="20.5" cy="20.5" r="20.5" fill="#9486A7"/>
<path d="M20.4766 12.3906C20.1347 12.3906 19.8068 12.2548 19.5651 12.0131C19.3233 11.7713 19.1875 11.4434 19.1875 11.1016V8.28906C19.1875 7.94718 19.3233 7.6193 19.5651 7.37756C19.8068 7.13581 20.1347 7 20.4766 7C20.8184 7 21.1463 7.13581 21.3881 7.37756C21.6298 7.6193 21.7656 7.94718 21.7656 8.28906V11.1016C21.7656 11.4434 21.6298 11.7713 21.3881 12.0131C21.1463 12.2548 20.8184 12.3906 20.4766 12.3906ZM20.4766 33.9531C20.1347 33.9531 19.8068 33.8173 19.5651 33.5756C19.3233 33.3338 19.1875 33.0059 19.1875 32.6641V29.8516C19.1875 29.5097 19.3233 29.1818 19.5651 28.9401C19.8068 28.6983 20.1347 28.5625 20.4766 28.5625C20.8184 28.5625 21.1463 28.6983 21.3881 28.9401C21.6298 29.1818 21.7656 29.5097 21.7656 29.8516V32.6641C21.7656 33.0059 21.6298 33.3338 21.3881 33.5756C21.1463 33.8173 20.8184 33.9531 20.4766 33.9531ZM27.1059 15.1363C26.851 15.1363 26.6018 15.0607 26.3899 14.9191C26.1779 14.7775 26.0127 14.5762 25.9151 14.3407C25.8176 14.1053 25.792 13.8461 25.8417 13.5961C25.8913 13.3461 26.014 13.1164 26.1941 12.9361L28.1828 10.9475C28.4256 10.711 28.7518 10.5796 29.0907 10.5819C29.4297 10.5841 29.7541 10.7197 29.9937 10.9594C30.2334 11.1991 30.369 11.5235 30.3713 11.8624C30.3735 12.2013 30.2422 12.5275 30.0057 12.7703L28.017 14.759C27.8975 14.8788 27.7554 14.9738 27.5991 15.0385C27.4427 15.1033 27.2751 15.1365 27.1059 15.1363ZM11.8586 30.3836C11.6036 30.3836 11.3544 30.3079 11.1424 30.1662C10.9305 30.0246 10.7653 29.8232 10.6677 29.5876C10.5702 29.352 10.5447 29.0928 10.5945 28.8428C10.6443 28.5927 10.7671 28.3631 10.9475 28.1828L12.9361 26.1941C13.0552 26.0718 13.1975 25.9744 13.3545 25.9076C13.5116 25.8407 13.6804 25.8057 13.8511 25.8045C14.0218 25.8034 14.191 25.8362 14.3489 25.901C14.5069 25.9658 14.6504 26.0613 14.7711 26.1821C14.8918 26.3028 14.9873 26.4463 15.0521 26.6042C15.1169 26.7621 15.1497 26.9313 15.1486 27.102C15.1475 27.2728 15.1125 27.4415 15.0456 27.5986C14.9787 27.7557 14.8813 27.8979 14.759 28.017L12.7703 30.0057C12.6507 30.1256 12.5086 30.2208 12.3522 30.2856C12.1957 30.3505 12.028 30.3838 11.8586 30.3836ZM32.6641 21.7656H29.8516C29.5097 21.7656 29.1818 21.6298 28.9401 21.3881C28.6983 21.1463 28.5625 20.8184 28.5625 20.4766C28.5625 20.1347 28.6983 19.8068 28.9401 19.5651C29.1818 19.3233 29.5097 19.1875 29.8516 19.1875H32.6641C33.0059 19.1875 33.3338 19.3233 33.5756 19.5651C33.8173 19.8068 33.9531 20.1347 33.9531 20.4766C33.9531 20.8184 33.8173 21.1463 33.5756 21.3881C33.3338 21.6298 33.0059 21.7656 32.6641 21.7656ZM11.1016 21.7656H8.28906C7.94718 21.7656 7.6193 21.6298 7.37756 21.3881C7.13581 21.1463 7 20.8184 7 20.4766C7 20.1347 7.13581 19.8068 7.37756 19.5651C7.6193 19.3233 7.94718 19.1875 8.28906 19.1875H11.1016C11.4434 19.1875 11.7713 19.3233 12.0131 19.5651C12.2548 19.8068 12.3906 20.1347 12.3906 20.4766C12.3906 20.8184 12.2548 21.1463 12.0131 21.3881C11.7713 21.6298 11.4434 21.7656 11.1016 21.7656ZM29.0945 30.3836C28.9252 30.3838 28.7574 30.3505 28.601 30.2856C28.4445 30.2208 28.3024 30.1256 28.1828 30.0057L26.1941 28.017C25.9576 27.7742 25.8263 27.448 25.8285 27.1091C25.8308 26.7702 25.9664 26.4457 26.2061 26.2061C26.4457 25.9664 26.7702 25.8308 27.1091 25.8285C27.448 25.8263 27.7742 25.9576 28.017 26.1941L30.0057 28.1828C30.186 28.3631 30.3088 28.5927 30.3586 28.8428C30.4084 29.0928 30.3829 29.352 30.2854 29.5876C30.1879 29.8232 30.0227 30.0246 29.8107 30.1662C29.5987 30.3079 29.3495 30.3836 29.0945 30.3836ZM13.8473 15.1363C13.678 15.1366 13.5104 15.1034 13.354 15.0387C13.1976 14.9739 13.0556 14.8789 12.9361 14.759L10.9475 12.7703C10.711 12.5275 10.5796 12.2013 10.5819 11.8624C10.5841 11.5235 10.7197 11.1991 10.9594 10.9594C11.1991 10.7197 11.5235 10.5841 11.8624 10.5819C12.2013 10.5796 12.5275 10.711 12.7703 10.9475L14.759 12.9361C14.9391 13.1164 15.0618 13.3461 15.1115 13.5961C15.1611 13.8461 15.1356 14.1053 15.038 14.3407C14.9404 14.5762 14.7752 14.7775 14.5633 14.9191C14.3513 15.0607 14.1022 15.1363 13.8473 15.1363ZM20.4766 26.4531C19.2945 26.4531 18.139 26.1026 17.1562 25.4459C16.1733 24.7892 15.4073 23.8558 14.9549 22.7637C14.5026 21.6716 14.3842 20.4699 14.6148 19.3106C14.8454 18.1513 15.4147 17.0863 16.2505 16.2505C17.0863 15.4147 18.1513 14.8454 19.3106 14.6148C20.4699 14.3842 21.6716 14.5026 22.7637 14.9549C23.8558 15.4073 24.7892 16.1733 25.4459 17.1562C26.1026 18.139 26.4531 19.2945 26.4531 20.4766C26.4513 22.0611 25.821 23.5802 24.7006 24.7006C23.5802 25.821 22.0611 26.4513 20.4766 26.4531Z" fill="black"/>
</svg>
