<svg width="1068" height="1626" viewBox="0 0 1068 1626" fill="none" xmlns="http://www.w3.org/2000/svg">
<rect x="3" y="3" width="118" height="54" fill="#DB3C3C"/>
<rect x="3" y="3" width="118" height="54" stroke="black" stroke-width="5"/>
<rect x="829" y="3" width="118" height="54" fill="#DB3C3C"/>
<rect x="829" y="3" width="118" height="54" stroke="black" stroke-width="5"/>
<rect x="947" y="3" width="118" height="54" fill="#DB3C3C"/>
<rect x="947" y="3" width="118" height="54" stroke="black" stroke-width="5"/>
<rect x="711" y="3" width="118" height="54" fill="#DB3C3C"/>
<rect x="711" y="3" width="118" height="54" stroke="black" stroke-width="5"/>
<rect x="593" y="3" width="118" height="54" fill="#DB3C3C"/>
<rect x="593" y="3" width="118" height="54" stroke="black" stroke-width="5"/>
<rect x="475" y="3" width="118" height="54" fill="#DB3C3C"/>
<rect x="475" y="3" width="118" height="54" stroke="black" stroke-width="5"/>
<rect x="357" y="3" width="118" height="54" fill="#DB3C3C"/>
<rect x="357" y="3" width="118" height="54" stroke="black" stroke-width="5"/>
<rect x="239" y="3" width="118" height="54" fill="#DB3C3C"/>
<rect x="239" y="3" width="118" height="54" stroke="black" stroke-width="5"/>
<rect x="121" y="3" width="118" height="54" fill="#DB3C3C"/>
<rect x="121" y="3" width="118" height="54" stroke="black" stroke-width="5"/>
<rect x="62" y="57" width="118" height="54" fill="#DB3C3C"/>
<rect x="62" y="57" width="118" height="54" stroke="black" stroke-width="5"/>
<rect x="1006" y="57" width="59" height="54" fill="#DB3C3C"/>
<rect x="1006" y="57" width="59" height="54" stroke="black" stroke-width="5"/>
<rect x="3" y="57" width="59" height="54" fill="#DB3C3C"/>
<rect x="3" y="57" width="59" height="54" stroke="black" stroke-width="5"/>
<rect x="888" y="57" width="118" height="54" fill="#DB3C3C"/>
<rect x="888" y="57" width="118" height="54" stroke="black" stroke-width="5"/>
<rect x="770" y="57" width="118" height="54" fill="#DB3C3C"/>
<rect x="770" y="57" width="118" height="54" stroke="black" stroke-width="5"/>
<rect x="652" y="57" width="118" height="54" fill="#DB3C3C"/>
<rect x="652" y="57" width="118" height="54" stroke="black" stroke-width="5"/>
<rect x="534" y="57" width="118" height="54" fill="#DB3C3C"/>
<rect x="534" y="57" width="118" height="54" stroke="black" stroke-width="5"/>
<rect x="416" y="57" width="118" height="54" fill="#DB3C3C"/>
<rect x="416" y="57" width="118" height="54" stroke="black" stroke-width="5"/>
<rect x="298" y="57" width="118" height="54" fill="#DB3C3C"/>
<rect x="298" y="57" width="118" height="54" stroke="black" stroke-width="5"/>
<rect x="180" y="57" width="118" height="54" fill="#DB3C3C"/>
<rect x="180" y="57" width="118" height="54" stroke="black" stroke-width="5"/>
<rect x="3" y="111" width="118" height="54" fill="#DB3C3C"/>
<rect x="3" y="111" width="118" height="54" stroke="black" stroke-width="5"/>
<rect x="829" y="111" width="118" height="54" fill="#DB3C3C"/>
<rect x="829" y="111" width="118" height="54" stroke="black" stroke-width="5"/>
<rect x="947" y="111" width="118" height="54" fill="#DB3C3C"/>
<rect x="947" y="111" width="118" height="54" stroke="black" stroke-width="5"/>
<rect x="711" y="111" width="118" height="54" fill="#DB3C3C"/>
<rect x="711" y="111" width="118" height="54" stroke="black" stroke-width="5"/>
<rect x="593" y="111" width="118" height="54" fill="#DB3C3C"/>
<rect x="593" y="111" width="118" height="54" stroke="black" stroke-width="5"/>
<rect x="475" y="111" width="118" height="54" fill="#DB3C3C"/>
<rect x="475" y="111" width="118" height="54" stroke="black" stroke-width="5"/>
<rect x="357" y="111" width="118" height="54" fill="#DB3C3C"/>
<rect x="357" y="111" width="118" height="54" stroke="black" stroke-width="5"/>
<rect x="239" y="111" width="118" height="54" fill="#DB3C3C"/>
<rect x="239" y="111" width="118" height="54" stroke="black" stroke-width="5"/>
<rect x="121" y="111" width="118" height="54" fill="#DB3C3C"/>
<rect x="121" y="111" width="118" height="54" stroke="black" stroke-width="5"/>
<rect x="62" y="165" width="118" height="54" fill="#DB3C3C"/>
<rect x="62" y="165" width="118" height="54" stroke="black" stroke-width="5"/>
<rect x="1006" y="165" width="59" height="54" fill="#DB3C3C"/>
<rect x="1006" y="165" width="59" height="54" stroke="black" stroke-width="5"/>
<rect x="3" y="165" width="59" height="54" fill="#DB3C3C"/>
<rect x="3" y="165" width="59" height="54" stroke="black" stroke-width="5"/>
<rect x="3" y="219" width="118" height="54" fill="#DB3C3C"/>
<rect x="3" y="219" width="118" height="54" stroke="black" stroke-width="5"/>
<rect x="829" y="219" width="118" height="54" fill="#DB3C3C"/>
<rect x="829" y="219" width="118" height="54" stroke="black" stroke-width="5"/>
<rect x="947" y="219" width="118" height="54" fill="#DB3C3C"/>
<rect x="947" y="219" width="118" height="54" stroke="black" stroke-width="5"/>
<rect x="711" y="219" width="118" height="54" fill="#DB3C3C"/>
<rect x="711" y="219" width="118" height="54" stroke="black" stroke-width="5"/>
<rect x="593" y="219" width="118" height="54" fill="#DB3C3C"/>
<rect x="593" y="219" width="118" height="54" stroke="black" stroke-width="5"/>
<rect x="475" y="219" width="118" height="54" fill="#DB3C3C"/>
<rect x="475" y="219" width="118" height="54" stroke="black" stroke-width="5"/>
<rect x="357" y="219" width="118" height="54" fill="#DB3C3C"/>
<rect x="357" y="219" width="118" height="54" stroke="black" stroke-width="5"/>
<rect x="239" y="219" width="118" height="54" fill="#DB3C3C"/>
<rect x="239" y="219" width="118" height="54" stroke="black" stroke-width="5"/>
<rect x="121" y="219" width="118" height="54" fill="#DB3C3C"/>
<rect x="121" y="219" width="118" height="54" stroke="black" stroke-width="5"/>
<rect x="62" y="273" width="118" height="54" fill="#DB3C3C"/>
<rect x="62" y="273" width="118" height="54" stroke="black" stroke-width="5"/>
<rect x="1006" y="273" width="59" height="54" fill="#DB3C3C"/>
<rect x="1006" y="273" width="59" height="54" stroke="black" stroke-width="5"/>
<rect x="3" y="273" width="59" height="54" fill="#DB3C3C"/>
<rect x="3" y="273" width="59" height="54" stroke="black" stroke-width="5"/>
<rect x="888" y="273" width="118" height="54" fill="#DB3C3C"/>
<rect x="888" y="273" width="118" height="54" stroke="black" stroke-width="5"/>
<rect x="770" y="273" width="118" height="54" fill="#DB3C3C"/>
<rect x="770" y="273" width="118" height="54" stroke="black" stroke-width="5"/>
<rect x="652" y="273" width="118" height="54" fill="#DB3C3C"/>
<rect x="652" y="273" width="118" height="54" stroke="black" stroke-width="5"/>
<rect x="534" y="273" width="118" height="54" fill="#DB3C3C"/>
<rect x="534" y="273" width="118" height="54" stroke="black" stroke-width="5"/>
<rect x="416" y="273" width="118" height="54" fill="#DB3C3C"/>
<rect x="416" y="273" width="118" height="54" stroke="black" stroke-width="5"/>
<rect x="298" y="273" width="118" height="54" fill="#DB3C3C"/>
<rect x="298" y="273" width="118" height="54" stroke="black" stroke-width="5"/>
<rect x="180" y="273" width="118" height="54" fill="#DB3C3C"/>
<rect x="180" y="273" width="118" height="54" stroke="black" stroke-width="5"/>
<rect x="888" y="165" width="118" height="54" fill="#DB3C3C"/>
<rect x="888" y="165" width="118" height="54" stroke="black" stroke-width="5"/>
<rect x="770" y="165" width="118" height="54" fill="#DB3C3C"/>
<rect x="770" y="165" width="118" height="54" stroke="black" stroke-width="5"/>
<rect x="652" y="165" width="118" height="54" fill="#DB3C3C"/>
<rect x="652" y="165" width="118" height="54" stroke="black" stroke-width="5"/>
<rect x="534" y="165" width="118" height="54" fill="#DB3C3C"/>
<rect x="534" y="165" width="118" height="54" stroke="black" stroke-width="5"/>
<rect x="416" y="165" width="118" height="54" fill="#DB3C3C"/>
<rect x="416" y="165" width="118" height="54" stroke="black" stroke-width="5"/>
<rect x="298" y="165" width="118" height="54" fill="#DB3C3C"/>
<rect x="298" y="165" width="118" height="54" stroke="black" stroke-width="5"/>
<rect x="180" y="165" width="118" height="54" fill="#DB3C3C"/>
<rect x="180" y="165" width="118" height="54" stroke="black" stroke-width="5"/>
<rect x="3" y="327" width="118" height="54" fill="#DB3C3C"/>
<rect x="3" y="327" width="118" height="54" stroke="black" stroke-width="5"/>
<rect x="829" y="327" width="118" height="54" fill="#DB3C3C"/>
<rect x="829" y="327" width="118" height="54" stroke="black" stroke-width="5"/>
<rect x="947" y="327" width="118" height="54" fill="#DB3C3C"/>
<rect x="947" y="327" width="118" height="54" stroke="black" stroke-width="5"/>
<rect x="711" y="327" width="118" height="54" fill="#DB3C3C"/>
<rect x="711" y="327" width="118" height="54" stroke="black" stroke-width="5"/>
<rect x="593" y="327" width="118" height="54" fill="#DB3C3C"/>
<rect x="593" y="327" width="118" height="54" stroke="black" stroke-width="5"/>
<rect x="475" y="327" width="118" height="54" fill="#DB3C3C"/>
<rect x="475" y="327" width="118" height="54" stroke="black" stroke-width="5"/>
<rect x="357" y="327" width="118" height="54" fill="#DB3C3C"/>
<rect x="357" y="327" width="118" height="54" stroke="black" stroke-width="5"/>
<rect x="239" y="327" width="118" height="54" fill="#DB3C3C"/>
<rect x="239" y="327" width="118" height="54" stroke="black" stroke-width="5"/>
<rect x="121" y="327" width="118" height="54" fill="#DB3C3C"/>
<rect x="121" y="327" width="118" height="54" stroke="black" stroke-width="5"/>
<rect x="62" y="381" width="118" height="54" fill="#DB3C3C"/>
<rect x="62" y="381" width="118" height="54" stroke="black" stroke-width="5"/>
<rect x="1006" y="381" width="59" height="54" fill="#DB3C3C"/>
<rect x="1006" y="381" width="59" height="54" stroke="black" stroke-width="5"/>
<rect x="3" y="381" width="59" height="54" fill="#DB3C3C"/>
<rect x="3" y="381" width="59" height="54" stroke="black" stroke-width="5"/>
<rect x="888" y="381" width="118" height="54" fill="#DB3C3C"/>
<rect x="888" y="381" width="118" height="54" stroke="black" stroke-width="5"/>
<rect x="770" y="381" width="118" height="54" fill="#DB3C3C"/>
<rect x="770" y="381" width="118" height="54" stroke="black" stroke-width="5"/>
<rect x="652" y="381" width="118" height="54" fill="#DB3C3C"/>
<rect x="652" y="381" width="118" height="54" stroke="black" stroke-width="5"/>
<rect x="534" y="381" width="118" height="54" fill="#DB3C3C"/>
<rect x="534" y="381" width="118" height="54" stroke="black" stroke-width="5"/>
<rect x="416" y="381" width="118" height="54" fill="#DB3C3C"/>
<rect x="416" y="381" width="118" height="54" stroke="black" stroke-width="5"/>
<rect x="298" y="381" width="118" height="54" fill="#DB3C3C"/>
<rect x="298" y="381" width="118" height="54" stroke="black" stroke-width="5"/>
<rect x="180" y="381" width="118" height="54" fill="#DB3C3C"/>
<rect x="180" y="381" width="118" height="54" stroke="black" stroke-width="5"/>
<rect x="3" y="435" width="118" height="54" fill="#DB3C3C"/>
<rect x="3" y="435" width="118" height="54" stroke="black" stroke-width="5"/>
<rect x="829" y="435" width="118" height="54" fill="#DB3C3C"/>
<rect x="829" y="435" width="118" height="54" stroke="black" stroke-width="5"/>
<rect x="947" y="435" width="118" height="54" fill="#DB3C3C"/>
<rect x="947" y="435" width="118" height="54" stroke="black" stroke-width="5"/>
<rect x="711" y="435" width="118" height="54" fill="#DB3C3C"/>
<rect x="711" y="435" width="118" height="54" stroke="black" stroke-width="5"/>
<rect x="593" y="435" width="118" height="54" fill="#DB3C3C"/>
<rect x="593" y="435" width="118" height="54" stroke="black" stroke-width="5"/>
<rect x="475" y="435" width="118" height="54" fill="#DB3C3C"/>
<rect x="475" y="435" width="118" height="54" stroke="black" stroke-width="5"/>
<rect x="357" y="435" width="118" height="54" fill="#DB3C3C"/>
<rect x="357" y="435" width="118" height="54" stroke="black" stroke-width="5"/>
<rect x="239" y="435" width="118" height="54" fill="#DB3C3C"/>
<rect x="239" y="435" width="118" height="54" stroke="black" stroke-width="5"/>
<rect x="121" y="435" width="118" height="54" fill="#DB3C3C"/>
<rect x="121" y="435" width="118" height="54" stroke="black" stroke-width="5"/>
<rect x="62" y="489" width="118" height="54" fill="#DB3C3C"/>
<rect x="62" y="489" width="118" height="54" stroke="black" stroke-width="5"/>
<rect x="1006" y="489" width="59" height="54" fill="#DB3C3C"/>
<rect x="1006" y="489" width="59" height="54" stroke="black" stroke-width="5"/>
<rect x="3" y="489" width="59" height="54" fill="#DB3C3C"/>
<rect x="3" y="489" width="59" height="54" stroke="black" stroke-width="5"/>
<rect x="3" y="543" width="118" height="54" fill="#DB3C3C"/>
<rect x="3" y="543" width="118" height="54" stroke="black" stroke-width="5"/>
<rect x="829" y="543" width="118" height="54" fill="#DB3C3C"/>
<rect x="829" y="543" width="118" height="54" stroke="black" stroke-width="5"/>
<rect x="947" y="543" width="118" height="54" fill="#DB3C3C"/>
<rect x="947" y="543" width="118" height="54" stroke="black" stroke-width="5"/>
<rect x="711" y="543" width="118" height="54" fill="#DB3C3C"/>
<rect x="711" y="543" width="118" height="54" stroke="black" stroke-width="5"/>
<rect x="593" y="543" width="118" height="54" fill="#DB3C3C"/>
<rect x="593" y="543" width="118" height="54" stroke="black" stroke-width="5"/>
<rect x="475" y="543" width="118" height="54" fill="#DB3C3C"/>
<rect x="475" y="543" width="118" height="54" stroke="black" stroke-width="5"/>
<rect x="357" y="543" width="118" height="54" fill="#DB3C3C"/>
<rect x="357" y="543" width="118" height="54" stroke="black" stroke-width="5"/>
<rect x="239" y="543" width="118" height="54" fill="#DB3C3C"/>
<rect x="239" y="543" width="118" height="54" stroke="black" stroke-width="5"/>
<rect x="121" y="543" width="118" height="54" fill="#DB3C3C"/>
<rect x="121" y="543" width="118" height="54" stroke="black" stroke-width="5"/>
<rect x="62" y="597" width="118" height="54" fill="#DB3C3C"/>
<rect x="62" y="597" width="118" height="54" stroke="black" stroke-width="5"/>
<rect x="1006" y="597" width="59" height="54" fill="#DB3C3C"/>
<rect x="1006" y="597" width="59" height="54" stroke="black" stroke-width="5"/>
<rect x="3" y="597" width="59" height="54" fill="#DB3C3C"/>
<rect x="3" y="597" width="59" height="54" stroke="black" stroke-width="5"/>
<rect x="888" y="597" width="118" height="54" fill="#DB3C3C"/>
<rect x="888" y="597" width="118" height="54" stroke="black" stroke-width="5"/>
<rect x="770" y="597" width="118" height="54" fill="#DB3C3C"/>
<rect x="770" y="597" width="118" height="54" stroke="black" stroke-width="5"/>
<rect x="652" y="597" width="118" height="54" fill="#DB3C3C"/>
<rect x="652" y="597" width="118" height="54" stroke="black" stroke-width="5"/>
<rect x="534" y="597" width="118" height="54" fill="#DB3C3C"/>
<rect x="534" y="597" width="118" height="54" stroke="black" stroke-width="5"/>
<rect x="416" y="597" width="118" height="54" fill="#DB3C3C"/>
<rect x="416" y="597" width="118" height="54" stroke="black" stroke-width="5"/>
<rect x="298" y="597" width="118" height="54" fill="#DB3C3C"/>
<rect x="298" y="597" width="118" height="54" stroke="black" stroke-width="5"/>
<rect x="180" y="597" width="118" height="54" fill="#DB3C3C"/>
<rect x="180" y="597" width="118" height="54" stroke="black" stroke-width="5"/>
<rect x="888" y="489" width="118" height="54" fill="#DB3C3C"/>
<rect x="888" y="489" width="118" height="54" stroke="black" stroke-width="5"/>
<rect x="770" y="489" width="118" height="54" fill="#DB3C3C"/>
<rect x="770" y="489" width="118" height="54" stroke="black" stroke-width="5"/>
<rect x="652" y="489" width="118" height="54" fill="#DB3C3C"/>
<rect x="652" y="489" width="118" height="54" stroke="black" stroke-width="5"/>
<rect x="534" y="489" width="118" height="54" fill="#DB3C3C"/>
<rect x="534" y="489" width="118" height="54" stroke="black" stroke-width="5"/>
<rect x="416" y="489" width="118" height="54" fill="#DB3C3C"/>
<rect x="416" y="489" width="118" height="54" stroke="black" stroke-width="5"/>
<rect x="298" y="489" width="118" height="54" fill="#DB3C3C"/>
<rect x="298" y="489" width="118" height="54" stroke="black" stroke-width="5"/>
<rect x="180" y="489" width="118" height="54" fill="#DB3C3C"/>
<rect x="180" y="489" width="118" height="54" stroke="black" stroke-width="5"/>
<rect x="3" y="1299" width="118" height="54" fill="#DB3C3C"/>
<rect x="3" y="1299" width="118" height="54" stroke="black" stroke-width="5"/>
<rect x="829" y="1299" width="118" height="54" fill="#DB3C3C"/>
<rect x="829" y="1299" width="118" height="54" stroke="black" stroke-width="5"/>
<rect x="947" y="1299" width="118" height="54" fill="#DB3C3C"/>
<rect x="947" y="1299" width="118" height="54" stroke="black" stroke-width="5"/>
<rect x="711" y="1299" width="118" height="54" fill="#DB3C3C"/>
<rect x="711" y="1299" width="118" height="54" stroke="black" stroke-width="5"/>
<rect x="593" y="1299" width="118" height="54" fill="#DB3C3C"/>
<rect x="593" y="1299" width="118" height="54" stroke="black" stroke-width="5"/>
<rect x="475" y="1299" width="118" height="54" fill="#DB3C3C"/>
<rect x="475" y="1299" width="118" height="54" stroke="black" stroke-width="5"/>
<rect x="357" y="1299" width="118" height="54" fill="#DB3C3C"/>
<rect x="357" y="1299" width="118" height="54" stroke="black" stroke-width="5"/>
<rect x="239" y="1299" width="118" height="54" fill="#DB3C3C"/>
<rect x="239" y="1299" width="118" height="54" stroke="black" stroke-width="5"/>
<rect x="121" y="1299" width="118" height="54" fill="#DB3C3C"/>
<rect x="121" y="1299" width="118" height="54" stroke="black" stroke-width="5"/>
<rect x="62" y="1353" width="118" height="54" fill="#DB3C3C"/>
<rect x="62" y="1353" width="118" height="54" stroke="black" stroke-width="5"/>
<rect x="1006" y="1353" width="59" height="54" fill="#DB3C3C"/>
<rect x="1006" y="1353" width="59" height="54" stroke="black" stroke-width="5"/>
<rect x="3" y="1353" width="59" height="54" fill="#DB3C3C"/>
<rect x="3" y="1353" width="59" height="54" stroke="black" stroke-width="5"/>
<rect x="888" y="1353" width="118" height="54" fill="#DB3C3C"/>
<rect x="888" y="1353" width="118" height="54" stroke="black" stroke-width="5"/>
<rect x="770" y="1353" width="118" height="54" fill="#DB3C3C"/>
<rect x="770" y="1353" width="118" height="54" stroke="black" stroke-width="5"/>
<rect x="652" y="1353" width="118" height="54" fill="#DB3C3C"/>
<rect x="652" y="1353" width="118" height="54" stroke="black" stroke-width="5"/>
<rect x="534" y="1353" width="118" height="54" fill="#DB3C3C"/>
<rect x="534" y="1353" width="118" height="54" stroke="black" stroke-width="5"/>
<rect x="416" y="1353" width="118" height="54" fill="#DB3C3C"/>
<rect x="416" y="1353" width="118" height="54" stroke="black" stroke-width="5"/>
<rect x="298" y="1353" width="118" height="54" fill="#DB3C3C"/>
<rect x="298" y="1353" width="118" height="54" stroke="black" stroke-width="5"/>
<rect x="180" y="1353" width="118" height="54" fill="#DB3C3C"/>
<rect x="180" y="1353" width="118" height="54" stroke="black" stroke-width="5"/>
<rect x="3" y="1407" width="118" height="54" fill="#DB3C3C"/>
<rect x="3" y="1407" width="118" height="54" stroke="black" stroke-width="5"/>
<rect x="829" y="1407" width="118" height="54" fill="#DB3C3C"/>
<rect x="829" y="1407" width="118" height="54" stroke="black" stroke-width="5"/>
<rect x="947" y="1407" width="118" height="54" fill="#DB3C3C"/>
<rect x="947" y="1407" width="118" height="54" stroke="black" stroke-width="5"/>
<rect x="711" y="1407" width="118" height="54" fill="#DB3C3C"/>
<rect x="711" y="1407" width="118" height="54" stroke="black" stroke-width="5"/>
<rect x="593" y="1407" width="118" height="54" fill="#DB3C3C"/>
<rect x="593" y="1407" width="118" height="54" stroke="black" stroke-width="5"/>
<rect x="475" y="1407" width="118" height="54" fill="#DB3C3C"/>
<rect x="475" y="1407" width="118" height="54" stroke="black" stroke-width="5"/>
<rect x="357" y="1407" width="118" height="54" fill="#DB3C3C"/>
<rect x="357" y="1407" width="118" height="54" stroke="black" stroke-width="5"/>
<rect x="239" y="1407" width="118" height="54" fill="#DB3C3C"/>
<rect x="239" y="1407" width="118" height="54" stroke="black" stroke-width="5"/>
<rect x="121" y="1407" width="118" height="54" fill="#DB3C3C"/>
<rect x="121" y="1407" width="118" height="54" stroke="black" stroke-width="5"/>
<rect x="62" y="1461" width="118" height="54" fill="#DB3C3C"/>
<rect x="62" y="1461" width="118" height="54" stroke="black" stroke-width="5"/>
<rect x="1006" y="1461" width="59" height="54" fill="#DB3C3C"/>
<rect x="1006" y="1461" width="59" height="54" stroke="black" stroke-width="5"/>
<rect x="3" y="1461" width="59" height="54" fill="#DB3C3C"/>
<rect x="3" y="1461" width="59" height="54" stroke="black" stroke-width="5"/>
<rect x="3" y="1515" width="118" height="54" fill="#DB3C3C"/>
<rect x="3" y="1515" width="118" height="54" stroke="black" stroke-width="5"/>
<rect x="829" y="1515" width="118" height="54" fill="#DB3C3C"/>
<rect x="829" y="1515" width="118" height="54" stroke="black" stroke-width="5"/>
<rect x="947" y="1515" width="118" height="54" fill="#DB3C3C"/>
<rect x="947" y="1515" width="118" height="54" stroke="black" stroke-width="5"/>
<rect x="711" y="1515" width="118" height="54" fill="#DB3C3C"/>
<rect x="711" y="1515" width="118" height="54" stroke="black" stroke-width="5"/>
<rect x="593" y="1515" width="118" height="54" fill="#DB3C3C"/>
<rect x="593" y="1515" width="118" height="54" stroke="black" stroke-width="5"/>
<rect x="475" y="1515" width="118" height="54" fill="#DB3C3C"/>
<rect x="475" y="1515" width="118" height="54" stroke="black" stroke-width="5"/>
<rect x="357" y="1515" width="118" height="54" fill="#DB3C3C"/>
<rect x="357" y="1515" width="118" height="54" stroke="black" stroke-width="5"/>
<rect x="239" y="1515" width="118" height="54" fill="#DB3C3C"/>
<rect x="239" y="1515" width="118" height="54" stroke="black" stroke-width="5"/>
<rect x="121" y="1515" width="118" height="54" fill="#DB3C3C"/>
<rect x="121" y="1515" width="118" height="54" stroke="black" stroke-width="5"/>
<rect x="62" y="1569" width="118" height="54" fill="#DB3C3C"/>
<rect x="62" y="1569" width="118" height="54" stroke="black" stroke-width="5"/>
<rect x="1006" y="1569" width="59" height="54" fill="#DB3C3C"/>
<rect x="1006" y="1569" width="59" height="54" stroke="black" stroke-width="5"/>
<rect x="3" y="1569" width="59" height="54" fill="#DB3C3C"/>
<rect x="3" y="1569" width="59" height="54" stroke="black" stroke-width="5"/>
<rect x="888" y="1569" width="118" height="54" fill="#DB3C3C"/>
<rect x="888" y="1569" width="118" height="54" stroke="black" stroke-width="5"/>
<rect x="770" y="1569" width="118" height="54" fill="#DB3C3C"/>
<rect x="770" y="1569" width="118" height="54" stroke="black" stroke-width="5"/>
<rect x="652" y="1569" width="118" height="54" fill="#DB3C3C"/>
<rect x="652" y="1569" width="118" height="54" stroke="black" stroke-width="5"/>
<rect x="534" y="1569" width="118" height="54" fill="#DB3C3C"/>
<rect x="534" y="1569" width="118" height="54" stroke="black" stroke-width="5"/>
<rect x="416" y="1569" width="118" height="54" fill="#DB3C3C"/>
<rect x="416" y="1569" width="118" height="54" stroke="black" stroke-width="5"/>
<rect x="298" y="1569" width="118" height="54" fill="#DB3C3C"/>
<rect x="298" y="1569" width="118" height="54" stroke="black" stroke-width="5"/>
<rect x="180" y="1569" width="118" height="54" fill="#DB3C3C"/>
<rect x="180" y="1569" width="118" height="54" stroke="black" stroke-width="5"/>
<rect x="888" y="1461" width="118" height="54" fill="#DB3C3C"/>
<rect x="888" y="1461" width="118" height="54" stroke="black" stroke-width="5"/>
<rect x="770" y="1461" width="118" height="54" fill="#DB3C3C"/>
<rect x="770" y="1461" width="118" height="54" stroke="black" stroke-width="5"/>
<rect x="652" y="1461" width="118" height="54" fill="#DB3C3C"/>
<rect x="652" y="1461" width="118" height="54" stroke="black" stroke-width="5"/>
<rect x="534" y="1461" width="118" height="54" fill="#DB3C3C"/>
<rect x="534" y="1461" width="118" height="54" stroke="black" stroke-width="5"/>
<rect x="416" y="1461" width="118" height="54" fill="#DB3C3C"/>
<rect x="416" y="1461" width="118" height="54" stroke="black" stroke-width="5"/>
<rect x="298" y="1461" width="118" height="54" fill="#DB3C3C"/>
<rect x="298" y="1461" width="118" height="54" stroke="black" stroke-width="5"/>
<rect x="180" y="1461" width="118" height="54" fill="#DB3C3C"/>
<rect x="180" y="1461" width="118" height="54" stroke="black" stroke-width="5"/>
<rect x="3" y="975" width="118" height="54" fill="#DB3C3C"/>
<rect x="3" y="975" width="118" height="54" stroke="black" stroke-width="5"/>
<rect x="829" y="975" width="118" height="54" fill="#DB3C3C"/>
<rect x="829" y="975" width="118" height="54" stroke="black" stroke-width="5"/>
<rect x="947" y="975" width="118" height="54" fill="#DB3C3C"/>
<rect x="947" y="975" width="118" height="54" stroke="black" stroke-width="5"/>
<rect x="711" y="975" width="118" height="54" fill="#DB3C3C"/>
<rect x="711" y="975" width="118" height="54" stroke="black" stroke-width="5"/>
<rect x="593" y="975" width="118" height="54" fill="#DB3C3C"/>
<rect x="593" y="975" width="118" height="54" stroke="black" stroke-width="5"/>
<rect x="475" y="975" width="118" height="54" fill="#DB3C3C"/>
<rect x="475" y="975" width="118" height="54" stroke="black" stroke-width="5"/>
<rect x="357" y="975" width="118" height="54" fill="#DB3C3C"/>
<rect x="357" y="975" width="118" height="54" stroke="black" stroke-width="5"/>
<rect x="239" y="975" width="118" height="54" fill="#DB3C3C"/>
<rect x="239" y="975" width="118" height="54" stroke="black" stroke-width="5"/>
<rect x="121" y="975" width="118" height="54" fill="#DB3C3C"/>
<rect x="121" y="975" width="118" height="54" stroke="black" stroke-width="5"/>
<rect x="62" y="1029" width="118" height="54" fill="#DB3C3C"/>
<rect x="62" y="1029" width="118" height="54" stroke="black" stroke-width="5"/>
<rect x="1006" y="1029" width="59" height="54" fill="#DB3C3C"/>
<rect x="1006" y="1029" width="59" height="54" stroke="black" stroke-width="5"/>
<rect x="3" y="1029" width="59" height="54" fill="#DB3C3C"/>
<rect x="3" y="1029" width="59" height="54" stroke="black" stroke-width="5"/>
<rect x="888" y="1029" width="118" height="54" fill="#DB3C3C"/>
<rect x="888" y="1029" width="118" height="54" stroke="black" stroke-width="5"/>
<rect x="770" y="1029" width="118" height="54" fill="#DB3C3C"/>
<rect x="770" y="1029" width="118" height="54" stroke="black" stroke-width="5"/>
<rect x="652" y="1029" width="118" height="54" fill="#DB3C3C"/>
<rect x="652" y="1029" width="118" height="54" stroke="black" stroke-width="5"/>
<rect x="534" y="1029" width="118" height="54" fill="#DB3C3C"/>
<rect x="534" y="1029" width="118" height="54" stroke="black" stroke-width="5"/>
<rect x="416" y="1029" width="118" height="54" fill="#DB3C3C"/>
<rect x="416" y="1029" width="118" height="54" stroke="black" stroke-width="5"/>
<rect x="298" y="1029" width="118" height="54" fill="#DB3C3C"/>
<rect x="298" y="1029" width="118" height="54" stroke="black" stroke-width="5"/>
<rect x="180" y="1029" width="118" height="54" fill="#DB3C3C"/>
<rect x="180" y="1029" width="118" height="54" stroke="black" stroke-width="5"/>
<rect x="3" y="1083" width="118" height="54" fill="#DB3C3C"/>
<rect x="3" y="1083" width="118" height="54" stroke="black" stroke-width="5"/>
<rect x="829" y="1083" width="118" height="54" fill="#DB3C3C"/>
<rect x="829" y="1083" width="118" height="54" stroke="black" stroke-width="5"/>
<rect x="947" y="1083" width="118" height="54" fill="#DB3C3C"/>
<rect x="947" y="1083" width="118" height="54" stroke="black" stroke-width="5"/>
<rect x="711" y="1083" width="118" height="54" fill="#DB3C3C"/>
<rect x="711" y="1083" width="118" height="54" stroke="black" stroke-width="5"/>
<rect x="593" y="1083" width="118" height="54" fill="#DB3C3C"/>
<rect x="593" y="1083" width="118" height="54" stroke="black" stroke-width="5"/>
<rect x="475" y="1083" width="118" height="54" fill="#DB3C3C"/>
<rect x="475" y="1083" width="118" height="54" stroke="black" stroke-width="5"/>
<rect x="357" y="1083" width="118" height="54" fill="#DB3C3C"/>
<rect x="357" y="1083" width="118" height="54" stroke="black" stroke-width="5"/>
<rect x="239" y="1083" width="118" height="54" fill="#DB3C3C"/>
<rect x="239" y="1083" width="118" height="54" stroke="black" stroke-width="5"/>
<rect x="121" y="1083" width="118" height="54" fill="#DB3C3C"/>
<rect x="121" y="1083" width="118" height="54" stroke="black" stroke-width="5"/>
<rect x="62" y="1137" width="118" height="54" fill="#DB3C3C"/>
<rect x="62" y="1137" width="118" height="54" stroke="black" stroke-width="5"/>
<rect x="1006" y="1137" width="59" height="54" fill="#DB3C3C"/>
<rect x="1006" y="1137" width="59" height="54" stroke="black" stroke-width="5"/>
<rect x="3" y="1137" width="59" height="54" fill="#DB3C3C"/>
<rect x="3" y="1137" width="59" height="54" stroke="black" stroke-width="5"/>
<rect x="3" y="1191" width="118" height="54" fill="#DB3C3C"/>
<rect x="3" y="1191" width="118" height="54" stroke="black" stroke-width="5"/>
<rect x="829" y="1191" width="118" height="54" fill="#DB3C3C"/>
<rect x="829" y="1191" width="118" height="54" stroke="black" stroke-width="5"/>
<rect x="947" y="1191" width="118" height="54" fill="#DB3C3C"/>
<rect x="947" y="1191" width="118" height="54" stroke="black" stroke-width="5"/>
<rect x="711" y="1191" width="118" height="54" fill="#DB3C3C"/>
<rect x="711" y="1191" width="118" height="54" stroke="black" stroke-width="5"/>
<rect x="593" y="1191" width="118" height="54" fill="#DB3C3C"/>
<rect x="593" y="1191" width="118" height="54" stroke="black" stroke-width="5"/>
<rect x="475" y="1191" width="118" height="54" fill="#DB3C3C"/>
<rect x="475" y="1191" width="118" height="54" stroke="black" stroke-width="5"/>
<rect x="357" y="1191" width="118" height="54" fill="#DB3C3C"/>
<rect x="357" y="1191" width="118" height="54" stroke="black" stroke-width="5"/>
<rect x="239" y="1191" width="118" height="54" fill="#DB3C3C"/>
<rect x="239" y="1191" width="118" height="54" stroke="black" stroke-width="5"/>
<rect x="121" y="1191" width="118" height="54" fill="#DB3C3C"/>
<rect x="121" y="1191" width="118" height="54" stroke="black" stroke-width="5"/>
<rect x="62" y="1245" width="118" height="54" fill="#DB3C3C"/>
<rect x="62" y="1245" width="118" height="54" stroke="black" stroke-width="5"/>
<rect x="1006" y="1245" width="59" height="54" fill="#DB3C3C"/>
<rect x="1006" y="1245" width="59" height="54" stroke="black" stroke-width="5"/>
<rect x="3" y="1245" width="59" height="54" fill="#DB3C3C"/>
<rect x="3" y="1245" width="59" height="54" stroke="black" stroke-width="5"/>
<rect x="888" y="1245" width="118" height="54" fill="#DB3C3C"/>
<rect x="888" y="1245" width="118" height="54" stroke="black" stroke-width="5"/>
<rect x="770" y="1245" width="118" height="54" fill="#DB3C3C"/>
<rect x="770" y="1245" width="118" height="54" stroke="black" stroke-width="5"/>
<rect x="652" y="1245" width="118" height="54" fill="#DB3C3C"/>
<rect x="652" y="1245" width="118" height="54" stroke="black" stroke-width="5"/>
<rect x="534" y="1245" width="118" height="54" fill="#DB3C3C"/>
<rect x="534" y="1245" width="118" height="54" stroke="black" stroke-width="5"/>
<rect x="416" y="1245" width="118" height="54" fill="#DB3C3C"/>
<rect x="416" y="1245" width="118" height="54" stroke="black" stroke-width="5"/>
<rect x="298" y="1245" width="118" height="54" fill="#DB3C3C"/>
<rect x="298" y="1245" width="118" height="54" stroke="black" stroke-width="5"/>
<rect x="180" y="1245" width="118" height="54" fill="#DB3C3C"/>
<rect x="180" y="1245" width="118" height="54" stroke="black" stroke-width="5"/>
<rect x="888" y="1137" width="118" height="54" fill="#DB3C3C"/>
<rect x="888" y="1137" width="118" height="54" stroke="black" stroke-width="5"/>
<rect x="770" y="1137" width="118" height="54" fill="#DB3C3C"/>
<rect x="770" y="1137" width="118" height="54" stroke="black" stroke-width="5"/>
<rect x="652" y="1137" width="118" height="54" fill="#DB3C3C"/>
<rect x="652" y="1137" width="118" height="54" stroke="black" stroke-width="5"/>
<rect x="534" y="1137" width="118" height="54" fill="#DB3C3C"/>
<rect x="534" y="1137" width="118" height="54" stroke="black" stroke-width="5"/>
<rect x="416" y="1137" width="118" height="54" fill="#DB3C3C"/>
<rect x="416" y="1137" width="118" height="54" stroke="black" stroke-width="5"/>
<rect x="298" y="1137" width="118" height="54" fill="#DB3C3C"/>
<rect x="298" y="1137" width="118" height="54" stroke="black" stroke-width="5"/>
<rect x="180" y="1137" width="118" height="54" fill="#DB3C3C"/>
<rect x="180" y="1137" width="118" height="54" stroke="black" stroke-width="5"/>
<rect x="3" y="651" width="118" height="54" fill="#DB3C3C"/>
<rect x="3" y="651" width="118" height="54" stroke="black" stroke-width="5"/>
<rect x="829" y="651" width="118" height="54" fill="#DB3C3C"/>
<rect x="829" y="651" width="118" height="54" stroke="black" stroke-width="5"/>
<rect x="947" y="651" width="118" height="54" fill="#DB3C3C"/>
<rect x="947" y="651" width="118" height="54" stroke="black" stroke-width="5"/>
<rect x="711" y="651" width="118" height="54" fill="#DB3C3C"/>
<rect x="711" y="651" width="118" height="54" stroke="black" stroke-width="5"/>
<rect x="593" y="651" width="118" height="54" fill="#DB3C3C"/>
<rect x="593" y="651" width="118" height="54" stroke="black" stroke-width="5"/>
<rect x="475" y="651" width="118" height="54" fill="#DB3C3C"/>
<rect x="475" y="651" width="118" height="54" stroke="black" stroke-width="5"/>
<rect x="357" y="651" width="118" height="54" fill="#DB3C3C"/>
<rect x="357" y="651" width="118" height="54" stroke="black" stroke-width="5"/>
<rect x="239" y="651" width="118" height="54" fill="#DB3C3C"/>
<rect x="239" y="651" width="118" height="54" stroke="black" stroke-width="5"/>
<rect x="121" y="651" width="118" height="54" fill="#DB3C3C"/>
<rect x="121" y="651" width="118" height="54" stroke="black" stroke-width="5"/>
<rect x="62" y="705" width="118" height="54" fill="#DB3C3C"/>
<rect x="62" y="705" width="118" height="54" stroke="black" stroke-width="5"/>
<rect x="1006" y="705" width="59" height="54" fill="#DB3C3C"/>
<rect x="1006" y="705" width="59" height="54" stroke="black" stroke-width="5"/>
<rect x="3" y="705" width="59" height="54" fill="#DB3C3C"/>
<rect x="3" y="705" width="59" height="54" stroke="black" stroke-width="5"/>
<rect x="888" y="705" width="118" height="54" fill="#DB3C3C"/>
<rect x="888" y="705" width="118" height="54" stroke="black" stroke-width="5"/>
<rect x="770" y="705" width="118" height="54" fill="#DB3C3C"/>
<rect x="770" y="705" width="118" height="54" stroke="black" stroke-width="5"/>
<rect x="652" y="705" width="118" height="54" fill="#DB3C3C"/>
<rect x="652" y="705" width="118" height="54" stroke="black" stroke-width="5"/>
<rect x="534" y="705" width="118" height="54" fill="#DB3C3C"/>
<rect x="534" y="705" width="118" height="54" stroke="black" stroke-width="5"/>
<rect x="416" y="705" width="118" height="54" fill="#DB3C3C"/>
<rect x="416" y="705" width="118" height="54" stroke="black" stroke-width="5"/>
<rect x="298" y="705" width="118" height="54" fill="#DB3C3C"/>
<rect x="298" y="705" width="118" height="54" stroke="black" stroke-width="5"/>
<rect x="180" y="705" width="118" height="54" fill="#DB3C3C"/>
<rect x="180" y="705" width="118" height="54" stroke="black" stroke-width="5"/>
<rect x="3" y="759" width="118" height="54" fill="#DB3C3C"/>
<rect x="3" y="759" width="118" height="54" stroke="black" stroke-width="5"/>
<rect x="829" y="759" width="118" height="54" fill="#DB3C3C"/>
<rect x="829" y="759" width="118" height="54" stroke="black" stroke-width="5"/>
<rect x="947" y="759" width="118" height="54" fill="#DB3C3C"/>
<rect x="947" y="759" width="118" height="54" stroke="black" stroke-width="5"/>
<rect x="711" y="759" width="118" height="54" fill="#DB3C3C"/>
<rect x="711" y="759" width="118" height="54" stroke="black" stroke-width="5"/>
<rect x="593" y="759" width="118" height="54" fill="#DB3C3C"/>
<rect x="593" y="759" width="118" height="54" stroke="black" stroke-width="5"/>
<rect x="475" y="759" width="118" height="54" fill="#DB3C3C"/>
<rect x="475" y="759" width="118" height="54" stroke="black" stroke-width="5"/>
<rect x="357" y="759" width="118" height="54" fill="#DB3C3C"/>
<rect x="357" y="759" width="118" height="54" stroke="black" stroke-width="5"/>
<rect x="239" y="759" width="118" height="54" fill="#DB3C3C"/>
<rect x="239" y="759" width="118" height="54" stroke="black" stroke-width="5"/>
<rect x="121" y="759" width="118" height="54" fill="#DB3C3C"/>
<rect x="121" y="759" width="118" height="54" stroke="black" stroke-width="5"/>
<rect x="62" y="813" width="118" height="54" fill="#DB3C3C"/>
<rect x="62" y="813" width="118" height="54" stroke="black" stroke-width="5"/>
<rect x="1006" y="813" width="59" height="54" fill="#DB3C3C"/>
<rect x="1006" y="813" width="59" height="54" stroke="black" stroke-width="5"/>
<rect x="3" y="813" width="59" height="54" fill="#DB3C3C"/>
<rect x="3" y="813" width="59" height="54" stroke="black" stroke-width="5"/>
<rect x="3" y="867" width="118" height="54" fill="#DB3C3C"/>
<rect x="3" y="867" width="118" height="54" stroke="black" stroke-width="5"/>
<rect x="829" y="867" width="118" height="54" fill="#DB3C3C"/>
<rect x="829" y="867" width="118" height="54" stroke="black" stroke-width="5"/>
<rect x="947" y="867" width="118" height="54" fill="#DB3C3C"/>
<rect x="947" y="867" width="118" height="54" stroke="black" stroke-width="5"/>
<rect x="711" y="867" width="118" height="54" fill="#DB3C3C"/>
<rect x="711" y="867" width="118" height="54" stroke="black" stroke-width="5"/>
<rect x="593" y="867" width="118" height="54" fill="#DB3C3C"/>
<rect x="593" y="867" width="118" height="54" stroke="black" stroke-width="5"/>
<rect x="475" y="867" width="118" height="54" fill="#DB3C3C"/>
<rect x="475" y="867" width="118" height="54" stroke="black" stroke-width="5"/>
<rect x="357" y="867" width="118" height="54" fill="#DB3C3C"/>
<rect x="357" y="867" width="118" height="54" stroke="black" stroke-width="5"/>
<rect x="239" y="867" width="118" height="54" fill="#DB3C3C"/>
<rect x="239" y="867" width="118" height="54" stroke="black" stroke-width="5"/>
<rect x="121" y="867" width="118" height="54" fill="#DB3C3C"/>
<rect x="121" y="867" width="118" height="54" stroke="black" stroke-width="5"/>
<rect x="62" y="921" width="118" height="54" fill="#DB3C3C"/>
<rect x="62" y="921" width="118" height="54" stroke="black" stroke-width="5"/>
<rect x="1006" y="921" width="59" height="54" fill="#DB3C3C"/>
<rect x="1006" y="921" width="59" height="54" stroke="black" stroke-width="5"/>
<rect x="3" y="921" width="59" height="54" fill="#DB3C3C"/>
<rect x="3" y="921" width="59" height="54" stroke="black" stroke-width="5"/>
<rect x="888" y="921" width="118" height="54" fill="#DB3C3C"/>
<rect x="888" y="921" width="118" height="54" stroke="black" stroke-width="5"/>
<rect x="770" y="921" width="118" height="54" fill="#DB3C3C"/>
<rect x="770" y="921" width="118" height="54" stroke="black" stroke-width="5"/>
<rect x="652" y="921" width="118" height="54" fill="#DB3C3C"/>
<rect x="652" y="921" width="118" height="54" stroke="black" stroke-width="5"/>
<rect x="534" y="921" width="118" height="54" fill="#DB3C3C"/>
<rect x="534" y="921" width="118" height="54" stroke="black" stroke-width="5"/>
<rect x="416" y="921" width="118" height="54" fill="#DB3C3C"/>
<rect x="416" y="921" width="118" height="54" stroke="black" stroke-width="5"/>
<rect x="298" y="921" width="118" height="54" fill="#DB3C3C"/>
<rect x="298" y="921" width="118" height="54" stroke="black" stroke-width="5"/>
<rect x="180" y="921" width="118" height="54" fill="#DB3C3C"/>
<rect x="180" y="921" width="118" height="54" stroke="black" stroke-width="5"/>
<rect x="888" y="813" width="118" height="54" fill="#DB3C3C"/>
<rect x="888" y="813" width="118" height="54" stroke="black" stroke-width="5"/>
<rect x="770" y="813" width="118" height="54" fill="#DB3C3C"/>
<rect x="770" y="813" width="118" height="54" stroke="black" stroke-width="5"/>
<rect x="652" y="813" width="118" height="54" fill="#DB3C3C"/>
<rect x="652" y="813" width="118" height="54" stroke="black" stroke-width="5"/>
<rect x="534" y="813" width="118" height="54" fill="#DB3C3C"/>
<rect x="534" y="813" width="118" height="54" stroke="black" stroke-width="5"/>
<rect x="416" y="813" width="118" height="54" fill="#DB3C3C"/>
<rect x="416" y="813" width="118" height="54" stroke="black" stroke-width="5"/>
<rect x="298" y="813" width="118" height="54" fill="#DB3C3C"/>
<rect x="298" y="813" width="118" height="54" stroke="black" stroke-width="5"/>
<rect x="180" y="813" width="118" height="54" fill="#DB3C3C"/>
<rect x="180" y="813" width="118" height="54" stroke="black" stroke-width="5"/>
</svg>
