<svg width="380" height="120" viewBox="0 0 380 120" fill="none" xmlns="http://www.w3.org/2000/svg">
<path d="M0 5C0 2.23858 2.23858 0 5 0H375C377.761 0 380 2.23858 380 5V40H0V5Z" fill="#3B2859"/>
<path d="M37.892 25.444H32.654L31.754 28H29.612L34.094 15.472H36.47L40.952 28H38.792L37.892 25.444ZM37.316 23.77L35.282 17.956L33.23 23.77H37.316ZM45.2948 19.756V25.246C45.2948 25.618 45.3788 25.888 45.5468 26.056C45.7268 26.212 46.0268 26.29 46.4468 26.29H47.7068V28H46.0868C45.1628 28 44.4548 27.784 43.9628 27.352C43.4708 26.92 43.2248 26.218 43.2248 25.246V19.756H42.0548V18.082H43.2248V15.616H45.2948V18.082H47.7068V19.756H45.2948ZM51.992 19.756V25.246C51.992 25.618 52.076 25.888 52.244 26.056C52.424 26.212 52.724 26.29 53.144 26.29H54.404V28H52.784C51.86 28 51.152 27.784 50.66 27.352C50.168 26.92 49.922 26.218 49.922 25.246V19.756H48.752V18.082H49.922V15.616H51.992V18.082H54.404V19.756H51.992ZM58.3473 19.522C58.6473 19.018 59.0433 18.628 59.5353 18.352C60.0393 18.064 60.6333 17.92 61.3173 17.92V20.044H60.7953C59.9913 20.044 59.3793 20.248 58.9593 20.656C58.5513 21.064 58.3473 21.772 58.3473 22.78V28H56.2953V18.082H58.3473V19.522ZM64.2475 16.768C63.8755 16.768 63.5635 16.642 63.3115 16.39C63.0595 16.138 62.9335 15.826 62.9335 15.454C62.9335 15.082 63.0595 14.77 63.3115 14.518C63.5635 14.266 63.8755 14.14 64.2475 14.14C64.6075 14.14 64.9135 14.266 65.1655 14.518C65.4175 14.77 65.5435 15.082 65.5435 15.454C65.5435 15.826 65.4175 16.138 65.1655 16.39C64.9135 16.642 64.6075 16.768 64.2475 16.768ZM65.2555 18.082V28H63.2035V18.082H65.2555ZM70.0016 19.558C70.3496 19.078 70.8236 18.688 71.4236 18.388C72.0356 18.076 72.7136 17.92 73.4576 17.92C74.3336 17.92 75.1256 18.13 75.8336 18.55C76.5416 18.97 77.0996 19.57 77.5076 20.35C77.9156 21.118 78.1196 22 78.1196 22.996C78.1196 23.992 77.9156 24.886 77.5076 25.678C77.0996 26.458 76.5356 27.07 75.8156 27.514C75.1076 27.946 74.3216 28.162 73.4576 28.162C72.6896 28.162 72.0056 28.012 71.4056 27.712C70.8176 27.412 70.3496 27.028 70.0016 26.56V28H67.9496V14.68H70.0016V19.558ZM76.0316 22.996C76.0316 22.312 75.8876 21.724 75.5996 21.232C75.3236 20.728 74.9516 20.35 74.4836 20.098C74.0276 19.834 73.5356 19.702 73.0076 19.702C72.4916 19.702 71.9996 19.834 71.5316 20.098C71.0756 20.362 70.7036 20.746 70.4156 21.25C70.1396 21.754 70.0016 22.348 70.0016 23.032C70.0016 23.716 70.1396 24.316 70.4156 24.832C70.7036 25.336 71.0756 25.72 71.5316 25.984C71.9996 26.248 72.4916 26.38 73.0076 26.38C73.5356 26.38 74.0276 26.248 74.4836 25.984C74.9516 25.708 75.3236 25.312 75.5996 24.796C75.8876 24.28 76.0316 23.68 76.0316 22.996ZM89.1308 18.082V28H87.0788V26.83C86.7548 27.238 86.3288 27.562 85.8008 27.802C85.2848 28.03 84.7328 28.144 84.1448 28.144C83.3648 28.144 82.6628 27.982 82.0388 27.658C81.4268 27.334 80.9408 26.854 80.5808 26.218C80.2328 25.582 80.0588 24.814 80.0588 23.914V18.082H82.0928V23.608C82.0928 24.496 82.3148 25.18 82.7588 25.66C83.2028 26.128 83.8088 26.362 84.5768 26.362C85.3448 26.362 85.9508 26.128 86.3948 25.66C86.8508 25.18 87.0788 24.496 87.0788 23.608V18.082H89.1308ZM94.2323 19.756V25.246C94.2323 25.618 94.3163 25.888 94.4843 26.056C94.6643 26.212 94.9643 26.29 95.3843 26.29H96.6443V28H95.0243C94.1003 28 93.3923 27.784 92.9003 27.352C92.4083 26.92 92.1623 26.218 92.1623 25.246V19.756H90.9923V18.082H92.1623V15.616H94.2323V18.082H96.6443V19.756H94.2323ZM107.626 22.798C107.626 23.17 107.602 23.506 107.554 23.806H99.9755C100.036 24.598 100.33 25.234 100.858 25.714C101.386 26.194 102.034 26.434 102.802 26.434C103.906 26.434 104.686 25.972 105.142 25.048H107.356C107.056 25.96 106.51 26.71 105.718 27.298C104.938 27.874 103.966 28.162 102.802 28.162C101.854 28.162 101.002 27.952 100.246 27.532C99.5015 27.1 98.9135 26.5 98.4815 25.732C98.0615 24.952 97.8515 24.052 97.8515 23.032C97.8515 22.012 98.0555 21.118 98.4635 20.35C98.8835 19.57 99.4655 18.97 100.21 18.55C100.966 18.13 101.83 17.92 102.802 17.92C103.738 17.92 104.572 18.124 105.304 18.532C106.036 18.94 106.606 19.516 107.014 20.26C107.422 20.992 107.626 21.838 107.626 22.798ZM105.484 22.15C105.472 21.394 105.202 20.788 104.674 20.332C104.146 19.876 103.492 19.648 102.712 19.648C102.004 19.648 101.398 19.876 100.894 20.332C100.39 20.776 100.09 21.382 99.9935 22.15H105.484ZM113.245 28.162C112.465 28.162 111.763 28.024 111.139 27.748C110.527 27.46 110.041 27.076 109.681 26.596C109.321 26.104 109.129 25.558 109.105 24.958H111.229C111.265 25.378 111.463 25.732 111.823 26.02C112.195 26.296 112.657 26.434 113.209 26.434C113.785 26.434 114.229 26.326 114.541 26.11C114.865 25.882 115.027 25.594 115.027 25.246C115.027 24.874 114.847 24.598 114.487 24.418C114.139 24.238 113.581 24.04 112.813 23.824C112.069 23.62 111.463 23.422 110.995 23.23C110.527 23.038 110.119 22.744 109.771 22.348C109.435 21.952 109.267 21.43 109.267 20.782C109.267 20.254 109.423 19.774 109.735 19.342C110.047 18.898 110.491 18.55 111.067 18.298C111.655 18.046 112.327 17.92 113.083 17.92C114.211 17.92 115.117 18.208 115.801 18.784C116.497 19.348 116.869 20.122 116.917 21.106H114.865C114.829 20.662 114.649 20.308 114.325 20.044C114.001 19.78 113.563 19.648 113.011 19.648C112.471 19.648 112.057 19.75 111.769 19.954C111.481 20.158 111.337 20.428 111.337 20.764C111.337 21.028 111.433 21.25 111.625 21.43C111.817 21.61 112.051 21.754 112.327 21.862C112.603 21.958 113.011 22.084 113.551 22.24C114.271 22.432 114.859 22.63 115.315 22.834C115.783 23.026 116.185 23.314 116.521 23.698C116.857 24.082 117.031 24.592 117.043 25.228C117.043 25.792 116.887 26.296 116.575 26.74C116.263 27.184 115.819 27.532 115.243 27.784C114.679 28.036 114.013 28.162 113.245 28.162ZM120.088 28.126C119.716 28.126 119.404 28 119.152 27.748C118.9 27.496 118.774 27.184 118.774 26.812C118.774 26.44 118.9 26.128 119.152 25.876C119.404 25.624 119.716 25.498 120.088 25.498C120.448 25.498 120.754 25.624 121.006 25.876C121.258 26.128 121.384 26.44 121.384 26.812C121.384 27.184 121.258 27.496 121.006 27.748C120.754 28 120.448 28.126 120.088 28.126ZM120.088 20.566C119.716 20.566 119.404 20.44 119.152 20.188C118.9 19.936 118.774 19.624 118.774 19.252C118.774 18.88 118.9 18.568 119.152 18.316C119.404 18.064 119.716 17.938 120.088 17.938C120.448 17.938 120.754 18.064 121.006 18.316C121.258 18.568 121.384 18.88 121.384 19.252C121.384 19.624 121.258 19.936 121.006 20.188C120.754 20.44 120.448 20.566 120.088 20.566Z" fill="#ECECEC"/>
<path d="M8.00005 17C8.35112 17 8.69599 16.9076 9.00002 16.732C9.30405 16.5565 9.55652 16.304 9.73205 16H16.0001C16.5305 16 17.0392 16.2107 17.4143 16.5858C17.7893 16.9609 18.0001 17.4696 18.0001 18C18.0001 18.5304 17.7893 19.0391 17.4143 19.4142C17.0392 19.7893 16.5305 20 16.0001 20H12.0001C10.9392 20 9.92177 20.4214 9.17162 21.1716C8.42148 21.9217 8.00005 22.9391 8.00005 24C8.00005 25.0609 8.42148 26.0783 9.17162 26.8284C9.92177 27.5786 10.9392 28 12.0001 28H18.2681C18.4882 28.3813 18.828 28.6792 19.2347 28.8477C19.6415 29.0162 20.0924 29.0457 20.5177 28.9318C20.9429 28.8178 21.3187 28.5667 21.5867 28.2175C21.8547 27.8682 22 27.4403 22.0001 27C22 26.5597 21.8547 26.1318 21.5867 25.7825C21.3187 25.4333 20.9429 25.1822 20.5177 25.0682C20.0924 24.9543 19.6415 24.9838 19.2347 25.1523C18.828 25.3208 18.4882 25.6187 18.2681 26H12.0001C11.4696 26 10.9609 25.7893 10.5858 25.4142C10.2108 25.0391 10.0001 24.5304 10.0001 24C10.0001 23.4696 10.2108 22.9609 10.5858 22.5858C10.9609 22.2107 11.4696 22 12.0001 22H16.0001C17.0609 22 18.0783 21.5786 18.8285 20.8284C19.5786 20.0783 20.0001 19.0609 20.0001 18C20.0001 16.9391 19.5786 15.9217 18.8285 15.1716C18.0783 14.4214 17.0609 14 16.0001 14H9.73205C9.55651 13.696 9.30404 13.4435 8.99999 13.2679C8.69595 13.0924 8.35106 13 7.99999 13C7.64891 13 7.30402 13.0924 6.99998 13.268C6.69594 13.4435 6.44347 13.696 6.26794 14C6.0924 14.3041 5.99999 14.649 6 15C6.00001 15.3511 6.09242 15.696 6.26797 16C6.44351 16.3041 6.69599 16.5565 7.00004 16.7321C7.30408 16.9076 7.64898 17 8.00005 17Z" fill="white"/>
<path d="M0 80H380V115C380 117.761 377.761 120 375 120H5C2.23858 120 0 117.761 0 115V80Z" fill="#573C82"/>
<rect y="40" width="380" height="40" fill="#714EAA"/>
<path d="M16.792 58.24C17.4427 58.3787 17.9653 58.704 18.36 59.216C18.7547 59.7173 18.952 60.2933 18.952 60.944C18.952 61.8827 18.6213 62.6293 17.96 63.184C17.3093 63.728 16.3973 64 15.224 64H9.992V52.768H15.048C16.1893 52.768 17.08 53.0293 17.72 53.552C18.3707 54.0747 18.696 54.784 18.696 55.68C18.696 56.3413 18.52 56.8907 18.168 57.328C17.8267 57.7653 17.368 58.0693 16.792 58.24ZM12.728 57.312H14.52C14.968 57.312 15.3093 57.216 15.544 57.024C15.7893 56.8213 15.912 56.528 15.912 56.144C15.912 55.76 15.7893 55.4667 15.544 55.264C15.3093 55.0613 14.968 54.96 14.52 54.96H12.728V57.312ZM14.744 61.792C15.2027 61.792 15.5547 61.6907 15.8 61.488C16.056 61.2747 16.184 60.9707 16.184 60.576C16.184 60.1813 16.0507 59.872 15.784 59.648C15.528 59.424 15.1707 59.312 14.712 59.312H12.728V61.792H14.744ZM23.2749 56.56C23.5949 56.0693 23.9949 55.6853 24.4749 55.408C24.9549 55.12 25.4882 54.976 26.0749 54.976V57.872H25.3229C24.6402 57.872 24.1282 58.0213 23.7869 58.32C23.4455 58.608 23.2749 59.12 23.2749 59.856V64H20.5389V55.072H23.2749V56.56ZM26.8386 59.52C26.8386 58.6027 27.0093 57.7973 27.3506 57.104C27.7026 56.4107 28.1773 55.8773 28.7746 55.504C29.372 55.1307 30.0386 54.944 30.7746 54.944C31.404 54.944 31.9533 55.072 32.4226 55.328C32.9026 55.584 33.2706 55.92 33.5266 56.336V55.072H36.2626V64H33.5266V62.736C33.26 63.152 32.8866 63.488 32.4066 63.744C31.9373 64 31.388 64.128 30.7586 64.128C30.0333 64.128 29.372 63.9413 28.7746 63.568C28.1773 63.184 27.7026 62.6453 27.3506 61.952C27.0093 61.248 26.8386 60.4373 26.8386 59.52ZM33.5266 59.536C33.5266 58.8533 33.3346 58.3147 32.9506 57.92C32.5773 57.5253 32.1186 57.328 31.5746 57.328C31.0306 57.328 30.5666 57.5253 30.1826 57.92C29.8093 58.304 29.6226 58.8373 29.6226 59.52C29.6226 60.2027 29.8093 60.7467 30.1826 61.152C30.5666 61.5467 31.0306 61.744 31.5746 61.744C32.1186 61.744 32.5773 61.5467 32.9506 61.152C33.3346 60.7573 33.5266 60.2187 33.5266 59.536ZM43.682 54.976C44.7273 54.976 45.5593 55.3173 46.178 56C46.8073 56.672 47.122 57.6 47.122 58.784V64H44.402V59.152C44.402 58.5547 44.2473 58.0907 43.938 57.76C43.6287 57.4293 43.2127 57.264 42.69 57.264C42.1673 57.264 41.7513 57.4293 41.442 57.76C41.1327 58.0907 40.978 58.5547 40.978 59.152V64H38.242V55.072H40.978V56.256C41.2553 55.8613 41.6287 55.552 42.098 55.328C42.5673 55.0933 43.0953 54.976 43.682 54.976ZM48.4793 59.52C48.4793 58.6027 48.6499 57.7973 48.9913 57.104C49.3433 56.4107 49.8179 55.8773 50.4153 55.504C51.0126 55.1307 51.6793 54.944 52.4153 54.944C53.0019 54.944 53.5353 55.0667 54.0153 55.312C54.5059 55.5573 54.8899 55.888 55.1673 56.304V52.16H57.9033V64H55.1673V62.72C54.9113 63.1467 54.5433 63.488 54.0633 63.744C53.5939 64 53.0446 64.128 52.4153 64.128C51.6793 64.128 51.0126 63.9413 50.4153 63.568C49.8179 63.184 49.3433 62.6453 48.9913 61.952C48.6499 61.248 48.4793 60.4373 48.4793 59.52ZM55.1673 59.536C55.1673 58.8533 54.9753 58.3147 54.5913 57.92C54.2179 57.5253 53.7593 57.328 53.2153 57.328C52.6713 57.328 52.2073 57.5253 51.8233 57.92C51.4499 58.304 51.2633 58.8373 51.2633 59.52C51.2633 60.2027 51.4499 60.7467 51.8233 61.152C52.2073 61.5467 52.6713 61.744 53.2153 61.744C53.7593 61.744 54.2179 61.5467 54.5913 61.152C54.9753 60.7573 55.1673 60.2187 55.1673 59.536ZM61.1626 64.128C60.6826 64.128 60.288 63.9893 59.9786 63.712C59.68 63.424 59.5306 63.072 59.5306 62.656C59.5306 62.2293 59.68 61.872 59.9786 61.584C60.288 61.296 60.6826 61.152 61.1626 61.152C61.632 61.152 62.016 61.296 62.3146 61.584C62.624 61.872 62.7786 62.2293 62.7786 62.656C62.7786 63.072 62.624 63.424 62.3146 63.712C62.016 63.9893 61.632 64.128 61.1626 64.128ZM61.1626 57.616C60.6826 57.616 60.288 57.4773 59.9786 57.2C59.68 56.912 59.5306 56.56 59.5306 56.144C59.5306 55.7173 59.68 55.36 59.9786 55.072C60.288 54.784 60.6826 54.64 61.1626 54.64C61.632 54.64 62.016 54.784 62.3146 55.072C62.624 55.36 62.7786 55.7173 62.7786 56.144C62.7786 56.56 62.624 56.912 62.3146 57.2C62.016 57.4773 61.632 57.616 61.1626 57.616Z" fill="#E6D6FF"/>
<path d="M15.72 104L13.384 99.76H12.728V104H9.992V92.768H14.584C15.4693 92.768 16.2213 92.9227 16.84 93.232C17.4693 93.5413 17.9387 93.968 18.248 94.512C18.5573 95.0453 18.712 95.6427 18.712 96.304C18.712 97.0507 18.4987 97.7173 18.072 98.304C17.656 98.8907 17.0373 99.3067 16.216 99.552L18.808 104H15.72ZM12.728 97.824H14.424C14.9253 97.824 15.2987 97.7013 15.544 97.456C15.8 97.2107 15.928 96.864 15.928 96.416C15.928 95.9893 15.8 95.6533 15.544 95.408C15.2987 95.1627 14.9253 95.04 14.424 95.04H12.728V97.824ZM28.8455 99.392C28.8455 99.648 28.8295 99.9147 28.7975 100.192H22.6055C22.6482 100.747 22.8242 101.173 23.1335 101.472C23.4535 101.76 23.8428 101.904 24.3015 101.904C24.9842 101.904 25.4588 101.616 25.7255 101.04H28.6375C28.4882 101.627 28.2162 102.155 27.8215 102.624C27.4375 103.093 26.9522 103.461 26.3655 103.728C25.7788 103.995 25.1228 104.128 24.3975 104.128C23.5228 104.128 22.7442 103.941 22.0615 103.568C21.3788 103.195 20.8455 102.661 20.4615 101.968C20.0775 101.275 19.8855 100.464 19.8855 99.536C19.8855 98.608 20.0722 97.7973 20.4455 97.104C20.8295 96.4107 21.3628 95.8773 22.0455 95.504C22.7282 95.1307 23.5122 94.944 24.3975 94.944C25.2615 94.944 26.0295 95.1253 26.7015 95.488C27.3735 95.8507 27.8962 96.368 28.2695 97.04C28.6535 97.712 28.8455 98.496 28.8455 99.392ZM26.0455 98.672C26.0455 98.2027 25.8855 97.8293 25.5655 97.552C25.2455 97.2747 24.8455 97.136 24.3655 97.136C23.9068 97.136 23.5175 97.2693 23.1975 97.536C22.8882 97.8027 22.6962 98.1813 22.6215 98.672H26.0455ZM34.7689 97.344H33.2969V104H30.5609V97.344H29.5689V95.072H30.5609V94.816C30.5609 93.7173 30.8755 92.8853 31.5049 92.32C32.1342 91.744 33.0569 91.456 34.2729 91.456C34.4755 91.456 34.6249 91.4613 34.7209 91.472V93.792C34.1982 93.76 33.8302 93.8347 33.6169 94.016C33.4035 94.1973 33.2969 94.5227 33.2969 94.992V95.072H34.7689V97.344ZM44.4705 99.392C44.4705 99.648 44.4545 99.9147 44.4225 100.192H38.2305C38.2732 100.747 38.4492 101.173 38.7585 101.472C39.0785 101.76 39.4678 101.904 39.9265 101.904C40.6092 101.904 41.0838 101.616 41.3505 101.04H44.2625C44.1132 101.627 43.8412 102.155 43.4465 102.624C43.0625 103.093 42.5772 103.461 41.9905 103.728C41.4038 103.995 40.7478 104.128 40.0225 104.128C39.1478 104.128 38.3692 103.941 37.6865 103.568C37.0038 103.195 36.4705 102.661 36.0865 101.968C35.7025 101.275 35.5105 100.464 35.5105 99.536C35.5105 98.608 35.6972 97.7973 36.0705 97.104C36.4545 96.4107 36.9878 95.8773 37.6705 95.504C38.3532 95.1307 39.1372 94.944 40.0225 94.944C40.8865 94.944 41.6545 95.1253 42.3265 95.488C42.9985 95.8507 43.5212 96.368 43.8945 97.04C44.2785 97.712 44.4705 98.496 44.4705 99.392ZM41.6705 98.672C41.6705 98.2027 41.5105 97.8293 41.1905 97.552C40.8705 97.2747 40.4705 97.136 39.9905 97.136C39.5318 97.136 39.1425 97.2693 38.8225 97.536C38.5132 97.8027 38.3212 98.1813 38.2465 98.672H41.6705ZM48.6499 96.56C48.9699 96.0693 49.3699 95.6853 49.8499 95.408C50.3299 95.12 50.8632 94.976 51.4499 94.976V97.872H50.6979C50.0152 97.872 49.5032 98.0213 49.1619 98.32C48.8205 98.608 48.6499 99.12 48.6499 99.856V104H45.9139V95.072H48.6499V96.56ZM54.0376 104.128C53.5576 104.128 53.163 103.989 52.8536 103.712C52.555 103.424 52.4056 103.072 52.4056 102.656C52.4056 102.229 52.555 101.872 52.8536 101.584C53.163 101.296 53.5576 101.152 54.0376 101.152C54.507 101.152 54.891 101.296 55.1896 101.584C55.499 101.872 55.6536 102.229 55.6536 102.656C55.6536 103.072 55.499 103.424 55.1896 103.712C54.891 103.989 54.507 104.128 54.0376 104.128ZM54.0376 97.616C53.5576 97.616 53.163 97.4773 52.8536 97.2C52.555 96.912 52.4056 96.56 52.4056 96.144C52.4056 95.7173 52.555 95.36 52.8536 95.072C53.163 94.784 53.5576 94.64 54.0376 94.64C54.507 94.64 54.891 94.784 55.1896 95.072C55.499 95.36 55.6536 95.7173 55.6536 96.144C55.6536 96.56 55.499 96.912 55.1896 97.2C54.891 97.4773 54.507 97.616 54.0376 97.616Z" fill="#E6D6FF"/>
<path d="M211.712 52.768V64H208.976V57.264L206.464 64H204.256L201.728 57.248V64H198.992V52.768H202.224L205.376 60.544L208.496 52.768H211.712ZM217.744 64.128C216.869 64.128 216.08 63.9413 215.376 63.568C214.682 63.1947 214.133 62.6613 213.728 61.968C213.333 61.2747 213.136 60.464 213.136 59.536C213.136 58.6187 213.338 57.8133 213.743 57.12C214.149 56.416 214.704 55.8773 215.408 55.504C216.112 55.1307 216.901 54.944 217.776 54.944C218.65 54.944 219.44 55.1307 220.144 55.504C220.848 55.8773 221.402 56.416 221.808 57.12C222.213 57.8133 222.416 58.6187 222.416 59.536C222.416 60.4533 222.208 61.264 221.792 61.968C221.386 62.6613 220.826 63.1947 220.112 63.568C219.408 63.9413 218.618 64.128 217.744 64.128ZM217.744 61.76C218.266 61.76 218.709 61.568 219.072 61.184C219.445 60.8 219.632 60.2507 219.632 59.536C219.632 58.8213 219.45 58.272 219.088 57.888C218.736 57.504 218.298 57.312 217.776 57.312C217.242 57.312 216.8 57.504 216.448 57.888C216.096 58.2613 215.92 58.8107 215.92 59.536C215.92 60.2507 216.09 60.8 216.432 61.184C216.784 61.568 217.221 61.76 217.744 61.76ZM223.323 59.52C223.323 58.6027 223.494 57.7973 223.835 57.104C224.187 56.4107 224.662 55.8773 225.259 55.504C225.856 55.1307 226.523 54.944 227.259 54.944C227.846 54.944 228.379 55.0667 228.859 55.312C229.35 55.5573 229.734 55.888 230.011 56.304V52.16H232.747V64H230.011V62.72C229.755 63.1467 229.387 63.488 228.907 63.744C228.438 64 227.888 64.128 227.259 64.128C226.523 64.128 225.856 63.9413 225.259 63.568C224.662 63.184 224.187 62.6453 223.835 61.952C223.494 61.248 223.323 60.4373 223.323 59.52ZM230.011 59.536C230.011 58.8533 229.819 58.3147 229.435 57.92C229.062 57.5253 228.603 57.328 228.059 57.328C227.515 57.328 227.051 57.5253 226.667 57.92C226.294 58.304 226.107 58.8373 226.107 59.52C226.107 60.2027 226.294 60.7467 226.667 61.152C227.051 61.5467 227.515 61.744 228.059 61.744C228.603 61.744 229.062 61.5467 229.435 61.152C229.819 60.7573 230.011 60.2187 230.011 59.536ZM243.142 59.392C243.142 59.648 243.126 59.9147 243.094 60.192H236.902C236.945 60.7467 237.121 61.1733 237.43 61.472C237.75 61.76 238.14 61.904 238.598 61.904C239.281 61.904 239.756 61.616 240.022 61.04H242.934C242.785 61.6267 242.513 62.1547 242.118 62.624C241.734 63.0933 241.249 63.4613 240.662 63.728C240.076 63.9947 239.42 64.128 238.694 64.128C237.82 64.128 237.041 63.9413 236.358 63.568C235.676 63.1947 235.142 62.6613 234.758 61.968C234.374 61.2747 234.182 60.464 234.182 59.536C234.182 58.608 234.369 57.7973 234.742 57.104C235.126 56.4107 235.66 55.8773 236.342 55.504C237.025 55.1307 237.809 54.944 238.694 54.944C239.558 54.944 240.326 55.1253 240.998 55.488C241.67 55.8507 242.193 56.368 242.566 57.04C242.95 57.712 243.142 58.496 243.142 59.392ZM240.342 58.672C240.342 58.2027 240.182 57.8293 239.862 57.552C239.542 57.2747 239.142 57.136 238.662 57.136C238.204 57.136 237.814 57.2693 237.494 57.536C237.185 57.8027 236.993 58.1813 236.918 58.672H240.342ZM247.322 52.16V64H244.586V52.16H247.322ZM250.585 64.128C250.105 64.128 249.71 63.9893 249.401 63.712C249.102 63.424 248.953 63.072 248.953 62.656C248.953 62.2293 249.102 61.872 249.401 61.584C249.71 61.296 250.105 61.152 250.585 61.152C251.054 61.152 251.438 61.296 251.737 61.584C252.046 61.872 252.201 62.2293 252.201 62.656C252.201 63.072 252.046 63.424 251.737 63.712C251.438 63.9893 251.054 64.128 250.585 64.128ZM250.585 57.616C250.105 57.616 249.71 57.4773 249.401 57.2C249.102 56.912 248.953 56.56 248.953 56.144C248.953 55.7173 249.102 55.36 249.401 55.072C249.71 54.784 250.105 54.64 250.585 54.64C251.054 54.64 251.438 54.784 251.737 55.072C252.046 55.36 252.201 55.7173 252.201 56.144C252.201 56.56 252.046 56.912 251.737 57.2C251.438 57.4773 251.054 57.616 250.585 57.616Z" fill="#E6D6FF"/>
<path d="M198.528 98.368C198.528 97.2587 198.768 96.272 199.248 95.408C199.728 94.5333 200.395 93.856 201.248 93.376C202.112 92.8853 203.088 92.64 204.176 92.64C205.509 92.64 206.651 92.992 207.6 93.696C208.549 94.4 209.184 95.36 209.504 96.576H206.496C206.272 96.1067 205.952 95.7493 205.536 95.504C205.131 95.2587 204.667 95.136 204.144 95.136C203.301 95.136 202.619 95.4293 202.096 96.016C201.573 96.6027 201.312 97.3867 201.312 98.368C201.312 99.3493 201.573 100.133 202.096 100.72C202.619 101.307 203.301 101.6 204.144 101.6C204.667 101.6 205.131 101.477 205.536 101.232C205.952 100.987 206.272 100.629 206.496 100.16H209.504C209.184 101.376 208.549 102.336 207.6 103.04C206.651 103.733 205.509 104.08 204.176 104.08C203.088 104.08 202.112 103.84 201.248 103.36C200.395 102.869 199.728 102.192 199.248 101.328C198.768 100.464 198.528 99.4773 198.528 98.368ZM215.244 104.128C214.369 104.128 213.58 103.941 212.876 103.568C212.182 103.195 211.633 102.661 211.228 101.968C210.833 101.275 210.636 100.464 210.636 99.536C210.636 98.6187 210.838 97.8133 211.243 97.12C211.649 96.416 212.204 95.8773 212.908 95.504C213.612 95.1307 214.401 94.944 215.276 94.944C216.15 94.944 216.94 95.1307 217.644 95.504C218.348 95.8773 218.902 96.416 219.308 97.12C219.713 97.8133 219.916 98.6187 219.916 99.536C219.916 100.453 219.708 101.264 219.292 101.968C218.886 102.661 218.326 103.195 217.612 103.568C216.908 103.941 216.118 104.128 215.244 104.128ZM215.244 101.76C215.766 101.76 216.209 101.568 216.572 101.184C216.945 100.8 217.132 100.251 217.132 99.536C217.132 98.8213 216.95 98.272 216.588 97.888C216.236 97.504 215.798 97.312 215.276 97.312C214.742 97.312 214.3 97.504 213.948 97.888C213.596 98.2613 213.42 98.8107 213.42 99.536C213.42 100.251 213.59 100.8 213.932 101.184C214.284 101.568 214.721 101.76 215.244 101.76ZM224.103 92.16V104H221.367V92.16H224.103ZM230.15 104.128C229.275 104.128 228.486 103.941 227.782 103.568C227.088 103.195 226.539 102.661 226.134 101.968C225.739 101.275 225.542 100.464 225.542 99.536C225.542 98.6187 225.744 97.8133 226.15 97.12C226.555 96.416 227.11 95.8773 227.814 95.504C228.518 95.1307 229.307 94.944 230.182 94.944C231.056 94.944 231.846 95.1307 232.55 95.504C233.254 95.8773 233.808 96.416 234.214 97.12C234.619 97.8133 234.822 98.6187 234.822 99.536C234.822 100.453 234.614 101.264 234.198 101.968C233.792 102.661 233.232 103.195 232.518 103.568C231.814 103.941 231.024 104.128 230.15 104.128ZM230.15 101.76C230.672 101.76 231.115 101.568 231.478 101.184C231.851 100.8 232.038 100.251 232.038 99.536C232.038 98.8213 231.856 98.272 231.494 97.888C231.142 97.504 230.704 97.312 230.182 97.312C229.648 97.312 229.206 97.504 228.854 97.888C228.502 98.2613 228.326 98.8107 228.326 99.536C228.326 100.251 228.496 100.8 228.838 101.184C229.19 101.568 229.627 101.76 230.15 101.76ZM239.009 96.56C239.329 96.0693 239.729 95.6853 240.209 95.408C240.689 95.12 241.223 94.976 241.809 94.976V97.872H241.057C240.375 97.872 239.863 98.0213 239.521 98.32C239.18 98.608 239.009 99.12 239.009 99.856V104H236.273V95.072H239.009V96.56ZM244.397 104.128C243.917 104.128 243.522 103.989 243.213 103.712C242.914 103.424 242.765 103.072 242.765 102.656C242.765 102.229 242.914 101.872 243.213 101.584C243.522 101.296 243.917 101.152 244.397 101.152C244.866 101.152 245.25 101.296 245.549 101.584C245.858 101.872 246.013 102.229 246.013 102.656C246.013 103.072 245.858 103.424 245.549 103.712C245.25 103.989 244.866 104.128 244.397 104.128ZM244.397 97.616C243.917 97.616 243.522 97.4773 243.213 97.2C242.914 96.912 242.765 96.56 242.765 96.144C242.765 95.7173 242.914 95.36 243.213 95.072C243.522 94.784 243.917 94.64 244.397 94.64C244.866 94.64 245.25 94.784 245.549 95.072C245.858 95.36 246.013 95.7173 246.013 96.144C246.013 96.56 245.858 96.912 245.549 97.2C245.25 97.4773 244.866 97.616 244.397 97.616Z" fill="#E6D6FF"/>
<rect x="189" y="28" width="1" height="92" fill="#3B2859"/>
</svg>
