<svg width="713" height="160" viewBox="0 0 713 160" fill="none" xmlns="http://www.w3.org/2000/svg">
<path d="M0 40C0 17.9086 17.9086 0 40 0H47C69.0914 0 87 17.9086 87 40V160H0V40Z" fill="url(#paint0_linear_19_183)"/>
<path d="M234 82C234 59.9086 251.909 42 274 42H281C303.091 42 321 59.9086 321 82V159H234V82Z" fill="url(#paint1_linear_19_183)"/>
<path d="M226 117C226 104.297 236.297 94 249 94C261.703 94 272 104.297 272 117V159H226V117Z" fill="url(#paint2_linear_19_183)"/>
<path d="M53 99.5C53 78.237 70.237 61 91.5 61C112.763 61 130 78.237 130 99.5V159H53V99.5Z" fill="url(#paint3_linear_19_183)"/>
<path d="M407 58C407 44.1929 418.193 33 432 33C445.807 33 457 44.1929 457 58V144H407V58Z" fill="url(#paint4_linear_19_183)"/>
<path d="M443 71.5C443 57.4167 454.417 46 468.5 46C482.583 46 494 57.4167 494 71.5V144H443V71.5Z" fill="url(#paint5_linear_19_183)"/>
<path d="M476 99.5C476 85.4167 487.417 74 501.5 74C515.583 74 527 85.4167 527 99.5V144H476V99.5Z" fill="url(#paint6_linear_19_183)"/>
<path d="M605 70C605 47.9086 622.909 30 645 30H652C674.091 30 692 47.9086 692 70V147H605V70Z" fill="url(#paint7_linear_19_183)"/>
<path d="M582 118C582 105.297 592.297 95 605 95C617.703 95 628 105.297 628 118V160H582V118Z" fill="url(#paint8_linear_19_183)"/>
<path d="M667 87C667 74.2975 677.297 64 690 64C702.703 64 713 74.2975 713 87V144H667V87Z" fill="url(#paint9_linear_19_183)"/>
<defs>
<linearGradient id="paint0_linear_19_183" x1="43.5" y1="0" x2="43.5" y2="160" gradientUnits="userSpaceOnUse">
<stop stop-color="white" stop-opacity="0.5"/>
<stop offset="1" stop-color="#244A66" stop-opacity="0.1"/>
</linearGradient>
<linearGradient id="paint1_linear_19_183" x1="277.5" y1="42" x2="277.5" y2="159" gradientUnits="userSpaceOnUse">
<stop stop-color="white" stop-opacity="0.5"/>
<stop offset="1" stop-color="#244A66" stop-opacity="0.1"/>
</linearGradient>
<linearGradient id="paint2_linear_19_183" x1="249" y1="94" x2="249" y2="159" gradientUnits="userSpaceOnUse">
<stop stop-color="white" stop-opacity="0.5"/>
<stop offset="1" stop-color="#244A66" stop-opacity="0.1"/>
</linearGradient>
<linearGradient id="paint3_linear_19_183" x1="91.5" y1="61" x2="91.5" y2="159" gradientUnits="userSpaceOnUse">
<stop stop-color="white" stop-opacity="0.5"/>
<stop offset="1" stop-color="#244A66" stop-opacity="0.1"/>
</linearGradient>
<linearGradient id="paint4_linear_19_183" x1="432" y1="33" x2="432" y2="144" gradientUnits="userSpaceOnUse">
<stop stop-color="white" stop-opacity="0.5"/>
<stop offset="1" stop-color="#244A66" stop-opacity="0.1"/>
</linearGradient>
<linearGradient id="paint5_linear_19_183" x1="468.5" y1="46" x2="468.5" y2="144" gradientUnits="userSpaceOnUse">
<stop stop-color="white" stop-opacity="0.5"/>
<stop offset="1" stop-color="#244A66" stop-opacity="0.1"/>
</linearGradient>
<linearGradient id="paint6_linear_19_183" x1="501.5" y1="74" x2="501.5" y2="144" gradientUnits="userSpaceOnUse">
<stop stop-color="white" stop-opacity="0.5"/>
<stop offset="1" stop-color="#244A66" stop-opacity="0.1"/>
</linearGradient>
<linearGradient id="paint7_linear_19_183" x1="648.5" y1="30" x2="648.5" y2="147" gradientUnits="userSpaceOnUse">
<stop stop-color="white" stop-opacity="0.5"/>
<stop offset="1" stop-color="#244A66" stop-opacity="0.1"/>
</linearGradient>
<linearGradient id="paint8_linear_19_183" x1="605" y1="95" x2="605" y2="160" gradientUnits="userSpaceOnUse">
<stop stop-color="white" stop-opacity="0.5"/>
<stop offset="1" stop-color="#244A66" stop-opacity="0.1"/>
</linearGradient>
<linearGradient id="paint9_linear_19_183" x1="690" y1="64" x2="690" y2="144" gradientUnits="userSpaceOnUse">
<stop stop-color="white" stop-opacity="0.5"/>
<stop offset="1" stop-color="#244A66" stop-opacity="0.1"/>
</linearGradient>
</defs>
</svg>
