<svg width="760" height="53" viewBox="0 0 760 53" fill="none" xmlns="http://www.w3.org/2000/svg">
<rect y="23" width="380" height="30" fill="#0E2332"/>
<rect x="8" width="2" height="24" rx="1" fill="white" fill-opacity="0.5"/>
<rect x="8" width="2" height="24" rx="1" fill="white" fill-opacity="0.5"/>
<rect x="8" width="2" height="24" rx="1" fill="white" fill-opacity="0.5"/>
<rect x="28" y="9" width="2" height="15" rx="1" fill="white" fill-opacity="0.5"/>
<rect x="28" y="9" width="2" height="15" rx="1" fill="white" fill-opacity="0.5"/>
<rect x="28" y="9" width="2" height="15" rx="1" fill="white" fill-opacity="0.5"/>
<rect x="48" width="2" height="24" rx="1" fill="white" fill-opacity="0.5"/>
<rect x="48" width="2" height="24" rx="1" fill="white" fill-opacity="0.5"/>
<rect x="48" width="2" height="24" rx="1" fill="white" fill-opacity="0.5"/>
<rect x="68" y="8" width="2" height="16" rx="1" fill="white" fill-opacity="0.5"/>
<rect x="68" y="8" width="2" height="16" rx="1" fill="white" fill-opacity="0.5"/>
<rect x="68" y="8" width="2" height="16" rx="1" fill="white" fill-opacity="0.5"/>
<rect x="88" width="2" height="24" rx="1" fill="white" fill-opacity="0.5"/>
<rect x="88" width="2" height="24" rx="1" fill="white" fill-opacity="0.5"/>
<rect x="88" width="2" height="24" rx="1" fill="white" fill-opacity="0.5"/>
<rect x="108" y="8" width="2" height="16" rx="1" fill="white" fill-opacity="0.5"/>
<rect x="108" y="8" width="2" height="16" rx="1" fill="white" fill-opacity="0.5"/>
<rect x="108" y="8" width="2" height="16" rx="1" fill="white" fill-opacity="0.5"/>
<rect x="128" width="2" height="24" rx="1" fill="white" fill-opacity="0.5"/>
<rect x="128" width="2" height="24" rx="1" fill="white" fill-opacity="0.5"/>
<rect x="128" width="2" height="24" rx="1" fill="white" fill-opacity="0.5"/>
<rect x="148" y="8" width="2" height="16" rx="1" fill="white" fill-opacity="0.5"/>
<rect x="148" y="8" width="2" height="16" rx="1" fill="white" fill-opacity="0.5"/>
<rect x="148" y="8" width="2" height="16" rx="1" fill="white" fill-opacity="0.5"/>
<rect x="168" width="2" height="24" rx="1" fill="white" fill-opacity="0.5"/>
<rect x="168" width="2" height="24" rx="1" fill="white" fill-opacity="0.5"/>
<rect x="168" width="2" height="24" rx="1" fill="white" fill-opacity="0.5"/>
<rect x="188" y="8" width="2" height="16" rx="1" fill="white" fill-opacity="0.5"/>
<rect x="188" y="8" width="2" height="16" rx="1" fill="white" fill-opacity="0.5"/>
<rect x="188" y="8" width="2" height="16" rx="1" fill="white" fill-opacity="0.5"/>
<rect x="208" width="2" height="24" rx="1" fill="white" fill-opacity="0.5"/>
<rect x="208" width="2" height="24" rx="1" fill="white" fill-opacity="0.5"/>
<rect x="208" width="2" height="24" rx="1" fill="white" fill-opacity="0.5"/>
<rect x="228" y="8" width="2" height="16" rx="1" fill="white" fill-opacity="0.5"/>
<rect x="228" y="8" width="2" height="16" rx="1" fill="white" fill-opacity="0.5"/>
<rect x="228" y="8" width="2" height="16" rx="1" fill="white" fill-opacity="0.5"/>
<rect x="248" width="2" height="24" rx="1" fill="white" fill-opacity="0.5"/>
<rect x="248" width="2" height="24" rx="1" fill="white" fill-opacity="0.5"/>
<rect x="248" width="2" height="24" rx="1" fill="white" fill-opacity="0.5"/>
<rect x="268" y="8" width="2" height="16" rx="1" fill="white" fill-opacity="0.5"/>
<rect x="268" y="8" width="2" height="16" rx="1" fill="white" fill-opacity="0.5"/>
<rect x="268" y="8" width="2" height="16" rx="1" fill="white" fill-opacity="0.5"/>
<rect x="288" width="2" height="24" rx="1" fill="white" fill-opacity="0.5"/>
<rect x="288" width="2" height="24" rx="1" fill="white" fill-opacity="0.5"/>
<rect x="288" width="2" height="24" rx="1" fill="white" fill-opacity="0.5"/>
<rect x="308" y="8" width="2" height="16" rx="1" fill="white" fill-opacity="0.5"/>
<rect x="308" y="8" width="2" height="16" rx="1" fill="white" fill-opacity="0.5"/>
<rect x="308" y="8" width="2" height="16" rx="1" fill="white" fill-opacity="0.5"/>
<rect x="328" width="2" height="24" rx="1" fill="white" fill-opacity="0.5"/>
<rect x="328" width="2" height="24" rx="1" fill="white" fill-opacity="0.5"/>
<rect x="328" width="2" height="24" rx="1" fill="white" fill-opacity="0.5"/>
<rect x="368" width="2" height="24" rx="1" fill="white" fill-opacity="0.5"/>
<rect x="368" width="2" height="24" rx="1" fill="white" fill-opacity="0.5"/>
<rect x="368" width="2" height="24" rx="1" fill="white" fill-opacity="0.5"/>
<rect x="348" y="8" width="2" height="16" rx="1" fill="white" fill-opacity="0.5"/>
<rect x="348" y="8" width="2" height="16" rx="1" fill="white" fill-opacity="0.5"/>
<rect x="348" y="8" width="2" height="16" rx="1" fill="white" fill-opacity="0.5"/>
<rect y="16" width="380" height="2" fill="white" fill-opacity="0.5"/>
<rect y="8" width="380" height="2" fill="white" fill-opacity="0.5"/>
<rect x="380" y="23" width="380" height="30" fill="#0E2332"/>
<rect x="388" width="2" height="24" rx="1" fill="white" fill-opacity="0.5"/>
<rect x="388" width="2" height="24" rx="1" fill="white" fill-opacity="0.5"/>
<rect x="388" width="2" height="24" rx="1" fill="white" fill-opacity="0.5"/>
<rect x="408" y="9" width="2" height="15" rx="1" fill="white" fill-opacity="0.5"/>
<rect x="408" y="9" width="2" height="15" rx="1" fill="white" fill-opacity="0.5"/>
<rect x="408" y="9" width="2" height="15" rx="1" fill="white" fill-opacity="0.5"/>
<rect x="428" width="2" height="24" rx="1" fill="white" fill-opacity="0.5"/>
<rect x="428" width="2" height="24" rx="1" fill="white" fill-opacity="0.5"/>
<rect x="428" width="2" height="24" rx="1" fill="white" fill-opacity="0.5"/>
<rect x="448" y="8" width="2" height="16" rx="1" fill="white" fill-opacity="0.5"/>
<rect x="448" y="8" width="2" height="16" rx="1" fill="white" fill-opacity="0.5"/>
<rect x="448" y="8" width="2" height="16" rx="1" fill="white" fill-opacity="0.5"/>
<rect x="468" width="2" height="24" rx="1" fill="white" fill-opacity="0.5"/>
<rect x="468" width="2" height="24" rx="1" fill="white" fill-opacity="0.5"/>
<rect x="468" width="2" height="24" rx="1" fill="white" fill-opacity="0.5"/>
<rect x="488" y="8" width="2" height="16" rx="1" fill="white" fill-opacity="0.5"/>
<rect x="488" y="8" width="2" height="16" rx="1" fill="white" fill-opacity="0.5"/>
<rect x="488" y="8" width="2" height="16" rx="1" fill="white" fill-opacity="0.5"/>
<rect x="508" width="2" height="24" rx="1" fill="white" fill-opacity="0.5"/>
<rect x="508" width="2" height="24" rx="1" fill="white" fill-opacity="0.5"/>
<rect x="508" width="2" height="24" rx="1" fill="white" fill-opacity="0.5"/>
<rect x="528" y="8" width="2" height="16" rx="1" fill="white" fill-opacity="0.5"/>
<rect x="528" y="8" width="2" height="16" rx="1" fill="white" fill-opacity="0.5"/>
<rect x="528" y="8" width="2" height="16" rx="1" fill="white" fill-opacity="0.5"/>
<rect x="548" width="2" height="24" rx="1" fill="white" fill-opacity="0.5"/>
<rect x="548" width="2" height="24" rx="1" fill="white" fill-opacity="0.5"/>
<rect x="548" width="2" height="24" rx="1" fill="white" fill-opacity="0.5"/>
<rect x="568" y="8" width="2" height="16" rx="1" fill="white" fill-opacity="0.5"/>
<rect x="568" y="8" width="2" height="16" rx="1" fill="white" fill-opacity="0.5"/>
<rect x="568" y="8" width="2" height="16" rx="1" fill="white" fill-opacity="0.5"/>
<rect x="588" width="2" height="24" rx="1" fill="white" fill-opacity="0.5"/>
<rect x="588" width="2" height="24" rx="1" fill="white" fill-opacity="0.5"/>
<rect x="588" width="2" height="24" rx="1" fill="white" fill-opacity="0.5"/>
<rect x="608" y="8" width="2" height="16" rx="1" fill="white" fill-opacity="0.5"/>
<rect x="608" y="8" width="2" height="16" rx="1" fill="white" fill-opacity="0.5"/>
<rect x="608" y="8" width="2" height="16" rx="1" fill="white" fill-opacity="0.5"/>
<rect x="628" width="2" height="24" rx="1" fill="white" fill-opacity="0.5"/>
<rect x="628" width="2" height="24" rx="1" fill="white" fill-opacity="0.5"/>
<rect x="628" width="2" height="24" rx="1" fill="white" fill-opacity="0.5"/>
<rect x="648" y="8" width="2" height="16" rx="1" fill="white" fill-opacity="0.5"/>
<rect x="648" y="8" width="2" height="16" rx="1" fill="white" fill-opacity="0.5"/>
<rect x="648" y="8" width="2" height="16" rx="1" fill="white" fill-opacity="0.5"/>
<rect x="668" width="2" height="24" rx="1" fill="white" fill-opacity="0.5"/>
<rect x="668" width="2" height="24" rx="1" fill="white" fill-opacity="0.5"/>
<rect x="668" width="2" height="24" rx="1" fill="white" fill-opacity="0.5"/>
<rect x="688" y="8" width="2" height="16" rx="1" fill="white" fill-opacity="0.5"/>
<rect x="688" y="8" width="2" height="16" rx="1" fill="white" fill-opacity="0.5"/>
<rect x="688" y="8" width="2" height="16" rx="1" fill="white" fill-opacity="0.5"/>
<rect x="708" width="2" height="24" rx="1" fill="white" fill-opacity="0.5"/>
<rect x="708" width="2" height="24" rx="1" fill="white" fill-opacity="0.5"/>
<rect x="708" width="2" height="24" rx="1" fill="white" fill-opacity="0.5"/>
<rect x="748" width="2" height="24" rx="1" fill="white" fill-opacity="0.5"/>
<rect x="748" width="2" height="24" rx="1" fill="white" fill-opacity="0.5"/>
<rect x="748" width="2" height="24" rx="1" fill="white" fill-opacity="0.5"/>
<rect x="728" y="8" width="2" height="16" rx="1" fill="white" fill-opacity="0.5"/>
<rect x="728" y="8" width="2" height="16" rx="1" fill="white" fill-opacity="0.5"/>
<rect x="728" y="8" width="2" height="16" rx="1" fill="white" fill-opacity="0.5"/>
<rect x="380" y="16" width="380" height="2" fill="white" fill-opacity="0.5"/>
<rect x="380" y="8" width="380" height="2" fill="white" fill-opacity="0.5"/>
</svg>
