<svg width="760" height="260" viewBox="0 0 760 260" fill="none" xmlns="http://www.w3.org/2000/svg">
<rect width="380" height="260" fill="url(#paint0_linear_18_20)"/>
<path opacity="0.5" d="M39.9719 68.9741C36.8742 68.9703 33.8959 67.8511 31.6499 65.8469C29.4038 63.8426 28.0609 61.1058 27.8973 58.1996C27.7338 55.2934 28.7621 52.4388 30.7707 50.2232C32.7794 48.0077 35.6154 46.5997 38.6954 46.2891C37.7885 42.9477 38.3316 39.4047 40.2051 36.4396C42.0786 33.4744 45.1292 31.3299 48.6857 30.4778C52.2422 29.6258 56.0133 30.136 59.1693 31.8962C62.3254 33.6564 64.608 36.5225 65.5149 39.8638C67.63 39.5871 69.7831 39.7223 71.8403 40.2609C73.8975 40.7995 75.8147 41.73 77.4727 42.9945C79.1307 44.259 80.494 45.8306 81.4778 47.6113C82.4617 49.3921 83.045 51.344 83.1915 53.3457C83.3381 55.3473 83.0447 57.3559 82.3295 59.2464C81.6144 61.1369 80.4929 62.869 79.0348 64.3349C77.5767 65.8008 75.8131 66.9691 73.8538 67.7672C71.8945 68.5653 69.7813 68.9761 67.6458 68.9741H39.9719Z" fill="white"/>
<path opacity="0.5" fill-rule="evenodd" clip-rule="evenodd" d="M221.888 57.9158C221.39 56.4846 221.09 54.9873 221.004 53.4591C220.755 49.0378 222.32 44.695 225.375 41.3244C228.431 37.9538 232.746 35.8119 237.431 35.3392C236.052 30.2559 236.878 24.8658 239.728 20.3548C242.579 15.8438 247.219 12.5813 252.63 11.285C258.041 9.98878 263.778 10.765 268.579 13.4429C273.381 16.1207 276.853 20.4809 278.233 25.5643C281.451 25.1433 284.726 25.3489 287.856 26.1683C290.986 26.9877 293.902 28.4033 296.425 30.3271C298.947 32.2509 301.021 34.6417 302.518 37.3508C304.015 40.06 304.902 43.0295 305.125 46.0747C305.197 47.0619 305.199 48.0503 305.132 49.0334H327.34C333.641 49.0334 338.75 54.1418 338.75 60.4434C338.75 66.745 333.641 71.8534 327.34 71.8534H233.017C226.715 71.8534 221.607 66.745 221.607 60.4434C221.607 59.5748 221.704 58.7288 221.888 57.9158Z" fill="white"/>
<path d="M118 84.4581C120 83.6581 124.64 83.3381 127.2 88.4581" stroke="#666666"/>
<path d="M136 84.4581C134 83.6581 129.36 83.3381 126.8 88.4581" stroke="#666666"/>
<path d="M183 33.6667C184.667 33 188.533 32.7333 190.667 37" stroke="#666666"/>
<path d="M198 33.6667C196.333 33 192.467 32.7333 190.333 37" stroke="#666666"/>
<rect x="380" y="-1" width="380" height="260" fill="url(#paint1_linear_18_20)"/>
<path opacity="0.5" d="M666.091 75.8994C662.994 75.8956 660.015 74.7764 657.769 72.7722C655.523 70.768 654.18 68.0312 654.017 65.125C653.853 62.2187 654.882 59.3641 656.89 57.1486C658.899 54.9331 661.735 53.5251 664.815 53.2144C663.908 49.8731 664.451 46.3301 666.325 43.3649C668.198 40.3997 671.249 38.2552 674.805 37.4032C678.362 36.5512 682.133 37.0614 685.289 38.8216C688.445 40.5818 690.728 43.4478 691.634 46.7892C693.75 46.5125 695.903 46.6476 697.96 47.1862C700.017 47.7248 701.934 48.6553 703.592 49.9199C705.25 51.1844 706.614 52.7559 707.597 54.5367C708.581 56.3175 709.165 58.2694 709.311 60.271C709.458 62.2727 709.164 64.2812 708.449 66.1718C707.734 68.0623 706.612 69.7944 705.154 71.2603C703.696 72.7261 701.933 73.8945 699.973 74.6926C698.014 75.4907 695.901 75.9015 693.765 75.8994H666.091Z" fill="white"/>
<path opacity="0.5" fill-rule="evenodd" clip-rule="evenodd" d="M405.909 107.244C405.412 105.813 405.112 104.316 405.026 102.787C404.777 98.3661 406.341 94.0234 409.397 90.6528C412.453 87.2822 416.768 85.1402 421.453 84.6676C420.074 79.5843 420.9 74.1942 423.75 69.6832C426.6 65.1721 431.241 61.9096 436.652 60.6134C442.062 59.3172 447.799 60.0933 452.601 62.7712C457.402 65.4491 460.875 69.8093 462.255 74.8926C465.472 74.4717 468.748 74.6773 471.878 75.4967C475.007 76.316 477.924 77.7317 480.446 79.6554C482.969 81.5792 485.043 83.9701 486.54 86.6792C488.036 89.3883 488.924 92.3578 489.147 95.403C489.219 96.3903 489.221 97.3787 489.153 98.3617H511.361C517.663 98.3617 522.771 103.47 522.771 109.772C522.771 116.073 517.663 121.182 511.361 121.182H417.038C410.737 121.182 405.628 116.073 405.628 109.772C405.628 108.903 405.725 108.057 405.909 107.244Z" fill="white"/>
<path d="M529 65.4581C531 64.6581 535.64 64.3381 538.2 69.4581" stroke="#666666"/>
<path d="M547 65.4581C545 64.6581 540.36 64.3381 537.8 69.4581" stroke="#666666"/>
<path d="M646 100.382C647.667 99.7151 651.533 99.4484 653.667 103.715" stroke="#666666"/>
<path d="M661 100.382C659.333 99.7151 655.467 99.4484 653.333 103.715" stroke="#666666"/>
<defs>
<linearGradient id="paint0_linear_18_20" x1="190" y1="0" x2="190" y2="260" gradientUnits="userSpaceOnUse">
<stop stop-color="#56BDFF"/>
<stop offset="1" stop-color="white"/>
</linearGradient>
<linearGradient id="paint1_linear_18_20" x1="570" y1="-1" x2="570" y2="259" gradientUnits="userSpaceOnUse">
<stop stop-color="#56BDFF"/>
<stop offset="1" stop-color="white"/>
</linearGradient>
</defs>
</svg>
