<svg width="760" height="260" viewBox="0 0 760 260" fill="none" xmlns="http://www.w3.org/2000/svg">
<rect width="380" height="260" fill="url(#paint0_linear_19_158)"/>
<rect width="1.00426" height="1.00501" transform="matrix(0.681501 0.731817 -0.73804 0.674757 77.6965 26.0761)" fill="white" fill-opacity="0.6"/>
<rect width="3.1749" height="3.17724" transform="matrix(0.681501 0.731817 -0.73804 0.674757 109.603 26.0761)" fill="white" fill-opacity="0.6"/>
<rect width="1.0583" height="1.05908" transform="matrix(0.681501 0.731817 -0.73804 0.674757 88.3322 5)" fill="white" fill-opacity="0.6"/>
<rect width="1.0583" height="1.05908" transform="matrix(0.681501 0.731817 -0.73804 0.674757 88.3322 57.6902)" fill="white" fill-opacity="0.6"/>
<rect width="1.0583" height="1.05908" transform="matrix(0.681501 0.731817 -0.73804 0.674757 109.603 5)" fill="white" fill-opacity="0.6"/>
<rect width="1.0583" height="1.05908" transform="matrix(0.681501 0.731817 -0.73804 0.674757 56.4254 26.0761)" fill="white" fill-opacity="0.6"/>
<rect width="1.0583" height="1.05908" transform="matrix(0.681501 0.731817 -0.73804 0.674757 88.3322 99.8424)" fill="white" fill-opacity="0.6"/>
<rect width="1.0583" height="1.05908" transform="matrix(0.681501 0.731817 -0.73804 0.674757 35.1545 5)" fill="white" fill-opacity="0.6"/>
<rect width="1.0583" height="1.05908" transform="matrix(0.681501 0.731817 -0.73804 0.674757 35.1545 89.3044)" fill="white" fill-opacity="0.6"/>
<rect width="1.0583" height="1.05908" transform="matrix(0.681501 0.731817 -0.73804 0.674757 120.238 152.533)" fill="white" fill-opacity="0.6"/>
<rect width="1.0583" height="1.05908" transform="matrix(0.681501 0.731817 -0.73804 0.674757 173.416 26.0761)" fill="white" fill-opacity="0.6"/>
<rect width="1.0583" height="1.05908" transform="matrix(0.681501 0.731817 -0.73804 0.674757 130.874 47.1522)" fill="white" fill-opacity="0.6"/>
<rect width="1.0583" height="1.05908" transform="matrix(0.681501 0.731817 -0.73804 0.674757 226.594 15.538)" fill="white" fill-opacity="0.6"/>
<rect width="1.0583" height="1.05908" transform="matrix(0.681501 0.731817 -0.73804 0.674757 120.238 89.3044)" fill="white" fill-opacity="0.6"/>
<rect width="1.0583" height="1.05908" transform="matrix(0.681501 0.731817 -0.73804 0.674757 194.687 57.6902)" fill="white" fill-opacity="0.6"/>
<rect width="1.0583" height="1.05908" transform="matrix(0.681501 0.731817 -0.73804 0.674757 173.416 120.919)" fill="white" fill-opacity="0.6"/>
<rect width="1.0583" height="1.05908" transform="matrix(0.681501 0.731817 -0.73804 0.674757 279.771 5)" fill="white" fill-opacity="0.6"/>
<rect width="1.0583" height="1.05908" transform="matrix(0.681501 0.731817 -0.73804 0.674757 215.958 89.3044)" fill="white" fill-opacity="0.6"/>
<rect width="1.0583" height="1.05908" transform="matrix(0.681501 0.731817 -0.73804 0.674757 247.865 47.1522)" fill="white" fill-opacity="0.6"/>
<rect width="1.0583" height="1.05908" transform="matrix(0.681501 0.731817 -0.73804 0.674757 109.603 110.38)" fill="white" fill-opacity="0.6"/>
<rect width="1.0583" height="1.05908" transform="matrix(0.681501 0.731817 -0.73804 0.674757 173.416 5)" fill="white" fill-opacity="0.6"/>
<rect width="1.0583" height="1.05908" transform="matrix(0.681501 0.731817 -0.73804 0.674757 56.4254 57.6902)" fill="white" fill-opacity="0.6"/>
<rect width="1.0583" height="1.05908" transform="matrix(0.681501 0.731817 -0.73804 0.674757 13.883 47.1522)" fill="white" fill-opacity="0.6"/>
<rect width="1.0583" height="1.05908" transform="matrix(0.681501 0.731817 -0.73804 0.674757 13.883 110.38)" fill="white" fill-opacity="0.6"/>
<rect width="1.0583" height="1.05908" transform="matrix(0.681501 0.731817 -0.73804 0.674757 279.771 26.0761)" fill="white" fill-opacity="0.6"/>
<rect width="1.0583" height="1.05908" transform="matrix(0.681501 0.731817 -0.73804 0.674757 141.509 68.2283)" fill="white" fill-opacity="0.6"/>
<rect width="1.0583" height="1.05908" transform="matrix(0.681501 0.731817 -0.73804 0.674757 184.051 141.995)" fill="white" fill-opacity="0.6"/>
<rect width="1.0583" height="1.05908" transform="matrix(0.681501 0.731817 -0.73804 0.674757 130.874 26.0761)" fill="white" fill-opacity="0.6"/>
<rect width="1.0583" height="1.05908" transform="matrix(0.681501 0.731817 -0.73804 0.674757 88.3322 78.7664)" fill="white" fill-opacity="0.6"/>
<rect width="1.0583" height="1.05908" transform="matrix(0.681501 0.731817 -0.73804 0.674757 247.865 141.995)" fill="white" fill-opacity="0.6"/>
<rect width="1.0583" height="1.05908" transform="matrix(0.681501 0.731817 -0.73804 0.674757 194.687 110.38)" fill="white" fill-opacity="0.6"/>
<rect width="3.1749" height="3.17724" transform="matrix(0.681501 0.731817 -0.73804 0.674757 109.603 68.2283)" fill="white" fill-opacity="0.6"/>
<rect width="1.00426" height="1.00501" transform="matrix(0.681501 0.731817 -0.73804 0.674757 67.0606 78.7664)" fill="white" fill-opacity="0.6"/>
<rect width="1.00426" height="1.00501" transform="matrix(0.681501 0.731817 -0.73804 0.674757 184.051 89.3044)" fill="white" fill-opacity="0.6"/>
<rect width="3.1749" height="3.17724" transform="matrix(0.681501 0.731817 -0.73804 0.674757 215.958 47.1522)" fill="white" fill-opacity="0.6"/>
<rect width="3.1749" height="3.17724" transform="matrix(0.681501 0.731817 -0.73804 0.674757 247.865 15.538)" fill="white" fill-opacity="0.6"/>
<rect width="1.00426" height="1.00501" transform="matrix(0.681501 0.731817 -0.73804 0.674757 279.771 47.1522)" fill="white" fill-opacity="0.6"/>
<rect width="3.1749" height="3.17724" transform="matrix(0.681501 0.731817 -0.73804 0.674757 247.865 120.919)" fill="white" fill-opacity="0.6"/>
<rect width="3.1749" height="3.17724" transform="matrix(0.681501 0.731817 -0.73804 0.674757 152.145 89.3044)" fill="white" fill-opacity="0.6"/>
<rect width="1.00426" height="1.00501" transform="matrix(0.681501 0.731817 -0.73804 0.674757 301.042 131.457)" fill="white" fill-opacity="0.6"/>
<rect width="1.00426" height="1.00501" transform="matrix(0.681501 0.731817 -0.73804 0.674757 194.687 15.538)" fill="white" fill-opacity="0.6"/>
<rect width="3.1749" height="3.17724" transform="matrix(0.681501 0.731817 -0.73804 0.674757 35.1545 47.1522)" fill="white" fill-opacity="0.6"/>
<rect width="1.00426" height="1.00501" transform="matrix(0.681501 0.731817 -0.73804 0.674757 24.5189 15.538)" fill="white" fill-opacity="0.6"/>
<rect width="3.1749" height="3.17724" transform="matrix(0.681501 0.731817 -0.73804 0.674757 364.855 131.457)" fill="white" fill-opacity="0.6"/>
<rect width="1.00426" height="1.00501" transform="matrix(0.681501 0.731817 -0.73804 0.674757 312.764 78.7664)" fill="white" fill-opacity="0.6"/>
<rect width="3.1749" height="3.17724" transform="matrix(0.681501 0.731817 -0.73804 0.674757 311.678 26.0761)" fill="white" fill-opacity="0.6"/>
<rect width="3.1749" height="3.17724" transform="matrix(0.681501 0.731817 -0.73804 0.674757 364.855 57.6902)" fill="white" fill-opacity="0.6"/>
<rect width="1.00426" height="1.00501" transform="matrix(0.681501 0.731817 -0.73804 0.674757 364.545 89)" fill="white" fill-opacity="0.6"/>
<rect width="1.00464" height="1.00464" transform="matrix(0.710354 0.703844 -0.710354 0.703844 247.714 78.7633)" fill="white" fill-opacity="0.6"/>
<rect width="1.00464" height="1.00464" transform="matrix(0.710354 0.703844 -0.710354 0.703844 130.723 120.916)" fill="white" fill-opacity="0.6"/>
<rect width="1.00464" height="1.00464" transform="matrix(0.710354 0.703844 -0.710354 0.703844 13.7326 78.7633)" fill="white" fill-opacity="0.6"/>
<rect width="1.00464" height="1.00464" transform="matrix(0.710354 0.703844 -0.710354 0.703844 162.63 47.1492)" fill="white" fill-opacity="0.6"/>
<rect width="1.00464" height="1.00464" transform="matrix(0.710354 0.703844 -0.710354 0.703844 343.433 15.535)" fill="white" fill-opacity="0.6"/>
<rect width="1.00464" height="1.00464" transform="matrix(0.710354 0.703844 -0.710354 0.703844 343.433 120.916)" fill="white" fill-opacity="0.6"/>
<rect x="380" y="-1" width="380" height="260" fill="url(#paint1_linear_19_158)"/>
<rect width="1.00426" height="1.00501" transform="matrix(0.681501 0.731817 -0.73804 0.674757 464.697 25.0761)" fill="white" fill-opacity="0.6"/>
<rect width="3.1749" height="3.17724" transform="matrix(0.681501 0.731817 -0.73804 0.674757 496.603 25.0761)" fill="white" fill-opacity="0.6"/>
<rect width="1.0583" height="1.05908" transform="matrix(0.681501 0.731817 -0.73804 0.674757 475.332 4)" fill="white" fill-opacity="0.6"/>
<rect width="1.0583" height="1.05908" transform="matrix(0.681501 0.731817 -0.73804 0.674757 475.332 56.6902)" fill="white" fill-opacity="0.6"/>
<rect width="1.0583" height="1.05908" transform="matrix(0.681501 0.731817 -0.73804 0.674757 496.603 4)" fill="white" fill-opacity="0.6"/>
<rect width="1.0583" height="1.05908" transform="matrix(0.681501 0.731817 -0.73804 0.674757 443.425 25.0761)" fill="white" fill-opacity="0.6"/>
<rect width="1.0583" height="1.05908" transform="matrix(0.681501 0.731817 -0.73804 0.674757 475.332 98.8424)" fill="white" fill-opacity="0.6"/>
<rect width="1.0583" height="1.05908" transform="matrix(0.681501 0.731817 -0.73804 0.674757 422.155 4)" fill="white" fill-opacity="0.6"/>
<rect width="1.0583" height="1.05908" transform="matrix(0.681501 0.731817 -0.73804 0.674757 422.155 88.3044)" fill="white" fill-opacity="0.6"/>
<rect width="1.0583" height="1.05908" transform="matrix(0.681501 0.731817 -0.73804 0.674757 507.238 151.533)" fill="white" fill-opacity="0.6"/>
<rect width="1.0583" height="1.05908" transform="matrix(0.681501 0.731817 -0.73804 0.674757 560.416 25.0761)" fill="white" fill-opacity="0.6"/>
<rect width="1.0583" height="1.05908" transform="matrix(0.681501 0.731817 -0.73804 0.674757 517.874 46.1522)" fill="white" fill-opacity="0.6"/>
<rect width="1.0583" height="1.05908" transform="matrix(0.681501 0.731817 -0.73804 0.674757 613.594 14.538)" fill="white" fill-opacity="0.6"/>
<rect width="1.0583" height="1.05908" transform="matrix(0.681501 0.731817 -0.73804 0.674757 507.238 88.3044)" fill="white" fill-opacity="0.6"/>
<rect width="1.0583" height="1.05908" transform="matrix(0.681501 0.731817 -0.73804 0.674757 581.687 56.6902)" fill="white" fill-opacity="0.6"/>
<rect width="1.0583" height="1.05908" transform="matrix(0.681501 0.731817 -0.73804 0.674757 560.416 119.919)" fill="white" fill-opacity="0.6"/>
<rect width="1.0583" height="1.05908" transform="matrix(0.681501 0.731817 -0.73804 0.674757 666.771 4)" fill="white" fill-opacity="0.6"/>
<rect width="1.0583" height="1.05908" transform="matrix(0.681501 0.731817 -0.73804 0.674757 602.958 88.3044)" fill="white" fill-opacity="0.6"/>
<rect width="1.0583" height="1.05908" transform="matrix(0.681501 0.731817 -0.73804 0.674757 634.865 46.1522)" fill="white" fill-opacity="0.6"/>
<rect width="1.0583" height="1.05908" transform="matrix(0.681501 0.731817 -0.73804 0.674757 496.603 109.38)" fill="white" fill-opacity="0.6"/>
<rect width="1.0583" height="1.05908" transform="matrix(0.681501 0.731817 -0.73804 0.674757 560.416 4)" fill="white" fill-opacity="0.6"/>
<rect width="1.0583" height="1.05908" transform="matrix(0.681501 0.731817 -0.73804 0.674757 443.425 56.6902)" fill="white" fill-opacity="0.6"/>
<rect width="1.0583" height="1.05908" transform="matrix(0.681501 0.731817 -0.73804 0.674757 400.883 46.1522)" fill="white" fill-opacity="0.6"/>
<rect width="1.0583" height="1.05908" transform="matrix(0.681501 0.731817 -0.73804 0.674757 400.883 109.38)" fill="white" fill-opacity="0.6"/>
<rect width="1.0583" height="1.05908" transform="matrix(0.681501 0.731817 -0.73804 0.674757 666.771 25.0761)" fill="white" fill-opacity="0.6"/>
<rect width="1.0583" height="1.05908" transform="matrix(0.681501 0.731817 -0.73804 0.674757 528.509 67.2283)" fill="white" fill-opacity="0.6"/>
<rect width="1.0583" height="1.05908" transform="matrix(0.681501 0.731817 -0.73804 0.674757 571.051 140.995)" fill="white" fill-opacity="0.6"/>
<rect width="1.0583" height="1.05908" transform="matrix(0.681501 0.731817 -0.73804 0.674757 517.874 25.0761)" fill="white" fill-opacity="0.6"/>
<rect width="1.0583" height="1.05908" transform="matrix(0.681501 0.731817 -0.73804 0.674757 475.332 77.7664)" fill="white" fill-opacity="0.6"/>
<rect width="1.0583" height="1.05908" transform="matrix(0.681501 0.731817 -0.73804 0.674757 634.865 140.995)" fill="white" fill-opacity="0.6"/>
<rect width="1.0583" height="1.05908" transform="matrix(0.681501 0.731817 -0.73804 0.674757 581.687 109.38)" fill="white" fill-opacity="0.6"/>
<rect width="3.1749" height="3.17724" transform="matrix(0.681501 0.731817 -0.73804 0.674757 496.603 67.2283)" fill="white" fill-opacity="0.6"/>
<rect width="1.00426" height="1.00501" transform="matrix(0.681501 0.731817 -0.73804 0.674757 454.061 77.7664)" fill="white" fill-opacity="0.6"/>
<rect width="1.00426" height="1.00501" transform="matrix(0.681501 0.731817 -0.73804 0.674757 571.051 88.3044)" fill="white" fill-opacity="0.6"/>
<rect width="3.1749" height="3.17724" transform="matrix(0.681501 0.731817 -0.73804 0.674757 602.958 46.1522)" fill="white" fill-opacity="0.6"/>
<rect width="3.1749" height="3.17724" transform="matrix(0.681501 0.731817 -0.73804 0.674757 634.865 14.538)" fill="white" fill-opacity="0.6"/>
<rect width="1.00426" height="1.00501" transform="matrix(0.681501 0.731817 -0.73804 0.674757 666.771 46.1522)" fill="white" fill-opacity="0.6"/>
<rect width="3.1749" height="3.17724" transform="matrix(0.681501 0.731817 -0.73804 0.674757 634.865 119.919)" fill="white" fill-opacity="0.6"/>
<rect width="3.1749" height="3.17724" transform="matrix(0.681501 0.731817 -0.73804 0.674757 539.145 88.3044)" fill="white" fill-opacity="0.6"/>
<rect width="1.00426" height="1.00501" transform="matrix(0.681501 0.731817 -0.73804 0.674757 688.042 130.457)" fill="white" fill-opacity="0.6"/>
<rect width="1.00426" height="1.00501" transform="matrix(0.681501 0.731817 -0.73804 0.674757 581.687 14.538)" fill="white" fill-opacity="0.6"/>
<rect width="3.1749" height="3.17724" transform="matrix(0.681501 0.731817 -0.73804 0.674757 422.155 46.1522)" fill="white" fill-opacity="0.6"/>
<rect width="1.00426" height="1.00501" transform="matrix(0.681501 0.731817 -0.73804 0.674757 411.519 14.538)" fill="white" fill-opacity="0.6"/>
<rect width="3.1749" height="3.17724" transform="matrix(0.681501 0.731817 -0.73804 0.674757 751.855 130.457)" fill="white" fill-opacity="0.6"/>
<rect width="1.00426" height="1.00501" transform="matrix(0.681501 0.731817 -0.73804 0.674757 699.764 77.7664)" fill="white" fill-opacity="0.6"/>
<rect width="3.1749" height="3.17724" transform="matrix(0.681501 0.731817 -0.73804 0.674757 698.678 25.0761)" fill="white" fill-opacity="0.6"/>
<rect width="3.1749" height="3.17724" transform="matrix(0.681501 0.731817 -0.73804 0.674757 751.855 56.6902)" fill="white" fill-opacity="0.6"/>
<rect width="1.00426" height="1.00501" transform="matrix(0.681501 0.731817 -0.73804 0.674757 751.545 88)" fill="white" fill-opacity="0.6"/>
<rect width="1.00464" height="1.00464" transform="matrix(0.710354 0.703844 -0.710354 0.703844 634.714 77.7633)" fill="white" fill-opacity="0.6"/>
<rect width="1.00464" height="1.00464" transform="matrix(0.710354 0.703844 -0.710354 0.703844 517.723 119.916)" fill="white" fill-opacity="0.6"/>
<rect width="1.00464" height="1.00464" transform="matrix(0.710354 0.703844 -0.710354 0.703844 400.733 77.7633)" fill="white" fill-opacity="0.6"/>
<rect width="1.00464" height="1.00464" transform="matrix(0.710354 0.703844 -0.710354 0.703844 549.63 46.1492)" fill="white" fill-opacity="0.6"/>
<rect width="1.00464" height="1.00464" transform="matrix(0.710354 0.703844 -0.710354 0.703844 730.433 14.535)" fill="white" fill-opacity="0.6"/>
<rect width="1.00464" height="1.00464" transform="matrix(0.710354 0.703844 -0.710354 0.703844 730.433 119.916)" fill="white" fill-opacity="0.6"/>
<defs>
<linearGradient id="paint0_linear_19_158" x1="190" y1="0" x2="190" y2="260" gradientUnits="userSpaceOnUse">
<stop stop-color="#010326"/>
<stop offset="1" stop-color="#37729D"/>
</linearGradient>
<linearGradient id="paint1_linear_19_158" x1="570" y1="-1" x2="570" y2="259" gradientUnits="userSpaceOnUse">
<stop stop-color="#010326"/>
<stop offset="1" stop-color="#37729D"/>
</linearGradient>
</defs>
</svg>
