<svg width="44" height="44" viewBox="0 0 44 44" fill="none" xmlns="http://www.w3.org/2000/svg">
<circle cx="22" cy="22" r="22" transform="matrix(-1 0 0 1 44 0)" fill="white"/>
<rect x="3.5" y="3.5" width="37" height="37" rx="18.5" stroke="#714EAA" stroke-width="3"/>
<path d="M31.6681 23.6418C31.5228 23.4962 31.3406 23.3929 31.1411 23.343C30.9415 23.2931 30.7322 23.2985 30.5354 23.3586C29.1613 23.7735 27.7003 23.8078 26.3082 23.458C24.9161 23.1081 23.6449 22.3872 22.6301 21.372C21.6153 20.3569 20.8949 19.0854 20.5456 17.6932C20.1963 16.3009 20.2312 14.84 20.6465 13.466C20.7071 13.2692 20.7129 13.0596 20.6633 12.8597C20.6137 12.6599 20.5106 12.4773 20.365 12.3317C20.2194 12.1861 20.0368 12.083 19.837 12.0334C19.6371 11.9838 19.4275 11.9896 19.2307 12.0502C17.1641 12.6854 15.3504 13.9563 14.048 15.6822C12.909 17.196 12.2144 18.9973 12.0422 20.8839C11.87 22.7706 12.2269 24.6679 13.0729 26.3629C13.9189 28.058 15.2206 29.4838 16.8318 30.4803C18.443 31.4768 20.3 32.0046 22.1945 32.0044C24.4063 32.0109 26.5592 31.2917 28.323 29.9572C30.0479 28.6535 31.3176 26.8388 31.9512 24.7716C32.0108 24.5753 32.0159 24.3665 31.966 24.1675C31.9161 23.9685 31.8132 23.7868 31.6681 23.6418ZM26.9601 28.1478C25.4334 29.2971 23.5429 29.8564 21.6367 29.7226C19.7304 29.5889 17.9366 28.7711 16.5853 27.4199C15.2341 26.0686 14.4163 24.2748 14.2826 22.3685C14.1488 20.4622 14.708 18.5718 15.8574 17.0451C16.4621 16.2451 17.2116 15.5657 18.067 15.0422C18.05 15.2838 18.0415 15.5264 18.0415 15.7699C18.0445 18.4726 19.1194 21.0637 21.0305 22.9747C22.9415 24.8858 25.5326 25.9607 28.2352 25.9637C28.4788 25.9637 28.7213 25.9552 28.963 25.9382C28.4397 26.7937 27.7602 27.5433 26.9601 28.1478Z" fill="#714EAA"/>
</svg>
