<svg width="60" height="50" viewBox="0 0 60 50" fill="none" xmlns="http://www.w3.org/2000/svg">
<rect width="60" height="50" rx="5" fill="white" fill-opacity="0.8"/>
<path d="M31.25 15.25L35 19L31.25 15.25ZM35 19L31.25 22.75L35 19ZM35 19H25H35ZM41.25 19C41.25 20.4774 40.959 21.9403 40.3936 23.3052C39.8283 24.6701 38.9996 25.9103 37.955 26.955C36.9103 27.9996 35.6701 28.8283 34.3052 29.3936C32.9403 29.959 31.4774 30.25 30 30.25C28.5226 30.25 27.0597 29.959 25.6948 29.3936C24.3299 28.8283 23.0897 27.9996 22.045 26.955C21.0004 25.9103 20.1717 24.6701 19.6064 23.3052C19.041 21.9403 18.75 20.4774 18.75 19C18.75 16.0163 19.9353 13.1548 22.045 11.045C24.1548 8.93526 27.0163 7.75 30 7.75C32.9837 7.75 35.8452 8.93526 37.955 11.045C40.0647 13.1548 41.25 16.0163 41.25 19Z" stroke="#3B2859" stroke-width="2" stroke-linecap="round" stroke-linejoin="round"/>
<path d="M11 37.02V38.15H8.09V39.94H10.32V41.05H8.09V44H6.69V37.02H11ZM14.4527 44.09C13.9194 44.09 13.4394 43.9733 13.0127 43.74C12.5861 43.5 12.2494 43.1633 12.0027 42.73C11.7627 42.2967 11.6427 41.7967 11.6427 41.23C11.6427 40.6633 11.7661 40.1633 12.0127 39.73C12.2661 39.2967 12.6094 38.9633 13.0427 38.73C13.4761 38.49 13.9594 38.37 14.4927 38.37C15.0261 38.37 15.5094 38.49 15.9427 38.73C16.3761 38.9633 16.7161 39.2967 16.9627 39.73C17.2161 40.1633 17.3427 40.6633 17.3427 41.23C17.3427 41.7967 17.2127 42.2967 16.9527 42.73C16.6994 43.1633 16.3527 43.5 15.9127 43.74C15.4794 43.9733 14.9927 44.09 14.4527 44.09ZM14.4527 42.87C14.7061 42.87 14.9427 42.81 15.1627 42.69C15.3894 42.5633 15.5694 42.3767 15.7027 42.13C15.8361 41.8833 15.9027 41.5833 15.9027 41.23C15.9027 40.7033 15.7627 40.3 15.4827 40.02C15.2094 39.7333 14.8727 39.59 14.4727 39.59C14.0727 39.59 13.7361 39.7333 13.4627 40.02C13.1961 40.3 13.0627 40.7033 13.0627 41.23C13.0627 41.7567 13.1927 42.1633 13.4527 42.45C13.7194 42.73 14.0527 42.87 14.4527 42.87ZM19.7697 39.32C19.9497 39.0267 20.183 38.7967 20.4697 38.63C20.763 38.4633 21.0964 38.38 21.4697 38.38V39.85H21.0997C20.6597 39.85 20.3264 39.9533 20.0997 40.16C19.8797 40.3667 19.7697 40.7267 19.7697 41.24V44H18.3697V38.46H19.7697V39.32ZM22.0527 41.21C22.0527 40.65 22.1627 40.1533 22.3827 39.72C22.6093 39.2867 22.916 38.9533 23.3027 38.72C23.6893 38.4867 24.1193 38.37 24.5927 38.37C24.9527 38.37 25.296 38.45 25.6227 38.61C25.9493 38.7633 26.2093 38.97 26.4027 39.23V36.6H27.8227V44H26.4027V43.18C26.2293 43.4533 25.986 43.6733 25.6727 43.84C25.3593 44.0067 24.996 44.09 24.5827 44.09C24.116 44.09 23.6893 43.97 23.3027 43.73C22.916 43.49 22.6093 43.1533 22.3827 42.72C22.1627 42.28 22.0527 41.7767 22.0527 41.21ZM26.4127 41.23C26.4127 40.89 26.346 40.6 26.2127 40.36C26.0793 40.1133 25.8993 39.9267 25.6727 39.8C25.446 39.6667 25.2027 39.6 24.9427 39.6C24.6827 39.6 24.4427 39.6633 24.2227 39.79C24.0027 39.9167 23.8227 40.1033 23.6827 40.35C23.5493 40.59 23.4827 40.8767 23.4827 41.21C23.4827 41.5433 23.5493 41.8367 23.6827 42.09C23.8227 42.3367 24.0027 42.5267 24.2227 42.66C24.4493 42.7933 24.6893 42.86 24.9427 42.86C25.2027 42.86 25.446 42.7967 25.6727 42.67C25.8993 42.5367 26.0793 42.35 26.2127 42.11C26.346 41.8633 26.4127 41.57 26.4127 41.23ZM36.87 38.46L35.25 44H33.74L32.73 40.13L31.72 44H30.2L28.57 38.46H29.99L30.97 42.68L32.03 38.46H33.51L34.55 42.67L35.53 38.46H36.87ZM37.2675 41.21C37.2675 40.65 37.3775 40.1533 37.5975 39.72C37.8242 39.2867 38.1275 38.9533 38.5075 38.72C38.8942 38.4867 39.3242 38.37 39.7975 38.37C40.2108 38.37 40.5708 38.4533 40.8775 38.62C41.1908 38.7867 41.4408 38.9967 41.6275 39.25V38.46H43.0375V44H41.6275V43.19C41.4475 43.45 41.1975 43.6667 40.8775 43.84C40.5642 44.0067 40.2008 44.09 39.7875 44.09C39.3208 44.09 38.8942 43.97 38.5075 43.73C38.1275 43.49 37.8242 43.1533 37.5975 42.72C37.3775 42.28 37.2675 41.7767 37.2675 41.21ZM41.6275 41.23C41.6275 40.89 41.5608 40.6 41.4275 40.36C41.2942 40.1133 41.1142 39.9267 40.8875 39.8C40.6608 39.6667 40.4175 39.6 40.1575 39.6C39.8975 39.6 39.6575 39.6633 39.4375 39.79C39.2175 39.9167 39.0375 40.1033 38.8975 40.35C38.7642 40.59 38.6975 40.8767 38.6975 41.21C38.6975 41.5433 38.7642 41.8367 38.8975 42.09C39.0375 42.3367 39.2175 42.5267 39.4375 42.66C39.6642 42.7933 39.9042 42.86 40.1575 42.86C40.4175 42.86 40.6608 42.7967 40.8875 42.67C41.1142 42.5367 41.2942 42.35 41.4275 42.11C41.5608 41.8633 41.6275 41.57 41.6275 41.23ZM45.8048 39.32C45.9848 39.0267 46.2182 38.7967 46.5048 38.63C46.7982 38.4633 47.1315 38.38 47.5048 38.38V39.85H47.1348C46.6948 39.85 46.3615 39.9533 46.1348 40.16C45.9148 40.3667 45.8048 40.7267 45.8048 41.24V44H44.4048V38.46H45.8048V39.32ZM48.0878 41.21C48.0878 40.65 48.1978 40.1533 48.4178 39.72C48.6445 39.2867 48.9511 38.9533 49.3378 38.72C49.7245 38.4867 50.1545 38.37 50.6278 38.37C50.9878 38.37 51.3311 38.45 51.6578 38.61C51.9845 38.7633 52.2445 38.97 52.4378 39.23V36.6H53.8578V44H52.4378V43.18C52.2645 43.4533 52.0211 43.6733 51.7078 43.84C51.3945 44.0067 51.0311 44.09 50.6178 44.09C50.1511 44.09 49.7245 43.97 49.3378 43.73C48.9511 43.49 48.6445 43.1533 48.4178 42.72C48.1978 42.28 48.0878 41.7767 48.0878 41.21ZM52.4478 41.23C52.4478 40.89 52.3811 40.6 52.2478 40.36C52.1145 40.1133 51.9345 39.9267 51.7078 39.8C51.4811 39.6667 51.2378 39.6 50.9778 39.6C50.7178 39.6 50.4778 39.6633 50.2578 39.79C50.0378 39.9167 49.8578 40.1033 49.7178 40.35C49.5845 40.59 49.5178 40.8767 49.5178 41.21C49.5178 41.5433 49.5845 41.8367 49.7178 42.09C49.8578 42.3367 50.0378 42.5267 50.2578 42.66C50.4845 42.7933 50.7245 42.86 50.9778 42.86C51.2378 42.86 51.4811 42.7967 51.7078 42.67C51.9345 42.5367 52.1145 42.35 52.2478 42.11C52.3811 41.8633 52.4478 41.57 52.4478 41.23Z" fill="#3B2859"/>
</svg>
