<svg width="60" height="50" viewBox="0 0 60 50" fill="none" xmlns="http://www.w3.org/2000/svg">
<rect width="60" height="50" rx="5" fill="white" fill-opacity="0.8"/>
<path d="M25.75 22.75L22 19L25.75 22.75ZM22 19L25.75 15.25L22 19ZM22 19H32H22ZM15.75 19C15.75 17.5226 16.041 16.0597 16.6064 14.6948C17.1717 13.3299 18.0004 12.0897 19.045 11.045C20.0897 10.0004 21.3299 9.17172 22.6948 8.60636C24.0597 8.04099 25.5226 7.75 27 7.75C28.4774 7.75 29.9403 8.04099 31.3052 8.60636C32.6701 9.17172 33.9103 10.0004 34.955 11.045C35.9996 12.0897 36.8283 13.3299 37.3936 14.6948C37.959 16.0597 38.25 17.5226 38.25 19C38.25 21.9837 37.0647 24.8452 34.955 26.955C32.8452 29.0647 29.9837 30.25 27 30.25C24.0163 30.25 21.1548 29.0647 19.045 26.955C16.9353 24.8452 15.75 21.9837 15.75 19V19Z" stroke="#3B2859" stroke-width="2" stroke-linecap="round" stroke-linejoin="round"/>
<path d="M9.65 40.42C10.0433 40.4933 10.3667 40.69 10.62 41.01C10.8733 41.33 11 41.6967 11 42.11C11 42.4833 10.9067 42.8133 10.72 43.1C10.54 43.38 10.2767 43.6 9.93 43.76C9.58333 43.92 9.17333 44 8.7 44H5.69V37.02H8.57C9.04333 37.02 9.45 37.0967 9.79 37.25C10.1367 37.4033 10.3967 37.6167 10.57 37.89C10.75 38.1633 10.84 38.4733 10.84 38.82C10.84 39.2267 10.73 39.5667 10.51 39.84C10.2967 40.1133 10.01 40.3067 9.65 40.42ZM7.09 39.9H8.37C8.70333 39.9 8.96 39.8267 9.14 39.68C9.32 39.5267 9.41 39.31 9.41 39.03C9.41 38.75 9.32 38.5333 9.14 38.38C8.96 38.2267 8.70333 38.15 8.37 38.15H7.09V39.9ZM8.5 42.86C8.84 42.86 9.10333 42.78 9.29 42.62C9.48333 42.46 9.58 42.2333 9.58 41.94C9.58 41.64 9.48 41.4067 9.28 41.24C9.08 41.0667 8.81 40.98 8.47 40.98H7.09V42.86H8.5ZM11.7558 41.21C11.7558 40.65 11.8658 40.1533 12.0858 39.72C12.3124 39.2867 12.6158 38.9533 12.9958 38.72C13.3824 38.4867 13.8124 38.37 14.2858 38.37C14.6991 38.37 15.0591 38.4533 15.3658 38.62C15.6791 38.7867 15.9291 38.9967 16.1158 39.25V38.46H17.5258V44H16.1158V43.19C15.9358 43.45 15.6858 43.6667 15.3658 43.84C15.0524 44.0067 14.6891 44.09 14.2758 44.09C13.8091 44.09 13.3824 43.97 12.9958 43.73C12.6158 43.49 12.3124 43.1533 12.0858 42.72C11.8658 42.28 11.7558 41.7767 11.7558 41.21ZM16.1158 41.23C16.1158 40.89 16.0491 40.6 15.9158 40.36C15.7824 40.1133 15.6024 39.9267 15.3758 39.8C15.1491 39.6667 14.9058 39.6 14.6458 39.6C14.3858 39.6 14.1458 39.6633 13.9258 39.79C13.7058 39.9167 13.5258 40.1033 13.3858 40.35C13.2524 40.59 13.1858 40.8767 13.1858 41.21C13.1858 41.5433 13.2524 41.8367 13.3858 42.09C13.5258 42.3367 13.7058 42.5267 13.9258 42.66C14.1524 42.7933 14.3924 42.86 14.6458 42.86C14.9058 42.86 15.1491 42.7967 15.3758 42.67C15.6024 42.5367 15.7824 42.35 15.9158 42.11C16.0491 41.8633 16.1158 41.57 16.1158 41.23ZM18.5331 41.23C18.5331 40.6567 18.6498 40.1567 18.8831 39.73C19.1165 39.2967 19.4398 38.9633 19.8531 38.73C20.2665 38.49 20.7398 38.37 21.2731 38.37C21.9598 38.37 22.5265 38.5433 22.9731 38.89C23.4265 39.23 23.7298 39.71 23.8831 40.33H22.3731C22.2931 40.09 22.1565 39.9033 21.9631 39.77C21.7765 39.63 21.5431 39.56 21.2631 39.56C20.8631 39.56 20.5465 39.7067 20.3131 40C20.0798 40.2867 19.9631 40.6967 19.9631 41.23C19.9631 41.7567 20.0798 42.1667 20.3131 42.46C20.5465 42.7467 20.8631 42.89 21.2631 42.89C21.8298 42.89 22.1998 42.6367 22.3731 42.13H23.8831C23.7298 42.73 23.4265 43.2067 22.9731 43.56C22.5198 43.9133 21.9531 44.09 21.2731 44.09C20.7398 44.09 20.2665 43.9733 19.8531 43.74C19.4398 43.5 19.1165 43.1667 18.8831 42.74C18.6498 42.3067 18.5331 41.8033 18.5331 41.23ZM28.1888 44L26.3088 41.64V44H24.9088V36.6H26.3088V40.81L28.1688 38.46H29.9888L27.5488 41.24L30.0088 44H28.1888ZM38.4286 38.46L36.8086 44H35.2986L34.2886 40.13L33.2786 44H31.7586L30.1286 38.46H31.5486L32.5286 42.68L33.5886 38.46H35.0686L36.1086 42.67L37.0886 38.46H38.4286ZM38.8261 41.21C38.8261 40.65 38.9361 40.1533 39.1561 39.72C39.3828 39.2867 39.6861 38.9533 40.0661 38.72C40.4528 38.4867 40.8828 38.37 41.3561 38.37C41.7694 38.37 42.1294 38.4533 42.4361 38.62C42.7494 38.7867 42.9994 38.9967 43.1861 39.25V38.46H44.5961V44H43.1861V43.19C43.0061 43.45 42.7561 43.6667 42.4361 43.84C42.1228 44.0067 41.7594 44.09 41.3461 44.09C40.8794 44.09 40.4528 43.97 40.0661 43.73C39.6861 43.49 39.3828 43.1533 39.1561 42.72C38.9361 42.28 38.8261 41.7767 38.8261 41.21ZM43.1861 41.23C43.1861 40.89 43.1194 40.6 42.9861 40.36C42.8528 40.1133 42.6728 39.9267 42.4461 39.8C42.2194 39.6667 41.9761 39.6 41.7161 39.6C41.4561 39.6 41.2161 39.6633 40.9961 39.79C40.7761 39.9167 40.5961 40.1033 40.4561 40.35C40.3228 40.59 40.2561 40.8767 40.2561 41.21C40.2561 41.5433 40.3228 41.8367 40.4561 42.09C40.5961 42.3367 40.7761 42.5267 40.9961 42.66C41.2228 42.7933 41.4628 42.86 41.7161 42.86C41.9761 42.86 42.2194 42.7967 42.4461 42.67C42.6728 42.5367 42.8528 42.35 42.9861 42.11C43.1194 41.8633 43.1861 41.57 43.1861 41.23ZM47.3634 39.32C47.5434 39.0267 47.7768 38.7967 48.0634 38.63C48.3568 38.4633 48.6901 38.38 49.0634 38.38V39.85H48.6934C48.2534 39.85 47.9201 39.9533 47.6934 40.16C47.4734 40.3667 47.3634 40.7267 47.3634 41.24V44H45.9634V38.46H47.3634V39.32ZM49.6464 41.21C49.6464 40.65 49.7564 40.1533 49.9764 39.72C50.2031 39.2867 50.5097 38.9533 50.8964 38.72C51.2831 38.4867 51.7131 38.37 52.1864 38.37C52.5464 38.37 52.8897 38.45 53.2164 38.61C53.5431 38.7633 53.8031 38.97 53.9964 39.23V36.6H55.4164V44H53.9964V43.18C53.8231 43.4533 53.5797 43.6733 53.2664 43.84C52.9531 44.0067 52.5897 44.09 52.1764 44.09C51.7097 44.09 51.2831 43.97 50.8964 43.73C50.5097 43.49 50.2031 43.1533 49.9764 42.72C49.7564 42.28 49.6464 41.7767 49.6464 41.21ZM54.0064 41.23C54.0064 40.89 53.9397 40.6 53.8064 40.36C53.6731 40.1133 53.4931 39.9267 53.2664 39.8C53.0397 39.6667 52.7964 39.6 52.5364 39.6C52.2764 39.6 52.0364 39.6633 51.8164 39.79C51.5964 39.9167 51.4164 40.1033 51.2764 40.35C51.1431 40.59 51.0764 40.8767 51.0764 41.21C51.0764 41.5433 51.1431 41.8367 51.2764 42.09C51.4164 42.3367 51.5964 42.5267 51.8164 42.66C52.0431 42.7933 52.2831 42.86 52.5364 42.86C52.7964 42.86 53.0397 42.7967 53.2664 42.67C53.4931 42.5367 53.6731 42.35 53.8064 42.11C53.9397 41.8633 54.0064 41.57 54.0064 41.23Z" fill="#3B2859"/>
</svg>
