<svg width="44" height="44" viewBox="0 0 44 44" fill="none" xmlns="http://www.w3.org/2000/svg">
<circle cx="22" cy="22" r="22" transform="matrix(-1 0 0 1 44 0)" fill="white"/>
<rect x="3.5" y="3.5" width="37" height="37" rx="18.5" stroke="#714EAA" stroke-width="3"/>
<path d="M20.8 12.8V11.2C20.8 10.8817 20.9264 10.5765 21.1515 10.3515C21.3765 10.1264 21.6817 10 22 10C22.3183 10 22.6235 10.1264 22.8485 10.3515C23.0736 10.5765 23.2 10.8817 23.2 11.2V12.8C23.2 13.1183 23.0736 13.4235 22.8485 13.6485C22.6235 13.8736 22.3183 14 22 14C21.6817 14 21.3765 13.8736 21.1515 13.6485C20.9264 13.4235 20.8 13.1183 20.8 12.8ZM28.8 22C28.8 23.3449 28.4012 24.6596 27.654 25.7779C26.9068 26.8961 25.8448 27.7677 24.6022 28.2824C23.3597 28.7971 21.9925 28.9317 20.6734 28.6693C19.3543 28.407 18.1427 27.7593 17.1917 26.8083C16.2407 25.8573 15.593 24.6457 15.3307 23.3266C15.0683 22.0075 15.2029 20.6403 15.7176 19.3978C16.2323 18.1552 17.1039 17.0932 18.2221 16.346C19.3404 15.5988 20.6551 15.2 22 15.2C23.8029 15.2019 25.5314 15.9189 26.8063 17.1937C28.0811 18.4686 28.7981 20.1971 28.8 22ZM26.4 22C26.4 21.1298 26.1419 20.2791 25.6585 19.5555C25.175 18.8319 24.4878 18.268 23.6838 17.9349C22.8798 17.6019 21.9951 17.5148 21.1416 17.6845C20.2881 17.8543 19.5041 18.2734 18.8887 18.8887C18.2734 19.5041 17.8543 20.2881 17.6845 21.1416C17.5148 21.9951 17.6019 22.8798 17.9349 23.6838C18.268 24.4878 18.8319 25.175 19.5555 25.6585C20.2791 26.1419 21.1298 26.4 22 26.4C23.1665 26.3987 24.2849 25.9347 25.1098 25.1098C25.9347 24.2849 26.3987 23.1665 26.4 22ZM14.351 16.049C14.4626 16.1606 14.5951 16.2492 14.741 16.3096C14.8868 16.37 15.0431 16.4011 15.201 16.4011C15.3589 16.4011 15.5152 16.37 15.661 16.3096C15.8069 16.2492 15.9394 16.1606 16.051 16.049C16.1626 15.9374 16.2512 15.8049 16.3116 15.659C16.372 15.5132 16.4031 15.3569 16.4031 15.199C16.4031 15.0411 16.372 14.8848 16.3116 14.739C16.2512 14.5931 16.1626 14.4606 16.051 14.349L14.851 13.149C14.6256 12.9236 14.3198 12.7969 14.001 12.7969C13.6822 12.7969 13.3764 12.9236 13.151 13.149C12.9256 13.3744 12.7989 13.6802 12.7989 13.999C12.7989 14.3178 12.9256 14.6236 13.151 14.849L14.351 16.049ZM14.351 27.949L13.151 29.149C13.0394 29.2606 12.9508 29.3931 12.8904 29.539C12.83 29.6848 12.7989 29.8411 12.7989 29.999C12.7989 30.1569 12.83 30.3132 12.8904 30.459C12.9508 30.6049 13.0394 30.7374 13.151 30.849C13.3764 31.0744 13.6822 31.2011 14.001 31.2011C14.1589 31.2011 14.3152 31.17 14.461 31.1096C14.6069 31.0492 14.7394 30.9606 14.851 30.849L16.051 29.649C16.2764 29.4236 16.4031 29.1178 16.4031 28.799C16.4031 28.4802 16.2764 28.1744 16.051 27.949C15.8256 27.7236 15.5198 27.5969 15.201 27.5969C14.8822 27.5969 14.5764 27.7236 14.351 27.949ZM28.8 16.4C28.9576 16.4001 29.1137 16.3692 29.2594 16.309C29.4051 16.2487 29.5375 16.1604 29.649 16.049L30.849 14.849C30.9606 14.7374 31.0492 14.6049 31.1096 14.459C31.17 14.3132 31.2011 14.1569 31.2011 13.999C31.2011 13.8411 31.17 13.6848 31.1096 13.539C31.0492 13.3931 30.9606 13.2606 30.849 13.149C30.7374 13.0374 30.6049 12.9488 30.459 12.8884C30.3132 12.828 30.1569 12.7969 29.999 12.7969C29.8411 12.7969 29.6848 12.828 29.539 12.8884C29.3931 12.9488 29.2606 13.0374 29.149 13.149L27.949 14.349C27.7802 14.5168 27.6651 14.7311 27.6184 14.9645C27.5717 15.198 27.5954 15.44 27.6867 15.6599C27.7779 15.8798 27.9325 16.0676 28.1307 16.1993C28.329 16.3311 28.5619 16.401 28.8 16.4ZM29.649 27.951C29.4236 27.7256 29.1178 27.5989 28.799 27.5989C28.4802 27.5989 28.1744 27.7256 27.949 27.951C27.7236 28.1764 27.5969 28.4822 27.5969 28.801C27.5969 29.1198 27.7236 29.4256 27.949 29.651L29.149 30.851C29.3744 31.0764 29.6802 31.2031 29.999 31.2031C30.3178 31.2031 30.6236 31.0764 30.849 30.851C31.0744 30.6256 31.2011 30.3198 31.2011 30.001C31.2011 29.6822 31.0744 29.3764 30.849 29.151L29.649 27.951ZM14 22C14 21.6817 13.8736 21.3765 13.6485 21.1515C13.4235 20.9264 13.1183 20.8 12.8 20.8H11.2C10.8817 20.8 10.5765 20.9264 10.3515 21.1515C10.1264 21.3765 10 21.6817 10 22C10 22.3183 10.1264 22.6235 10.3515 22.8485C10.5765 23.0736 10.8817 23.2 11.2 23.2H12.8C13.1183 23.2 13.4235 23.0736 13.6485 22.8485C13.8736 22.6235 14 22.3183 14 22ZM22 30C21.6817 30 21.3765 30.1264 21.1515 30.3515C20.9264 30.5765 20.8 30.8817 20.8 31.2V32.8C20.8 33.1183 20.9264 33.4235 21.1515 33.6485C21.3765 33.8736 21.6817 34 22 34C22.3183 34 22.6235 33.8736 22.8485 33.6485C23.0736 33.4235 23.2 33.1183 23.2 32.8V31.2C23.2 30.8817 23.0736 30.5765 22.8485 30.3515C22.6235 30.1264 22.3183 30 22 30ZM32.8 20.8H31.2C30.8817 20.8 30.5765 20.9264 30.3515 21.1515C30.1264 21.3765 30 21.6817 30 22C30 22.3183 30.1264 22.6235 30.3515 22.8485C30.5765 23.0736 30.8817 23.2 31.2 23.2H32.8C33.1183 23.2 33.4235 23.0736 33.6485 22.8485C33.8736 22.6235 34 22.3183 34 22C34 21.6817 33.8736 21.3765 33.6485 21.1515C33.4235 20.9264 33.1183 20.8 32.8 20.8Z" fill="#714EAA"/>
</svg>
