<svg width="60" height="50" viewBox="0 0 60 50" fill="none" xmlns="http://www.w3.org/2000/svg">
<rect width="60" height="50" rx="5" fill="white" fill-opacity="0.8"/>
<path d="M37.955 26.955L22.045 11.045M37.955 26.955C40.0648 24.8452 41.2501 21.9837 41.2501 19C41.2501 16.0163 40.0648 13.1548 37.955 11.045C35.8452 8.93521 32.9837 7.74994 30 7.74994C27.0163 7.74994 24.1548 8.93521 22.045 11.045L37.955 26.955ZM37.955 26.955C35.8452 29.0648 32.9837 30.2501 30 30.2501C27.0163 30.2501 24.1548 29.0648 22.045 26.955C19.9352 24.8452 18.7499 21.9837 18.7499 19C18.7499 16.0163 19.9352 13.1548 22.045 11.045L37.955 26.955Z" stroke="#3B2859" stroke-width="2" stroke-linecap="round" stroke-linejoin="round"/>
<path d="M15.44 37.02V38.15H13.58V44H12.18V38.15H10.32V37.02H15.44ZM21.6915 38.46V44H20.2815V43.3C20.1015 43.54 19.8648 43.73 19.5715 43.87C19.2848 44.0033 18.9715 44.07 18.6315 44.07C18.1982 44.07 17.8148 43.98 17.4815 43.8C17.1482 43.6133 16.8848 43.3433 16.6915 42.99C16.5048 42.63 16.4115 42.2033 16.4115 41.71V38.46H17.8115V41.51C17.8115 41.95 17.9215 42.29 18.1415 42.53C18.3615 42.7633 18.6615 42.88 19.0415 42.88C19.4282 42.88 19.7315 42.7633 19.9515 42.53C20.1715 42.29 20.2815 41.95 20.2815 41.51V38.46H21.6915ZM24.4728 39.32C24.6528 39.0267 24.8861 38.7967 25.1728 38.63C25.4661 38.4633 25.7995 38.38 26.1728 38.38V39.85H25.8028C25.3628 39.85 25.0295 39.9533 24.8028 40.16C24.5828 40.3667 24.4728 40.7267 24.4728 41.24V44H23.0728V38.46H24.4728V39.32ZM30.1858 38.38C30.8458 38.38 31.3791 38.59 31.7858 39.01C32.1924 39.4233 32.3958 40.0033 32.3958 40.75V44H30.9958V40.94C30.9958 40.5 30.8858 40.1633 30.6658 39.93C30.4458 39.69 30.1458 39.57 29.7658 39.57C29.3791 39.57 29.0724 39.69 28.8458 39.93C28.6258 40.1633 28.5158 40.5 28.5158 40.94V44H27.1158V38.46H28.5158V39.15C28.7024 38.91 28.9391 38.7233 29.2258 38.59C29.5191 38.45 29.8391 38.38 30.1858 38.38ZM39.3499 44.07C38.6966 44.07 38.0966 43.9167 37.5499 43.61C37.0033 43.3033 36.5699 42.88 36.2499 42.34C35.9299 41.7933 35.7699 41.1767 35.7699 40.49C35.7699 39.81 35.9299 39.2 36.2499 38.66C36.5699 38.1133 37.0033 37.6867 37.5499 37.38C38.0966 37.0733 38.6966 36.92 39.3499 36.92C40.0099 36.92 40.6099 37.0733 41.1499 37.38C41.6966 37.6867 42.1266 38.1133 42.4399 38.66C42.7599 39.2 42.9199 39.81 42.9199 40.49C42.9199 41.1767 42.7599 41.7933 42.4399 42.34C42.1266 42.88 41.6966 43.3033 41.1499 43.61C40.6033 43.9167 40.0033 44.07 39.3499 44.07ZM39.3499 42.82C39.7699 42.82 40.1399 42.7267 40.4599 42.54C40.7799 42.3467 41.0299 42.0733 41.2099 41.72C41.3899 41.3667 41.4799 40.9567 41.4799 40.49C41.4799 40.0233 41.3899 39.6167 41.2099 39.27C41.0299 38.9167 40.7799 38.6467 40.4599 38.46C40.1399 38.2733 39.7699 38.18 39.3499 38.18C38.9299 38.18 38.5566 38.2733 38.2299 38.46C37.9099 38.6467 37.6599 38.9167 37.4799 39.27C37.2999 39.6167 37.2099 40.0233 37.2099 40.49C37.2099 40.9567 37.2999 41.3667 37.4799 41.72C37.6599 42.0733 37.9099 42.3467 38.2299 42.54C38.5566 42.7267 38.9299 42.82 39.3499 42.82ZM46.5015 39.61H45.5315V44H44.1115V39.61H43.4815V38.46H44.1115V38.18C44.1115 37.5 44.3048 37 44.6915 36.68C45.0782 36.36 45.6615 36.21 46.4415 36.23V37.41C46.1015 37.4033 45.8648 37.46 45.7315 37.58C45.5982 37.7 45.5315 37.9167 45.5315 38.23V38.46H46.5015V39.61ZM49.9488 39.61H48.9788V44H47.5588V39.61H46.9288V38.46H47.5588V38.18C47.5588 37.5 47.7521 37 48.1388 36.68C48.5254 36.36 49.1088 36.21 49.8888 36.23V37.41C49.5488 37.4033 49.3121 37.46 49.1788 37.58C49.0454 37.7 48.9788 37.9167 48.9788 38.23V38.46H49.9488V39.61Z" fill="#3B2859"/>
</svg>
