<svg width="60" height="50" viewBox="0 0 60 50" fill="none" xmlns="http://www.w3.org/2000/svg">
<rect width="60" height="50" rx="5" fill="white" fill-opacity="0.8"/>
<path d="M27.5 15.25V22.75V15.25ZM32.5 15.25V22.75V15.25ZM41.25 19C41.25 20.4774 40.959 21.9403 40.3936 23.3052C39.8283 24.6701 38.9996 25.9103 37.955 26.955C36.9103 27.9996 35.6701 28.8283 34.3052 29.3936C32.9403 29.959 31.4774 30.25 30 30.25C28.5226 30.25 27.0597 29.959 25.6948 29.3936C24.3299 28.8283 23.0897 27.9996 22.045 26.955C21.0004 25.9103 20.1717 24.6701 19.6064 23.3052C19.041 21.9403 18.75 20.4774 18.75 19C18.75 16.0163 19.9353 13.1548 22.045 11.045C24.1548 8.93526 27.0163 7.75 30 7.75C32.9837 7.75 35.8452 8.93526 37.955 11.045C40.0647 13.1548 41.25 16.0163 41.25 19Z" stroke="#3B2859" stroke-width="2" stroke-linecap="round" stroke-linejoin="round"/>
<path d="M22.1 44.07C21.6133 44.07 21.1733 43.9867 20.78 43.82C20.3933 43.6533 20.0867 43.4133 19.86 43.1C19.6333 42.7867 19.5167 42.4167 19.51 41.99H21.01C21.03 42.2767 21.13 42.5033 21.31 42.67C21.4967 42.8367 21.75 42.92 22.07 42.92C22.3967 42.92 22.6533 42.8433 22.84 42.69C23.0267 42.53 23.12 42.3233 23.12 42.07C23.12 41.8633 23.0567 41.6933 22.93 41.56C22.8033 41.4267 22.6433 41.3233 22.45 41.25C22.2633 41.17 22.0033 41.0833 21.67 40.99C21.2167 40.8567 20.8467 40.7267 20.56 40.6C20.28 40.4667 20.0367 40.27 19.83 40.01C19.63 39.7433 19.53 39.39 19.53 38.95C19.53 38.5367 19.6333 38.1767 19.84 37.87C20.0467 37.5633 20.3367 37.33 20.71 37.17C21.0833 37.0033 21.51 36.92 21.99 36.92C22.71 36.92 23.2933 37.0967 23.74 37.45C24.1933 37.7967 24.4433 38.2833 24.49 38.91H22.95C22.9367 38.67 22.8333 38.4733 22.64 38.32C22.4533 38.16 22.2033 38.08 21.89 38.08C21.6167 38.08 21.3967 38.15 21.23 38.29C21.07 38.43 20.99 38.6333 20.99 38.9C20.99 39.0867 21.05 39.2433 21.17 39.37C21.2967 39.49 21.45 39.59 21.63 39.67C21.8167 39.7433 22.0767 39.83 22.41 39.93C22.8633 40.0633 23.2333 40.1967 23.52 40.33C23.8067 40.4633 24.0533 40.6633 24.26 40.93C24.4667 41.1967 24.57 41.5467 24.57 41.98C24.57 42.3533 24.4733 42.7 24.28 43.02C24.0867 43.34 23.8033 43.5967 23.43 43.79C23.0567 43.9767 22.6133 44.07 22.1 44.07ZM27.4138 39.61V42.29C27.4138 42.4767 27.4571 42.6133 27.5438 42.7C27.6371 42.78 27.7904 42.82 28.0038 42.82H28.6538V44H27.7738C26.5938 44 26.0038 43.4267 26.0038 42.28V39.61H25.3438V38.46H26.0038V37.09H27.4138V38.46H28.6538V39.61H27.4138ZM32.1207 44.09C31.5874 44.09 31.1074 43.9733 30.6807 43.74C30.254 43.5 29.9174 43.1633 29.6707 42.73C29.4307 42.2967 29.3107 41.7967 29.3107 41.23C29.3107 40.6633 29.434 40.1633 29.6807 39.73C29.934 39.2967 30.2774 38.9633 30.7107 38.73C31.144 38.49 31.6274 38.37 32.1607 38.37C32.694 38.37 33.1774 38.49 33.6107 38.73C34.044 38.9633 34.384 39.2967 34.6307 39.73C34.884 40.1633 35.0107 40.6633 35.0107 41.23C35.0107 41.7967 34.8807 42.2967 34.6207 42.73C34.3674 43.1633 34.0207 43.5 33.5807 43.74C33.1474 43.9733 32.6607 44.09 32.1207 44.09ZM32.1207 42.87C32.374 42.87 32.6107 42.81 32.8307 42.69C33.0574 42.5633 33.2374 42.3767 33.3707 42.13C33.504 41.8833 33.5707 41.5833 33.5707 41.23C33.5707 40.7033 33.4307 40.3 33.1507 40.02C32.8774 39.7333 32.5407 39.59 32.1407 39.59C31.7407 39.59 31.404 39.7333 31.1307 40.02C30.864 40.3 30.7307 40.7033 30.7307 41.23C30.7307 41.7567 30.8607 42.1633 31.1207 42.45C31.3874 42.73 31.7207 42.87 32.1207 42.87ZM37.4377 39.26C37.6177 39.0067 37.8643 38.7967 38.1777 38.63C38.4977 38.4567 38.861 38.37 39.2677 38.37C39.741 38.37 40.1677 38.4867 40.5477 38.72C40.9343 38.9533 41.2377 39.2867 41.4577 39.72C41.6843 40.1467 41.7977 40.6433 41.7977 41.21C41.7977 41.7767 41.6843 42.28 41.4577 42.72C41.2377 43.1533 40.9343 43.49 40.5477 43.73C40.1677 43.97 39.741 44.09 39.2677 44.09C38.861 44.09 38.501 44.0067 38.1877 43.84C37.881 43.6733 37.631 43.4633 37.4377 43.21V46.64H36.0377V38.46H37.4377V39.26ZM40.3677 41.21C40.3677 40.8767 40.2977 40.59 40.1577 40.35C40.0243 40.1033 39.8443 39.9167 39.6177 39.79C39.3977 39.6633 39.1577 39.6 38.8977 39.6C38.6443 39.6 38.4043 39.6667 38.1777 39.8C37.9577 39.9267 37.7777 40.1133 37.6377 40.36C37.5043 40.6067 37.4377 40.8967 37.4377 41.23C37.4377 41.5633 37.5043 41.8533 37.6377 42.1C37.7777 42.3467 37.9577 42.5367 38.1777 42.67C38.4043 42.7967 38.6443 42.86 38.8977 42.86C39.1577 42.86 39.3977 42.7933 39.6177 42.66C39.8443 42.5267 40.0243 42.3367 40.1577 42.09C40.2977 41.8433 40.3677 41.55 40.3677 41.21Z" fill="#3B2859"/>
</svg>
