<svg width="60" height="50" viewBox="0 0 60 50" fill="none" xmlns="http://www.w3.org/2000/svg">
<rect width="60" height="50" rx="5" fill="white" fill-opacity="0.8"/>
<path d="M33.44 17.96L29.4438 15.295C29.2553 15.1693 29.0363 15.0972 28.81 15.0863C28.5838 15.0754 28.3588 15.1262 28.1592 15.2333C27.9596 15.3403 27.7928 15.4996 27.6767 15.6941C27.5606 15.8886 27.4995 16.111 27.5 16.3375V21.6663C27.5 21.8926 27.5614 22.1147 27.6777 22.3088C27.7939 22.5029 27.9608 22.6619 28.1603 22.7686C28.3598 22.8754 28.5846 22.926 28.8106 22.915C29.0367 22.904 29.2555 22.8319 29.4438 22.7063L33.44 20.0413C33.6112 19.9271 33.7516 19.7725 33.8487 19.5911C33.9457 19.4096 33.9965 19.207 33.9965 19.0013C33.9965 18.7955 33.9457 18.5929 33.8487 18.4115C33.7516 18.2301 33.6112 18.0754 33.44 17.9613V17.96Z" stroke="#3B2859" stroke-width="2" stroke-linecap="round" stroke-linejoin="round"/>
<path d="M41.25 19C41.25 20.4774 40.959 21.9403 40.3936 23.3052C39.8283 24.6701 38.9996 25.9103 37.955 26.955C36.9103 27.9996 35.6701 28.8283 34.3052 29.3936C32.9403 29.959 31.4774 30.25 30 30.25C28.5226 30.25 27.0597 29.959 25.6948 29.3936C24.3299 28.8283 23.0897 27.9996 22.045 26.955C21.0004 25.9103 20.1717 24.6701 19.6064 23.3052C19.041 21.9403 18.75 20.4774 18.75 19C18.75 16.0163 19.9353 13.1548 22.045 11.045C24.1548 8.93526 27.0163 7.75 30 7.75C32.9837 7.75 35.8452 8.93526 37.955 11.045C40.0647 13.1548 41.25 16.0163 41.25 19Z" stroke="#3B2859" stroke-width="2" stroke-linecap="round" stroke-linejoin="round"/>
<path d="M16.44 37.02V38.15H14.58V44H13.18V38.15H11.32V37.02H16.44ZM22.6915 38.46V44H21.2815V43.3C21.1015 43.54 20.8648 43.73 20.5715 43.87C20.2848 44.0033 19.9715 44.07 19.6315 44.07C19.1982 44.07 18.8148 43.98 18.4815 43.8C18.1482 43.6133 17.8848 43.3433 17.6915 42.99C17.5048 42.63 17.4115 42.2033 17.4115 41.71V38.46H18.8115V41.51C18.8115 41.95 18.9215 42.29 19.1415 42.53C19.3615 42.7633 19.6615 42.88 20.0415 42.88C20.4282 42.88 20.7315 42.7633 20.9515 42.53C21.1715 42.29 21.2815 41.95 21.2815 41.51V38.46H22.6915ZM25.4728 39.32C25.6528 39.0267 25.8861 38.7967 26.1728 38.63C26.4661 38.4633 26.7995 38.38 27.1728 38.38V39.85H26.8028C26.3628 39.85 26.0295 39.9533 25.8028 40.16C25.5828 40.3667 25.4728 40.7267 25.4728 41.24V44H24.0728V38.46H25.4728V39.32ZM31.1858 38.38C31.8458 38.38 32.3791 38.59 32.7858 39.01C33.1924 39.4233 33.3958 40.0033 33.3958 40.75V44H31.9958V40.94C31.9958 40.5 31.8858 40.1633 31.6658 39.93C31.4458 39.69 31.1458 39.57 30.7658 39.57C30.3791 39.57 30.0724 39.69 29.8458 39.93C29.6258 40.1633 29.5158 40.5 29.5158 40.94V44H28.1158V38.46H29.5158V39.15C29.7024 38.91 29.9391 38.7233 30.2258 38.59C30.5191 38.45 30.8391 38.38 31.1858 38.38ZM40.3499 44.07C39.6966 44.07 39.0966 43.9167 38.5499 43.61C38.0033 43.3033 37.5699 42.88 37.2499 42.34C36.9299 41.7933 36.7699 41.1767 36.7699 40.49C36.7699 39.81 36.9299 39.2 37.2499 38.66C37.5699 38.1133 38.0033 37.6867 38.5499 37.38C39.0966 37.0733 39.6966 36.92 40.3499 36.92C41.0099 36.92 41.6099 37.0733 42.1499 37.38C42.6966 37.6867 43.1266 38.1133 43.4399 38.66C43.7599 39.2 43.9199 39.81 43.9199 40.49C43.9199 41.1767 43.7599 41.7933 43.4399 42.34C43.1266 42.88 42.6966 43.3033 42.1499 43.61C41.6033 43.9167 41.0033 44.07 40.3499 44.07ZM40.3499 42.82C40.7699 42.82 41.1399 42.7267 41.4599 42.54C41.7799 42.3467 42.0299 42.0733 42.2099 41.72C42.3899 41.3667 42.4799 40.9567 42.4799 40.49C42.4799 40.0233 42.3899 39.6167 42.2099 39.27C42.0299 38.9167 41.7799 38.6467 41.4599 38.46C41.1399 38.2733 40.7699 38.18 40.3499 38.18C39.9299 38.18 39.5566 38.2733 39.2299 38.46C38.9099 38.6467 38.6599 38.9167 38.4799 39.27C38.2999 39.6167 38.2099 40.0233 38.2099 40.49C38.2099 40.9567 38.2999 41.3667 38.4799 41.72C38.6599 42.0733 38.9099 42.3467 39.2299 42.54C39.5566 42.7267 39.9299 42.82 40.3499 42.82ZM48.0315 38.38C48.6915 38.38 49.2248 38.59 49.6315 39.01C50.0382 39.4233 50.2415 40.0033 50.2415 40.75V44H48.8415V40.94C48.8415 40.5 48.7315 40.1633 48.5115 39.93C48.2915 39.69 47.9915 39.57 47.6115 39.57C47.2248 39.57 46.9182 39.69 46.6915 39.93C46.4715 40.1633 46.3615 40.5 46.3615 40.94V44H44.9615V38.46H46.3615V39.15C46.5482 38.91 46.7848 38.7233 47.0715 38.59C47.3648 38.45 47.6848 38.38 48.0315 38.38Z" fill="#3B2859"/>
</svg>
