<svg width="44" height="44" viewBox="0 0 44 44" fill="none" xmlns="http://www.w3.org/2000/svg">
<circle cx="22" cy="22" r="22" fill="#3B2859"/>
<path d="M42 22C42 25.9556 40.827 29.8224 38.6294 33.1114C36.4318 36.4004 33.3082 38.9638 29.6537 40.4776C25.9992 41.9913 21.9778 42.3874 18.0982 41.6157C14.2186 40.844 10.6549 38.9392 7.85787 36.1421C5.06082 33.3451 3.15601 29.7814 2.3843 25.9018C1.6126 22.0222 2.00867 18.0008 3.52242 14.3463C5.03617 10.6918 7.59962 7.56823 10.8886 5.3706C14.1776 3.17298 18.0444 2 22 2C27.3026 2.0056 32.3864 4.11454 36.136 7.86405C39.8855 11.6136 41.9944 16.6974 42 22ZM5.07693 22C5.07693 25.3471 6.06945 28.619 7.92898 31.402C9.78851 34.1849 12.4315 36.354 15.5238 37.6349C18.6161 38.9157 22.0188 39.2509 25.3015 38.5979C28.5843 37.9449 31.5997 36.3331 33.9664 33.9664C36.3332 31.5997 37.9449 28.5843 38.5979 25.3015C39.2509 22.0188 38.9158 18.6161 37.6349 15.5238C36.354 12.4315 34.1849 9.78851 31.402 7.92897C28.619 6.06944 25.3471 5.07692 22 5.07692C17.5133 5.08201 13.2118 6.86661 10.0392 10.0392C6.86662 13.2118 5.08202 17.5133 5.07693 22ZM24.6269 14.7577C24.484 14.6147 24.3143 14.5014 24.1275 14.424C23.9408 14.3467 23.7406 14.3068 23.5385 14.3068C23.3363 14.3068 23.1362 14.3467 22.9494 14.424C22.7626 14.5014 22.5929 14.6147 22.45 14.7577C22.3071 14.9006 22.1937 15.0703 22.1163 15.2571C22.039 15.4438 21.9991 15.644 21.9991 15.8462C21.9991 16.0483 22.039 16.2485 22.1163 16.4352C22.1937 16.622 22.3071 16.7917 22.45 16.9346L25.9789 20.4615L14.3077 20.4615C13.8997 20.4615 13.5084 20.6236 13.2198 20.9121C12.9313 21.2007 12.7692 21.592 12.7692 22C12.7692 22.408 12.9313 22.7993 13.2198 23.0879C13.5084 23.3764 13.8997 23.5385 14.3077 23.5385L25.9789 23.5385L22.45 27.0654C22.1613 27.3541 21.9991 27.7456 21.9991 28.1538C21.9991 28.5621 22.1613 28.9536 22.45 29.2423C22.7387 29.531 23.1302 29.6932 23.5385 29.6932C23.9467 29.6932 24.3382 29.531 24.6269 29.2423L30.7808 23.0885C30.9238 22.9456 31.0373 22.7759 31.1147 22.5891C31.1921 22.4024 31.232 22.2022 31.232 22C31.232 21.7978 31.1921 21.5976 31.1147 21.4109C31.0373 21.2241 30.9238 21.0544 30.7808 20.9115L24.6269 14.7577Z" fill="#E6D6FF"/>
</svg>
