<svg width="44" height="44" viewBox="0 0 44 44" fill="none" xmlns="http://www.w3.org/2000/svg">
<circle cx="22" cy="22" r="22" transform="matrix(-1 0 0 1 44 0)" fill="#3B2859"/>
<path d="M2 22C2 25.9556 3.17298 29.8224 5.37061 33.1114C7.56823 36.4004 10.6918 38.9638 14.3463 40.4776C18.0008 41.9913 22.0222 42.3874 25.9018 41.6157C29.7814 40.844 33.3451 38.9392 36.1421 36.1421C38.9392 33.3451 40.844 29.7814 41.6157 25.9018C42.3874 22.0222 41.9913 18.0008 40.4776 14.3463C38.9638 10.6918 36.4004 7.56823 33.1114 5.3706C29.8224 3.17298 25.9556 2 22 2C16.6974 2.0056 11.6136 4.11454 7.86405 7.86405C4.11453 11.6136 2.0056 16.6974 2 22ZM38.9231 22C38.9231 25.3471 37.9305 28.619 36.071 31.402C34.2115 34.1849 31.5685 36.354 28.4762 37.6349C25.3839 38.9157 21.9812 39.2509 18.6985 38.5979C15.4157 37.9449 12.4003 36.3331 10.0336 33.9664C7.66684 31.5997 6.05507 28.5843 5.40209 25.3015C4.74911 22.0188 5.08425 18.6161 6.36511 15.5238C7.64598 12.4315 9.81505 9.78851 12.598 7.92897C15.381 6.06944 18.6529 5.07692 22 5.07692C26.4867 5.08201 30.7882 6.86661 33.9608 10.0392C37.1334 13.2118 38.918 17.5133 38.9231 22ZM19.3731 14.7577C19.516 14.6147 19.6857 14.5014 19.8725 14.424C20.0592 14.3467 20.2594 14.3068 20.4615 14.3068C20.6637 14.3068 20.8638 14.3467 21.0506 14.424C21.2374 14.5014 21.4071 14.6147 21.55 14.7577C21.6929 14.9006 21.8063 15.0703 21.8837 15.2571C21.961 15.4438 22.0009 15.644 22.0009 15.8462C22.0009 16.0483 21.961 16.2485 21.8837 16.4352C21.8063 16.622 21.6929 16.7917 21.55 16.9346L18.0211 20.4615L29.6923 20.4615C30.1003 20.4615 30.4916 20.6236 30.7802 20.9121C31.0687 21.2007 31.2308 21.592 31.2308 22C31.2308 22.408 31.0687 22.7993 30.7802 23.0879C30.4916 23.3764 30.1003 23.5385 29.6923 23.5385L18.0211 23.5385L21.55 27.0654C21.8387 27.3541 22.0009 27.7456 22.0009 28.1538C22.0009 28.5621 21.8387 28.9536 21.55 29.2423C21.2613 29.531 20.8698 29.6932 20.4615 29.6932C20.0533 29.6932 19.6618 29.531 19.3731 29.2423L13.2192 23.0885C13.0762 22.9456 12.9627 22.7759 12.8853 22.5891C12.8079 22.4024 12.768 22.2022 12.768 22C12.768 21.7978 12.8079 21.5976 12.8853 21.4109C12.9627 21.2241 13.0762 21.0544 13.2192 20.9115L19.3731 14.7577Z" fill="#E6D6FF"/>
</svg>
