<svg width="120" height="70" viewBox="0 0 120 70" fill="none" xmlns="http://www.w3.org/2000/svg">
<path d="M43.094 54.172L39.608 64H36.612L33.126 54.172H35.674L38.11 61.592L40.56 54.172H43.094ZM51.4586 59.968C51.4586 60.192 51.4446 60.4253 51.4166 60.668H45.9986C46.0359 61.1533 46.1899 61.5267 46.4606 61.788C46.7406 62.04 47.0812 62.166 47.4826 62.166C48.0799 62.166 48.4952 61.914 48.7286 61.41H51.2766C51.1459 61.9233 50.9079 62.3853 50.5626 62.796C50.2266 63.2067 49.8019 63.5287 49.2886 63.762C48.7752 63.9953 48.2012 64.112 47.5666 64.112C46.8012 64.112 46.1199 63.9487 45.5226 63.622C44.9252 63.2953 44.4586 62.8287 44.1226 62.222C43.7866 61.6153 43.6186 60.906 43.6186 60.094C43.6186 59.282 43.7819 58.5727 44.1086 57.966C44.4446 57.3593 44.9112 56.8927 45.5086 56.566C46.1059 56.2393 46.7919 56.076 47.5666 56.076C48.3226 56.076 48.9946 56.2347 49.5826 56.552C50.1706 56.8693 50.6279 57.322 50.9546 57.91C51.2906 58.498 51.4586 59.184 51.4586 59.968ZM49.0086 59.338C49.0086 58.9273 48.8686 58.6007 48.5886 58.358C48.3086 58.1153 47.9586 57.994 47.5386 57.994C47.1372 57.994 46.7966 58.1107 46.5166 58.344C46.2459 58.5773 46.0779 58.9087 46.0126 59.338H49.0086ZM57.5235 56.104C58.4195 56.104 59.1382 56.4027 59.6795 57C60.2208 57.588 60.4915 58.4 60.4915 59.436V64H58.1115V59.758C58.1115 59.2353 57.9762 58.8293 57.7055 58.54C57.4348 58.2507 57.0708 58.106 56.6135 58.106C56.1562 58.106 55.7922 58.2507 55.5215 58.54C55.2508 58.8293 55.1155 59.2353 55.1155 59.758V64H52.7215V53.64H55.1155V57.238C55.3582 56.8927 55.6895 56.6173 56.1095 56.412C56.5295 56.2067 57.0008 56.104 57.5235 56.104ZM63.3591 55.376C62.9391 55.376 62.5938 55.2547 62.3231 55.012C62.0618 54.76 61.9311 54.452 61.9311 54.088C61.9311 53.7147 62.0618 53.4067 62.3231 53.164C62.5938 52.912 62.9391 52.786 63.3591 52.786C63.7698 52.786 64.1058 52.912 64.3671 53.164C64.6378 53.4067 64.7731 53.7147 64.7731 54.088C64.7731 54.452 64.6378 54.76 64.3671 55.012C64.1058 55.2547 63.7698 55.376 63.3591 55.376ZM64.5491 56.188V64H62.1551V56.188H64.5491ZM65.808 60.094C65.808 59.282 65.9713 58.5727 66.298 57.966C66.634 57.3593 67.096 56.8927 67.684 56.566C68.2813 56.2393 68.9627 56.076 69.728 56.076C70.708 56.076 71.5247 56.3327 72.178 56.846C72.8407 57.3593 73.2747 58.0827 73.48 59.016H70.932C70.7173 58.4187 70.302 58.12 69.686 58.12C69.2473 58.12 68.8973 58.2927 68.636 58.638C68.3747 58.974 68.244 59.4593 68.244 60.094C68.244 60.7287 68.3747 61.2187 68.636 61.564C68.8973 61.9 69.2473 62.068 69.686 62.068C70.302 62.068 70.7173 61.7693 70.932 61.172H73.48C73.2747 62.0867 72.8407 62.8053 72.178 63.328C71.5153 63.8507 70.6987 64.112 69.728 64.112C68.9627 64.112 68.2813 63.9487 67.684 63.622C67.096 63.2953 66.634 62.8287 66.298 62.222C65.9713 61.6153 65.808 60.906 65.808 60.094ZM77.1546 53.64V64H74.7606V53.64H77.1546ZM86.2535 59.968C86.2535 60.192 86.2395 60.4253 86.2115 60.668H80.7935C80.8308 61.1533 80.9848 61.5267 81.2555 61.788C81.5355 62.04 81.8762 62.166 82.2775 62.166C82.8748 62.166 83.2902 61.914 83.5235 61.41H86.0715C85.9408 61.9233 85.7028 62.3853 85.3575 62.796C85.0215 63.2067 84.5968 63.5287 84.0835 63.762C83.5702 63.9953 82.9962 64.112 82.3615 64.112C81.5962 64.112 80.9148 63.9487 80.3175 63.622C79.7202 63.2953 79.2535 62.8287 78.9175 62.222C78.5815 61.6153 78.4135 60.906 78.4135 60.094C78.4135 59.282 78.5768 58.5727 78.9035 57.966C79.2395 57.3593 79.7062 56.8927 80.3035 56.566C80.9008 56.2393 81.5868 56.076 82.3615 56.076C83.1175 56.076 83.7895 56.2347 84.3775 56.552C84.9655 56.8693 85.4228 57.322 85.7495 57.91C86.0855 58.498 86.2535 59.184 86.2535 59.968ZM83.8035 59.338C83.8035 58.9273 83.6635 58.6007 83.3835 58.358C83.1035 58.1153 82.7535 57.994 82.3335 57.994C81.9322 57.994 81.5915 58.1107 81.3115 58.344C81.0408 58.5773 80.8728 58.9087 80.8075 59.338H83.8035Z" fill="#714EAA"/>
<path d="M41 18L45.5 4.5H78.5L83 18M78.5 33C77.3065 33 76.1619 32.5259 75.318 31.682C74.4741 30.8381 74 29.6935 74 28.5C74 27.3065 74.4741 26.1619 75.318 25.318C76.1619 24.4741 77.3065 24 78.5 24C79.6935 24 80.8381 24.4741 81.682 25.318C82.5259 26.1619 83 27.3065 83 28.5C83 29.6935 82.5259 30.8381 81.682 31.682C80.8381 32.5259 79.6935 33 78.5 33ZM45.5 33C44.3065 33 43.1619 32.5259 42.318 31.682C41.4741 30.8381 41 29.6935 41 28.5C41 27.3065 41.4741 26.1619 42.318 25.318C43.1619 24.4741 44.3065 24 45.5 24C46.6935 24 47.8381 24.4741 48.682 25.318C49.5259 26.1619 50 27.3065 50 28.5C50 29.6935 49.5259 30.8381 48.682 31.682C47.8381 32.5259 46.6935 33 45.5 33ZM82.76 3C82.16 1.26 80.48 0 78.5 0H45.5C43.52 0 41.84 1.26 41.24 3L35 21V45C35 45.7957 35.3161 46.5587 35.8787 47.1213C36.4413 47.6839 37.2044 48 38 48H41C41.7956 48 42.5587 47.6839 43.1213 47.1213C43.6839 46.5587 44 45.7957 44 45V42H80V45C80 45.7957 80.3161 46.5587 80.8787 47.1213C81.4413 47.6839 82.2043 48 83 48H86C86.7957 48 87.5587 47.6839 88.1213 47.1213C88.6839 46.5587 89 45.7957 89 45V21L82.76 3Z" fill="#714EAA"/>
<rect y="48" width="120" height="2" fill="#714EAA"/>
</svg>
