<svg width="380" height="110" viewBox="0 0 380 110" fill="none" xmlns="http://www.w3.org/2000/svg">
<path d="M0 40H380V105C380 107.761 377.761 110 375 110H5C2.23858 110 0 107.761 0 105V40Z" fill="#E6D6FF"/>
<path d="M0 5C0 2.23858 2.23858 0 5 0H375C377.761 0 380 2.23858 380 5V40H0V5Z" fill="#714EAA"/>
<path d="M47.526 14.49V27H45.474V18.432L41.658 27H40.236L36.402 18.432V27H34.35V14.49H36.564L40.956 24.3L45.33 14.49H47.526ZM59.313 21.798C59.313 22.17 59.289 22.506 59.241 22.806H51.663C51.723 23.598 52.017 24.234 52.545 24.714C53.073 25.194 53.721 25.434 54.489 25.434C55.593 25.434 56.373 24.972 56.829 24.048H59.043C58.743 24.96 58.197 25.71 57.405 26.298C56.625 26.874 55.653 27.162 54.489 27.162C53.541 27.162 52.689 26.952 51.933 26.532C51.189 26.1 50.601 25.5 50.169 24.732C49.749 23.952 49.539 23.052 49.539 22.032C49.539 21.012 49.743 20.118 50.151 19.35C50.571 18.57 51.153 17.97 51.897 17.55C52.653 17.13 53.517 16.92 54.489 16.92C55.425 16.92 56.259 17.124 56.991 17.532C57.723 17.94 58.293 18.516 58.701 19.26C59.109 19.992 59.313 20.838 59.313 21.798ZM57.171 21.15C57.159 20.394 56.889 19.788 56.361 19.332C55.833 18.876 55.179 18.648 54.399 18.648C53.691 18.648 53.085 18.876 52.581 19.332C52.077 19.776 51.777 20.382 51.681 21.15H57.171ZM63.7264 18.756V24.246C63.7264 24.618 63.8104 24.888 63.9784 25.056C64.1584 25.212 64.4584 25.29 64.8784 25.29H66.1384V27H64.5184C63.5944 27 62.8864 26.784 62.3944 26.352C61.9024 25.92 61.6564 25.218 61.6564 24.246V18.756H60.4864V17.082H61.6564V14.616H63.7264V17.082H66.1384V18.756H63.7264ZM73.1597 16.92C73.9157 16.92 74.5877 17.082 75.1757 17.406C75.7757 17.73 76.2437 18.21 76.5797 18.846C76.9277 19.482 77.1017 20.25 77.1017 21.15V27H75.0677V21.456C75.0677 20.568 74.8457 19.89 74.4017 19.422C73.9577 18.942 73.3517 18.702 72.5837 18.702C71.8157 18.702 71.2037 18.942 70.7477 19.422C70.3037 19.89 70.0817 20.568 70.0817 21.456V27H68.0297V13.68H70.0817V18.234C70.4297 17.814 70.8677 17.49 71.3957 17.262C71.9357 17.034 72.5237 16.92 73.1597 16.92ZM84.0211 27.162C83.0851 27.162 82.2391 26.952 81.4831 26.532C80.7271 26.1 80.1331 25.5 79.7011 24.732C79.2691 23.952 79.0531 23.052 79.0531 22.032C79.0531 21.024 79.2751 20.13 79.7191 19.35C80.1631 18.57 80.7691 17.97 81.5371 17.55C82.3051 17.13 83.1631 16.92 84.1111 16.92C85.0591 16.92 85.9171 17.13 86.6851 17.55C87.4531 17.97 88.0591 18.57 88.5031 19.35C88.9471 20.13 89.1691 21.024 89.1691 22.032C89.1691 23.04 88.9411 23.934 88.4851 24.714C88.0291 25.494 87.4051 26.1 86.6131 26.532C85.8331 26.952 84.9691 27.162 84.0211 27.162ZM84.0211 25.38C84.5491 25.38 85.0411 25.254 85.4971 25.002C85.9651 24.75 86.3431 24.372 86.6311 23.868C86.9191 23.364 87.0631 22.752 87.0631 22.032C87.0631 21.312 86.9251 20.706 86.6491 20.214C86.3731 19.71 86.0071 19.332 85.5511 19.08C85.0951 18.828 84.6031 18.702 84.0751 18.702C83.5471 18.702 83.0551 18.828 82.5991 19.08C82.1551 19.332 81.8011 19.71 81.5371 20.214C81.2731 20.706 81.1411 21.312 81.1411 22.032C81.1411 23.1 81.4111 23.928 81.9511 24.516C82.5031 25.092 83.1931 25.38 84.0211 25.38ZM90.5137 21.996C90.5137 21 90.7177 20.118 91.1257 19.35C91.5457 18.582 92.1097 17.988 92.8177 17.568C93.5377 17.136 94.3357 16.92 95.2117 16.92C95.8597 16.92 96.4957 17.064 97.1197 17.352C97.7557 17.628 98.2597 18 98.6317 18.468V13.68H100.702V27H98.6317V25.506C98.2957 25.986 97.8277 26.382 97.2277 26.694C96.6397 27.006 95.9617 27.162 95.1937 27.162C94.3297 27.162 93.5377 26.946 92.8177 26.514C92.1097 26.07 91.5457 25.458 91.1257 24.678C90.7177 23.886 90.5137 22.992 90.5137 21.996ZM98.6317 22.032C98.6317 21.348 98.4877 20.754 98.1997 20.25C97.9237 19.746 97.5577 19.362 97.1017 19.098C96.6457 18.834 96.1537 18.702 95.6257 18.702C95.0977 18.702 94.6057 18.834 94.1497 19.098C93.6937 19.35 93.3217 19.728 93.0337 20.232C92.7577 20.724 92.6197 21.312 92.6197 21.996C92.6197 22.68 92.7577 23.28 93.0337 23.796C93.3217 24.312 93.6937 24.708 94.1497 24.984C94.6177 25.248 95.1097 25.38 95.6257 25.38C96.1537 25.38 96.6457 25.248 97.1017 24.984C97.5577 24.72 97.9237 24.336 98.1997 23.832C98.4877 23.316 98.6317 22.716 98.6317 22.032ZM106.997 27.162C106.217 27.162 105.515 27.024 104.891 26.748C104.279 26.46 103.793 26.076 103.433 25.596C103.073 25.104 102.881 24.558 102.857 23.958H104.981C105.017 24.378 105.215 24.732 105.575 25.02C105.947 25.296 106.409 25.434 106.961 25.434C107.537 25.434 107.981 25.326 108.293 25.11C108.617 24.882 108.779 24.594 108.779 24.246C108.779 23.874 108.599 23.598 108.239 23.418C107.891 23.238 107.333 23.04 106.565 22.824C105.821 22.62 105.215 22.422 104.747 22.23C104.279 22.038 103.871 21.744 103.523 21.348C103.187 20.952 103.019 20.43 103.019 19.782C103.019 19.254 103.175 18.774 103.487 18.342C103.799 17.898 104.243 17.55 104.819 17.298C105.407 17.046 106.079 16.92 106.835 16.92C107.963 16.92 108.869 17.208 109.553 17.784C110.249 18.348 110.621 19.122 110.669 20.106H108.617C108.581 19.662 108.401 19.308 108.077 19.044C107.753 18.78 107.315 18.648 106.763 18.648C106.223 18.648 105.809 18.75 105.521 18.954C105.233 19.158 105.089 19.428 105.089 19.764C105.089 20.028 105.185 20.25 105.377 20.43C105.569 20.61 105.803 20.754 106.079 20.862C106.355 20.958 106.763 21.084 107.303 21.24C108.023 21.432 108.611 21.63 109.067 21.834C109.535 22.026 109.937 22.314 110.273 22.698C110.609 23.082 110.783 23.592 110.795 24.228C110.795 24.792 110.639 25.296 110.327 25.74C110.015 26.184 109.571 26.532 108.995 26.784C108.431 27.036 107.765 27.162 106.997 27.162ZM113.84 27.126C113.468 27.126 113.156 27 112.904 26.748C112.652 26.496 112.526 26.184 112.526 25.812C112.526 25.44 112.652 25.128 112.904 24.876C113.156 24.624 113.468 24.498 113.84 24.498C114.2 24.498 114.506 24.624 114.758 24.876C115.01 25.128 115.136 25.44 115.136 25.812C115.136 26.184 115.01 26.496 114.758 26.748C114.506 27 114.2 27.126 113.84 27.126ZM113.84 19.566C113.468 19.566 113.156 19.44 112.904 19.188C112.652 18.936 112.526 18.624 112.526 18.252C112.526 17.88 112.652 17.568 112.904 17.316C113.156 17.064 113.468 16.938 113.84 16.938C114.2 16.938 114.506 17.064 114.758 17.316C115.01 17.568 115.136 17.88 115.136 18.252C115.136 18.624 115.01 18.936 114.758 19.188C114.506 19.44 114.2 19.566 113.84 19.566Z" fill="white"/>
<path d="M26.202 14.0083L17.8547 9H16.1853L7.83805 14.0083L7.02002 15.4441V25.4608L7.83805 26.8798L16.1853 31.8881H17.8547L26.202 26.8798L27.02 25.4608V15.4441L26.202 14.0083ZM16.1853 29.9683L8.67277 25.4608V16.8464L16.1853 20.9366V29.9683ZM9.10683 15.177L17.02 10.4357L24.9332 15.177L17.02 19.5008L9.10683 15.177ZM25.3673 25.4608L17.8547 29.9683V20.9366L25.3673 16.8464V25.4608Z" fill="white"/>
</svg>
